<?xml version="1.0" encoding="UTF-8" standalone="no"?>
<svg xmlns:dc="http://purl.org/dc/elements/1.1/" xmlns:cc="http://creativecommons.org/ns#" xmlns:rdf="http://www.w3.org/1999/02/22-rdf-syntax-ns#" xmlns:svg="http://www.w3.org/2000/svg" xmlns="http://www.w3.org/2000/svg" width="1600" height="1600" version="1.1"> 

<g transform="translate(0, 547.638)"> 
<g transform="translate(2.85712, -14.2857)">
<g style="stroke:black; stroke-width: 1; " transform="translate(-2.85715, -2933.35)"> 
<line y2="3073.5" x2="1371.8" y1="2477" x1="1200"/>
<line y2="2547.5" x2="1401.4" y1="2477" x1="1200"/>
<line y2="2763.8" x2="1521" y1="2477" x1="1200"/>
<line y2="3001.3999" x2="1452.5" y1="2477" x1="1200"/>
<line y2="3114.8999" x2="1271.9" y1="2477" x1="1200"/>
<line y2="2940.1001" x2="1491" y1="2477" x1="1200"/>
<line y2="3121" x2="1236.2" y1="2477" x1="1200"/>
<line y2="2628.2" x2="1473.5" y1="2477" x1="1200"/>
<line y2="2659.8999" x2="1491" y1="2477" x1="1200"/>
<line y2="2547.5" x2="998.59998" y1="2477" x1="1200"/>
<line y2="2906.7" x2="1504.9" y1="2598.6001" x1="1452.5"/>
<line y2="2800" x2="1523" y1="2598.6001" x1="1452.5"/>
<line y2="3028.3999" x2="971.59998" y1="2598.6001" x1="1452.5"/>
<line y2="3123" x2="1200" y1="2598.6001" x1="1452.5"/>
<line y2="3114.8999" x2="1271.9" y1="2598.6001" x1="1452.5"/>
<line y2="2940.1001" x2="1491" y1="2598.6001" x1="1452.5"/>
<line y2="3028.3999" x2="1428.4" y1="2598.6001" x1="1452.5"/>
<line y2="3104.8999" x2="1093.3" y1="2598.6001" x1="1452.5"/>
<line y2="2485.1001" x2="1271.9" y1="2598.6001" x1="1452.5"/>
<line y2="3052.5" x2="998.59998" y1="2598.6001" x1="1452.5"/>
<line y2="3073.5" x2="1371.8" y1="2659.8999" x1="909"/>
<line y2="2547.5" x2="1401.4" y1="2659.8999" x1="909"/>
<line y2="3028.3999" x2="971.59998" y1="2659.8999" x1="909"/>
<line y2="3123" x2="1200" y1="2659.8999" x1="909"/>
<line y2="2871.8999" x2="885.09998" y1="2659.8999" x1="909"/>
<line y2="2800" x2="877" y1="2659.8999" x1="909"/>
<line y2="3114.8999" x2="1128.1" y1="2659.8999" x1="909"/>
<line y2="2495.1001" x2="1306.7" y1="2659.8999" x1="909"/>
<line y2="3001.3999" x2="947.5" y1="2659.8999" x1="909"/>
<line y2="2836.2" x2="1521" y1="2659.8999" x1="909"/>
<line y2="2906.7" x2="1504.9" y1="2509" x1="1340.1"/>
<line y2="2800" x2="1523" y1="2509" x1="1340.1"/>
<line y2="2763.8" x2="1521" y1="2509" x1="1340.1"/>
<line y2="3001.3999" x2="1452.5" y1="2509" x1="1340.1"/>
<line y2="2871.8999" x2="885.09998" y1="2509" x1="1340.1"/>
<line y2="2800" x2="877" y1="2509" x1="1340.1"/>
<line y2="2728.1001" x2="885.09998" y1="2509" x1="1340.1"/>
<line y2="2836.2" x2="879" y1="2509" x1="1340.1"/>
<line y2="3052.5" x2="1401.4" y1="2509" x1="1340.1"/>
<line y2="2526.5" x2="1371.8" y1="2509" x1="1340.1"/>
<line y2="3121" x2="1163.8" y1="2871.8999" x1="1514.9"/>
<line y2="2763.8" x2="879" y1="2871.8999" x1="1514.9"/>
<line y2="2906.7" x2="895.09998" y1="2871.8999" x1="1514.9"/>
<line y2="3104.8999" x2="1306.7" y1="2871.8999" x1="1514.9"/>
<line y2="3114.8999" x2="1271.9" y1="2871.8999" x1="1514.9"/>
<line y2="2800" x2="877" y1="2871.8999" x1="1514.9"/>
<line y2="3052.5" x2="1401.4" y1="2871.8999" x1="1514.9"/>
<line y2="3001.3999" x2="947.5" y1="2871.8999" x1="1514.9"/>
<line y2="2659.8999" x2="1491" y1="2871.8999" x1="1514.9"/>
<line y2="3052.5" x2="998.59998" y1="2871.8999" x1="1514.9"/>
<line y2="2940.1001" x2="909" y1="3091" x1="1059.9"/>
<line y2="2693.3" x2="895.09998" y1="3091" x1="1059.9"/>
<line y2="2509" x2="1059.9" y1="3091" x1="1059.9"/>
<line y2="2479" x2="1163.8" y1="3091" x1="1059.9"/>
<line y2="3114.8999" x2="1271.9" y1="3091" x1="1059.9"/>
<line y2="2800" x2="877" y1="3091" x1="1059.9"/>
<line y2="2836.2" x2="879" y1="3091" x1="1059.9"/>
<line y2="2495.1001" x2="1306.7" y1="3091" x1="1059.9"/>
<line y2="2485.1001" x2="1271.9" y1="3091" x1="1059.9"/>
<line y2="2547.5" x2="998.59998" y1="3091" x1="1059.9"/>
<line y2="2940.1001" x2="909" y1="2571.6001" x1="1428.4"/>
<line y2="2693.3" x2="895.09998" y1="2571.6001" x1="1428.4"/>
<line y2="2906.7" x2="895.09998" y1="2571.6001" x1="1428.4"/>
<line y2="3104.8999" x2="1306.7" y1="2571.6001" x1="1428.4"/>
<line y2="2871.8999" x2="885.09998" y1="2571.6001" x1="1428.4"/>
<line y2="2940.1001" x2="1491" y1="2571.6001" x1="1428.4"/>
<line y2="3114.8999" x2="1128.1" y1="2571.6001" x1="1428.4"/>
<line y2="3104.8999" x2="1093.3" y1="2571.6001" x1="1428.4"/>
<line y2="2628.2" x2="1473.5" y1="2571.6001" x1="1428.4"/>
<line y2="2526.5" x2="1371.8" y1="2571.6001" x1="1428.4"/>
<line y2="3121" x2="1163.8" y1="2495.1001" x1="1093.3"/>
<line y2="2763.8" x2="879" y1="2495.1001" x1="1093.3"/>
<line y2="2509" x2="1059.9" y1="2495.1001" x1="1093.3"/>
<line y2="2479" x2="1163.8" y1="2495.1001" x1="1093.3"/>
<line y2="2871.8999" x2="885.09998" y1="2495.1001" x1="1093.3"/>
<line y2="2940.1001" x2="1491" y1="2495.1001" x1="1093.3"/>
<line y2="2728.1001" x2="885.09998" y1="2495.1001" x1="1093.3"/>
<line y2="3028.3999" x2="1428.4" y1="2495.1001" x1="1093.3"/>
<line y2="3121" x2="1236.2" y1="2495.1001" x1="1093.3"/>
<line y2="2836.2" x2="1521" y1="2495.1001" x1="1093.3"/>
<line y2="3091" x2="1340.1" y1="2971.8" x1="926.5"/>
<line y2="2693.3" x2="1504.9" y1="2971.8" x1="926.5"/>
<line y2="2906.7" x2="895.09998" y1="2971.8" x1="926.5"/>
<line y2="2479" x2="1163.8" y1="2971.8" x1="926.5"/>
<line y2="2763.8" x2="1521" y1="2971.8" x1="926.5"/>
<line y2="3123" x2="1200" y1="2971.8" x1="926.5"/>
<line y2="3121" x2="1236.2" y1="2971.8" x1="926.5"/>
<line y2="3001.3999" x2="947.5" y1="2971.8" x1="926.5"/>
<line y2="2485.1001" x2="1271.9" y1="2971.8" x1="926.5"/>
<line y2="2526.5" x2="1371.8" y1="2971.8" x1="926.5"/>
<line y2="3091" x2="1340.1" y1="3073.5" x1="1028.2"/>
<line y2="2693.3" x2="1504.9" y1="3073.5" x1="1028.2"/>
<line y2="2509" x2="1059.9" y1="3073.5" x1="1028.2"/>
<line y2="3104.8999" x2="1306.7" y1="3073.5" x1="1028.2"/>
<line y2="3028.3999" x2="971.59998" y1="3073.5" x1="1028.2"/>
<line y2="3001.3999" x2="1452.5" y1="3073.5" x1="1028.2"/>
<line y2="2836.2" x2="879" y1="3073.5" x1="1028.2"/>
<line y2="3104.8999" x2="1093.3" y1="3073.5" x1="1028.2"/>
<line y2="2659.8999" x2="1491" y1="3073.5" x1="1028.2"/>
<line y2="2836.2" x2="1521" y1="3073.5" x1="1028.2"/>
<line y2="2598.6001" x2="947.5" y1="2479" x1="1236.2"/>
<line y2="2571.6001" x2="971.59998" y1="2479" x1="1236.2"/>
<line y2="2906.7" x2="895.09998" y1="2479" x1="1236.2"/>
<line y2="2479" x2="1163.8" y1="2479" x1="1236.2"/>
<line y2="3028.3999" x2="971.59998" y1="2479" x1="1236.2"/>
<line y2="3001.3999" x2="1452.5" y1="2479" x1="1236.2"/>
<line y2="2728.1001" x2="885.09998" y1="2479" x1="1236.2"/>
<line y2="2495.1001" x2="1306.7" y1="2479" x1="1236.2"/>
<line y2="2628.2" x2="1473.5" y1="2479" x1="1236.2"/>
<line y2="3052.5" x2="998.59998" y1="2479" x1="1236.2"/>
<line y2="2598.6001" x2="947.5" y1="2728.1001" x1="1514.9"/>
<line y2="2571.6001" x2="971.59998" y1="2728.1001" x1="1514.9"/>
<line y2="2509" x2="1059.9" y1="2728.1001" x1="1514.9"/>
<line y2="3104.8999" x2="1306.7" y1="2728.1001" x1="1514.9"/>
<line y2="2763.8" x2="1521" y1="2728.1001" x1="1514.9"/>
<line y2="3123" x2="1200" y1="2728.1001" x1="1514.9"/>
<line y2="3114.8999" x2="1128.1" y1="2728.1001" x1="1514.9"/>
<line y2="3028.3999" x2="1428.4" y1="2728.1001" x1="1514.9"/>
<line y2="3052.5" x2="1401.4" y1="2728.1001" x1="1514.9"/>
<line y2="2547.5" x2="998.59998" y1="2728.1001" x1="1514.9"/>
<line y2="3091" x2="1340.1" y1="2628.2" x1="926.5"/>
<line y2="2571.6001" x2="971.59998" y1="2628.2" x1="926.5"/>
<line y2="3121" x2="1163.8" y1="2628.2" x1="926.5"/>
<line y2="2693.3" x2="895.09998" y1="2628.2" x1="926.5"/>
<line y2="3073.5" x2="1371.8" y1="2628.2" x1="926.5"/>
<line y2="2800" x2="1523" y1="2628.2" x1="926.5"/>
<line y2="3052.5" x2="1401.4" y1="2628.2" x1="926.5"/>
<line y2="2628.2" x2="1473.5" y1="2628.2" x1="926.5"/>
<line y2="2485.1001" x2="1271.9" y1="2628.2" x1="926.5"/>
<line y2="2836.2" x2="1521" y1="2628.2" x1="926.5"/>
<line y2="3091" x2="1340.1" y1="2526.5" x1="1028.2"/>
<line y2="2571.6001" x2="971.59998" y1="2526.5" x1="1028.2"/>
<line y2="2940.1001" x2="909" y1="2526.5" x1="1028.2"/>
<line y2="2763.8" x2="879" y1="2526.5" x1="1028.2"/>
<line y2="2906.7" x2="1504.9" y1="2526.5" x1="1028.2"/>
<line y2="2547.5" x2="1401.4" y1="2526.5" x1="1028.2"/>
<line y2="3028.3999" x2="1428.4" y1="2526.5" x1="1028.2"/>
<line y2="2495.1001" x2="1306.7" y1="2526.5" x1="1028.2"/>
<line y2="2659.8999" x2="1491" y1="2526.5" x1="1028.2"/>
<line y2="2526.5" x2="1371.8" y1="2526.5" x1="1028.2"/>
<line y2="2598.6001" x2="947.5" y1="2485.1001" x1="1128.1"/>
<line y2="2693.3" x2="1504.9" y1="2485.1001" x1="1128.1"/>
<line y2="2940.1001" x2="909" y1="2485.1001" x1="1128.1"/>
<line y2="2763.8" x2="879" y1="2485.1001" x1="1128.1"/>
<line y2="3073.5" x2="1371.8" y1="2485.1001" x1="1128.1"/>
<line y2="2800" x2="1523" y1="2485.1001" x1="1128.1"/>
<line y2="2728.1001" x2="885.09998" y1="2485.1001" x1="1128.1"/>
<line y2="3104.8999" x2="1093.3" y1="2485.1001" x1="1128.1"/>
<line y2="3001.3999" x2="947.5" y1="2485.1001" x1="1128.1"/>
<line y2="2547.5" x2="998.59998" y1="2485.1001" x1="1128.1"/>
<line y2="2598.6001" x2="947.5" y1="2971.8" x1="1473.5"/>
<line y2="2693.3" x2="1504.9" y1="2971.8" x1="1473.5"/>
<line y2="3121" x2="1163.8" y1="2971.8" x1="1473.5"/>
<line y2="2693.3" x2="895.09998" y1="2971.8" x1="1473.5"/>
<line y2="2906.7" x2="1504.9" y1="2971.8" x1="1473.5"/>
<line y2="2547.5" x2="1401.4" y1="2971.8" x1="1473.5"/>
<line y2="3114.8999" x2="1128.1" y1="2971.8" x1="1473.5"/>
<line y2="2836.2" x2="879" y1="2971.8" x1="1473.5"/>
<line y2="3121" x2="1236.2" y1="2971.8" x1="1473.5"/>
<line y2="3052.5" x2="998.59998" y1="2971.8" x1="1473.5"/>
<line y2="2940.1001" x2="1491" y1="2598.6001" x1="947.5"/>
<line y2="2800" x2="877" y1="2598.6001" x1="947.5"/>
<line y2="2659.8999" x2="1491" y1="2598.6001" x1="947.5"/>
<line y2="2485.1001" x2="1271.9" y1="2598.6001" x1="947.5"/>
<line y2="2836.2" x2="1521" y1="2598.6001" x1="947.5"/>
<line y2="2526.5" x2="1371.8" y1="2598.6001" x1="947.5"/>
<line y2="2940.1001" x2="1491" y1="3091" x1="1340.1"/>
<line y2="2800" x2="877" y1="3091" x1="1340.1"/>
<line y2="3114.8999" x2="1128.1" y1="3091" x1="1340.1"/>
<line y2="2728.1001" x2="885.09998" y1="3091" x1="1340.1"/>
<line y2="3052.5" x2="998.59998" y1="3091" x1="1340.1"/>
<line y2="2547.5" x2="998.59998" y1="3091" x1="1340.1"/>
<line y2="2871.8999" x2="885.09998" y1="2571.6001" x1="971.59998"/>
<line y2="3114.8999" x2="1271.9" y1="2571.6001" x1="971.59998"/>
<line y2="2836.2" x2="879" y1="2571.6001" x1="971.59998"/>
<line y2="3104.8999" x2="1093.3" y1="2571.6001" x1="971.59998"/>
<line y2="3121" x2="1236.2" y1="2571.6001" x1="971.59998"/>
<line y2="3001.3999" x2="947.5" y1="2571.6001" x1="971.59998"/>
<line y2="2871.8999" x2="885.09998" y1="2693.3" x1="1504.9"/>
<line y2="3114.8999" x2="1271.9" y1="2693.3" x1="1504.9"/>
<line y2="3028.3999" x2="1428.4" y1="2693.3" x1="1504.9"/>
<line y2="2495.1001" x2="1306.7" y1="2693.3" x1="1504.9"/>
<line y2="3052.5" x2="1401.4" y1="2693.3" x1="1504.9"/>
<line y2="2628.2" x2="1473.5" y1="2693.3" x1="1504.9"/>
<line y2="3001.3999" x2="1452.5" y1="2940.1001" x1="909"/>
<line y2="3123" x2="1200" y1="2940.1001" x1="909"/>
<line y2="3121" x2="1236.2" y1="2940.1001" x1="909"/>
<line y2="3052.5" x2="1401.4" y1="2940.1001" x1="909"/>
<line y2="2836.2" x2="1521" y1="2940.1001" x1="909"/>
<line y2="3052.5" x2="998.59998" y1="2940.1001" x1="909"/>
<line y2="3001.3999" x2="1452.5" y1="3121" x1="1163.8"/>
<line y2="3123" x2="1200" y1="3121" x1="1163.8"/>
<line y2="2495.1001" x2="1306.7" y1="3121" x1="1163.8"/>
<line y2="3104.8999" x2="1093.3" y1="3121" x1="1163.8"/>
<line y2="2526.5" x2="1371.8" y1="3121" x1="1163.8"/>
<line y2="2547.5" x2="998.59998" y1="3121" x1="1163.8"/>
<line y2="3028.3999" x2="971.59998" y1="2693.3" x1="895.09998"/>
<line y2="2763.8" x2="1521" y1="2693.3" x1="895.09998"/>
<line y2="2728.1001" x2="885.09998" y1="2693.3" x1="895.09998"/>
<line y2="3028.3999" x2="1428.4" y1="2693.3" x1="895.09998"/>
<line y2="3001.3999" x2="947.5" y1="2693.3" x1="895.09998"/>
<line y2="2659.8999" x2="1491" y1="2693.3" x1="895.09998"/>
<line y2="3028.3999" x2="971.59998" y1="2763.8" x1="879"/>
<line y2="2763.8" x2="1521" y1="2763.8" x1="879"/>
<line y2="3114.8999" x2="1128.1" y1="2763.8" x1="879"/>
<line y2="2836.2" x2="879" y1="2763.8" x1="879"/>
<line y2="2628.2" x2="1473.5" y1="2763.8" x1="879"/>
<line y2="2485.1001" x2="1271.9" y1="2763.8" x1="879"/>
<line y2="2547.5" x2="1401.4" y1="2509" x1="1059.9"/>
<line y2="2800" x2="1523" y1="2509" x1="1059.9"/>
<line y2="2628.2" x2="1473.5" y1="2509" x1="1059.9"/>
<line y2="3001.3999" x2="947.5" y1="2509" x1="1059.9"/>
<line y2="2526.5" x2="1371.8" y1="2509" x1="1059.9"/>
<line y2="3052.5" x2="998.59998" y1="2509" x1="1059.9"/>
<line y2="2547.5" x2="1401.4" y1="2906.7" x1="895.09998"/>
<line y2="2800" x2="1523" y1="2906.7" x1="895.09998"/>
<line y2="2836.2" x2="879" y1="2906.7" x1="895.09998"/>
<line y2="3028.3999" x2="1428.4" y1="2906.7" x1="895.09998"/>
<line y2="2836.2" x2="1521" y1="2906.7" x1="895.09998"/>
<line y2="2547.5" x2="998.59998" y1="2906.7" x1="895.09998"/>
<line y2="2906.7" x2="1504.9" y1="2479" x1="1163.8"/>
<line y2="3073.5" x2="1371.8" y1="2479" x1="1163.8"/>
<line y2="3114.8999" x2="1128.1" y1="2479" x1="1163.8"/>
<line y2="3104.8999" x2="1093.3" y1="2479" x1="1163.8"/>
<line y2="3052.5" x2="1401.4" y1="2479" x1="1163.8"/>
<line y2="2659.8999" x2="1491" y1="2479" x1="1163.8"/>
<line y2="2906.7" x2="1504.9" y1="3104.8999" x1="1306.7"/>
<line y2="3073.5" x2="1371.8" y1="3104.8999" x1="1306.7"/>
<line y2="2728.1001" x2="885.09998" y1="3104.8999" x1="1306.7"/>
<line y2="2495.1001" x2="1306.7" y1="3104.8999" x1="1306.7"/>
<line y2="3121" x2="1236.2" y1="3104.8999" x1="1306.7"/>
<line y2="2485.1001" x2="1271.9" y1="3104.8999" x1="1306.7"/>
<line y2="2628.2" x2="1473.5" y1="2906.7" x1="1504.9"/>
<line y2="3001.3999" x2="947.5" y1="2906.7" x1="1504.9"/>
<line y2="2836.2" x2="1521" y1="2906.7" x1="1504.9"/>
<line y2="2547.5" x2="998.59998" y1="2906.7" x1="1504.9"/>
<line y2="2836.2" x2="879" y1="3073.5" x1="1371.8"/>
<line y2="3028.3999" x2="1428.4" y1="3073.5" x1="1371.8"/>
<line y2="2526.5" x2="1371.8" y1="3073.5" x1="1371.8"/>
<line y2="3052.5" x2="998.59998" y1="3073.5" x1="1371.8"/>
<line y2="2728.1001" x2="885.09998" y1="2547.5" x1="1401.4"/>
<line y2="3104.8999" x2="1093.3" y1="2547.5" x1="1401.4"/>
<line y2="3052.5" x2="1401.4" y1="2547.5" x1="1401.4"/>
<line y2="2485.1001" x2="1271.9" y1="2547.5" x1="1401.4"/>
<line y2="3114.8999" x2="1128.1" y1="2800" x1="1523"/>
<line y2="2495.1001" x2="1306.7" y1="2800" x1="1523"/>
<line y2="3121" x2="1236.2" y1="2800" x1="1523"/>
<line y2="2659.8999" x2="1491" y1="2800" x1="1523"/>
<line y2="3121" x2="1236.2" y1="3028.3999" x1="971.59998"/>
<line y2="3052.5" x2="1401.4" y1="3028.3999" x1="971.59998"/>
<line y2="2526.5" x2="1371.8" y1="3028.3999" x1="971.59998"/>
<line y2="2547.5" x2="998.59998" y1="3028.3999" x1="971.59998"/>
<line y2="2495.1001" x2="1306.7" y1="2763.8" x1="1521"/>
<line y2="3104.8999" x2="1093.3" y1="2763.8" x1="1521"/>
<line y2="2836.2" x2="1521" y1="2763.8" x1="1521"/>
<line y2="3052.5" x2="998.59998" y1="2763.8" x1="1521"/>
<line y2="3114.8999" x2="1128.1" y1="3001.3999" x1="1452.5"/>
<line y2="3028.3999" x2="1428.4" y1="3001.3999" x1="1452.5"/>
<line y2="3001.3999" x2="947.5" y1="3001.3999" x1="1452.5"/>
<line y2="2485.1001" x2="1271.9" y1="3001.3999" x1="1452.5"/>
<line y2="2728.1001" x2="885.09998" y1="3123" x1="1200"/>
<line y2="2836.2" x2="879" y1="3123" x1="1200"/>
<line y2="2628.2" x2="1473.5" y1="3123" x1="1200"/>
<line y2="2659.8999" x2="1491" y1="3123" x1="1200"/>
<line y2="2659.8999" x2="1491" y1="2871.8999" x1="885.09998"/>
<line y2="2485.1001" x2="1271.9" y1="2871.8999" x1="885.09998"/>
<line y2="3052.5" x2="998.59998" y1="2871.8999" x1="885.09998"/>
<line y2="2547.5" x2="998.59998" y1="2871.8999" x1="885.09998"/>
<line y2="3114.8999" x2="1128.1" y1="3114.8999" x1="1271.9"/>
<line y2="2728.1001" x2="885.09998" y1="3114.8999" x1="1271.9"/>
<line y2="2836.2" x2="1521" y1="3114.8999" x1="1271.9"/>
<line y2="2526.5" x2="1371.8" y1="3114.8999" x1="1271.9"/>
<line y2="2836.2" x2="879" y1="2940.1001" x1="1491"/>
<line y2="2495.1001" x2="1306.7" y1="2940.1001" x1="1491"/>
<line y2="3052.5" x2="1401.4" y1="2940.1001" x1="1491"/>
<line y2="3001.3999" x2="947.5" y1="2940.1001" x1="1491"/>
<line y2="3028.3999" x2="1428.4" y1="2800" x1="877"/>
<line y2="3104.8999" x2="1093.3" y1="2800" x1="877"/>
<line y2="3121" x2="1236.2" y1="2800" x1="877"/>
<line y2="2628.2" x2="1473.5" y1="2800" x1="877"/></g> 
<g style="fill:blue; stroke:black; stroke-width: 1; " transform="translate(-2.85715, -2933.35)"> 
<circle r="6" cy="2477" cx="1200"/>
<circle r="6" cy="2598.6001" cx="1452.5"/>
<circle r="6" cy="2659.8999" cx="909"/>
<circle r="6" cy="2509" cx="1340.1"/>
<circle r="6" cy="2871.8999" cx="1514.9"/>
<circle r="6" cy="3091" cx="1059.9"/>
<circle r="6" cy="2571.6001" cx="1428.4"/>
<circle r="6" cy="2495.1001" cx="1093.3"/>
<circle r="6" cy="2971.8" cx="926.5"/>
<circle r="6" cy="3073.5" cx="1028.2"/>
<circle r="6" cy="2479" cx="1236.2"/>
<circle r="6" cy="2728.1001" cx="1514.9"/>
<circle r="6" cy="2628.2" cx="926.5"/>
<circle r="6" cy="2526.5" cx="1028.2"/>
<circle r="6" cy="2485.1001" cx="1128.1"/>
<circle r="6" cy="2971.8" cx="1473.5"/>
<circle r="6" cy="2598.6001" cx="947.5"/>
<circle r="6" cy="3091" cx="1340.1"/>
<circle r="6" cy="2571.6001" cx="971.59998"/>
<circle r="6" cy="2693.3" cx="1504.9"/>
<circle r="6" cy="2940.1001" cx="909"/>
<circle r="6" cy="3121" cx="1163.8"/>
<circle r="6" cy="2693.3" cx="895.09998"/>
<circle r="6" cy="2763.8" cx="879"/>
<circle r="6" cy="2509" cx="1059.9"/>
<circle r="6" cy="2906.7" cx="895.09998"/>
<circle r="6" cy="2479" cx="1163.8"/>
<circle r="6" cy="3104.8999" cx="1306.7"/>
<circle r="6" cy="2906.7" cx="1504.9"/>
<circle r="6" cy="3073.5" cx="1371.8"/>
<circle r="6" cy="2547.5" cx="1401.4"/>
<circle r="6" cy="2800" cx="1523"/>
<circle r="6" cy="3028.3999" cx="971.59998"/>
<circle r="6" cy="2763.8" cx="1521"/>
<circle r="6" cy="3001.3999" cx="1452.5"/>
<circle r="6" cy="3123" cx="1200"/>
<circle r="6" cy="2871.8999" cx="885.09998"/>
<circle r="6" cy="3114.8999" cx="1271.9"/>
<circle r="6" cy="2940.1001" cx="1491"/>
<circle r="6" cy="2800" cx="877"/>
<circle r="6" cy="3114.8999" cx="1128.1"/>
<circle r="6" cy="2728.1001" cx="885.09998"/>
<circle r="6" cy="2836.2" cx="879"/>
<circle r="6" cy="3028.3999" cx="1428.4"/>
<circle r="6" cy="2495.1001" cx="1306.7"/>
<circle r="6" cy="3104.8999" cx="1093.3"/>
<circle r="6" cy="3121" cx="1236.2"/>
<circle r="6" cy="3052.5" cx="1401.4"/>
<circle r="6" cy="2628.2" cx="1473.5"/>
<circle r="6" cy="3001.3999" cx="947.5"/>
<circle r="6" cy="2659.8999" cx="1491"/>
<circle r="6" cy="2485.1001" cx="1271.9"/>
<circle r="6" cy="2836.2" cx="1521"/>
<circle r="6" cy="2526.5" cx="1371.8"/>
<circle r="6" cy="3052.5" cx="998.59998"/>
<circle r="6" cy="2547.5" cx="998.59998"/>
</g> </g> 
</g></svg>