<?xml version="1.0" encoding="UTF-8" standalone="no"?>
<svg xmlns:dc="http://purl.org/dc/elements/1.1/" xmlns:cc="http://creativecommons.org/ns#" xmlns:rdf="http://www.w3.org/1999/02/22-rdf-syntax-ns#" xmlns:svg="http://www.w3.org/2000/svg" xmlns="http://www.w3.org/2000/svg" width="1600" height="1600" version="1.1"> 

<g transform="translate(0, 547.638)"> 
<g transform="translate(-368.571, 288.571)"> 
<g style="stroke:black; stroke-width: 1; " transform="translate(-3631.43, -5636.21)"> 
<line y2="6036.2002" x2="4721" y1="5798.6001" x1="4147.5"/>
<line y2="6314.8999" x2="4471.8999" y1="5798.6001" x1="4147.5"/>
<line y2="6252.5" x2="4601.3999" y1="5798.6001" x1="4147.5"/>
<line y2="6321" x2="4363.7998" y1="5798.6001" x1="4147.5"/>
<line y2="6036.2002" x2="4079" y1="5798.6001" x1="4147.5"/>
<line y2="6273.5" x2="4228.2002" y1="5798.6001" x1="4147.5"/>
<line y2="6321" x2="4436.2002" y1="5798.6001" x1="4147.5"/>
<line y2="5928.1001" x2="4714.8999" y1="5798.6001" x1="4147.5"/>
<line y2="6304.8999" x2="4506.7002" y1="5798.6001" x1="4147.5"/>
<line y2="5828.2002" x2="4673.5" y1="5798.6001" x1="4147.5"/>
<line y2="6201.3999" x2="4652.5" y1="5677" x1="4400"/>
<line y2="6252.5" x2="4198.6001" y1="5677" x1="4400"/>
<line y2="6228.3999" x2="4171.6001" y1="5677" x1="4400"/>
<line y2="6171.7998" x2="4126.5" y1="5677" x1="4400"/>
<line y2="6036.2002" x2="4079" y1="5677" x1="4400"/>
<line y2="6273.5" x2="4228.2002" y1="5677" x1="4400"/>
<line y2="6314.8999" x2="4328.1001" y1="5677" x1="4400"/>
<line y2="6273.5" x2="4571.7998" y1="5677" x1="4400"/>
<line y2="6106.7002" x2="4704.8999" y1="5677" x1="4400"/>
<line y2="5771.6001" x2="4171.6001" y1="5677" x1="4400"/>
<line y2="6036.2002" x2="4721" y1="5859.8999" x1="4691"/>
<line y2="6314.8999" x2="4471.8999" y1="5859.8999" x1="4691"/>
<line y2="6228.3999" x2="4171.6001" y1="5859.8999" x1="4691"/>
<line y2="6171.7998" x2="4126.5" y1="5859.8999" x1="4691"/>
<line y2="6291" x2="4259.8999" y1="5859.8999" x1="4691"/>
<line y2="5679" x2="4436.2002" y1="5859.8999" x1="4691"/>
<line y2="5747.5" x2="4198.6001" y1="5859.8999" x1="4691"/>
<line y2="5695.1001" x2="4506.7002" y1="5859.8999" x1="4691"/>
<line y2="5893.2998" x2="4095.1001" y1="5859.8999" x1="4691"/>
<line y2="5771.6001" x2="4628.3999" y1="5859.8999" x1="4691"/>
<line y2="6201.3999" x2="4652.5" y1="5963.7998" x1="4721"/>
<line y2="6252.5" x2="4198.6001" y1="5963.7998" x1="4721"/>
<line y2="6252.5" x2="4601.3999" y1="5963.7998" x1="4721"/>
<line y2="6321" x2="4363.7998" y1="5963.7998" x1="4721"/>
<line y2="6291" x2="4259.8999" y1="5963.7998" x1="4721"/>
<line y2="5679" x2="4436.2002" y1="5963.7998" x1="4721"/>
<line y2="5695.1001" x2="4293.2998" y1="5963.7998" x1="4721"/>
<line y2="5928.1001" x2="4085.1001" y1="5963.7998" x1="4721"/>
<line y2="6000" x2="4077" y1="5963.7998" x1="4721"/>
<line y2="6000" x2="4723" y1="5963.7998" x1="4721"/>
<line y2="6140.1001" x2="4109" y1="5798.6001" x1="4652.5"/>
<line y2="5963.7998" x2="4079" y1="5798.6001" x1="4652.5"/>
<line y2="6304.8999" x2="4293.2998" y1="5798.6001" x1="4652.5"/>
<line y2="6323" x2="4400" y1="5798.6001" x1="4652.5"/>
<line y2="6036.2002" x2="4079" y1="5798.6001" x1="4652.5"/>
<line y2="5679" x2="4436.2002" y1="5798.6001" x1="4652.5"/>
<line y2="6000" x2="4077" y1="5798.6001" x1="4652.5"/>
<line y2="5893.2998" x2="4095.1001" y1="5798.6001" x1="4652.5"/>
<line y2="6304.8999" x2="4506.7002" y1="5798.6001" x1="4652.5"/>
<line y2="5771.6001" x2="4171.6001" y1="5798.6001" x1="4652.5"/>
<line y2="5685.1001" x2="4471.8999" y1="6291" x1="4540.1001"/>
<line y2="5685.1001" x2="4328.1001" y1="6291" x1="4540.1001"/>
<line y2="5726.5" x2="4571.7998" y1="6291" x1="4540.1001"/>
<line y2="5828.2002" x2="4126.5" y1="6291" x1="4540.1001"/>
<line y2="6036.2002" x2="4079" y1="6291" x1="4540.1001"/>
<line y2="5679" x2="4436.2002" y1="6291" x1="4540.1001"/>
<line y2="5928.1001" x2="4085.1001" y1="6291" x1="4540.1001"/>
<line y2="5695.1001" x2="4506.7002" y1="6291" x1="4540.1001"/>
<line y2="6106.7002" x2="4704.8999" y1="6291" x1="4540.1001"/>
<line y2="5828.2002" x2="4673.5" y1="6291" x1="4540.1001"/>
<line y2="5685.1001" x2="4471.8999" y1="5679" x1="4363.7998"/>
<line y2="5685.1001" x2="4328.1001" y1="5679" x1="4363.7998"/>
<line y2="6304.8999" x2="4293.2998" y1="5679" x1="4363.7998"/>
<line y2="6323" x2="4400" y1="5679" x1="4363.7998"/>
<line y2="6291" x2="4259.8999" y1="5679" x1="4363.7998"/>
<line y2="6273.5" x2="4228.2002" y1="5679" x1="4363.7998"/>
<line y2="5747.5" x2="4198.6001" y1="5679" x1="4363.7998"/>
<line y2="6273.5" x2="4571.7998" y1="5679" x1="4363.7998"/>
<line y2="5928.1001" x2="4714.8999" y1="5679" x1="4363.7998"/>
<line y2="6000" x2="4723" y1="5679" x1="4363.7998"/>
<line y2="6140.1001" x2="4109" y1="5747.5" x1="4601.3999"/>
<line y2="5963.7998" x2="4079" y1="5747.5" x1="4601.3999"/>
<line y2="5726.5" x2="4571.7998" y1="5747.5" x1="4601.3999"/>
<line y2="5828.2002" x2="4126.5" y1="5747.5" x1="4601.3999"/>
<line y2="6291" x2="4259.8999" y1="5747.5" x1="4601.3999"/>
<line y2="6273.5" x2="4228.2002" y1="5747.5" x1="4601.3999"/>
<line y2="5695.1001" x2="4293.2998" y1="5747.5" x1="4601.3999"/>
<line y2="6314.8999" x2="4328.1001" y1="5747.5" x1="4601.3999"/>
<line y2="6321" x2="4436.2002" y1="5747.5" x1="4601.3999"/>
<line y2="5771.6001" x2="4628.3999" y1="5747.5" x1="4601.3999"/>
<line y2="6071.8999" x2="4714.8999" y1="5859.8999" x1="4109"/>
<line y2="5893.2998" x2="4704.8999" y1="5859.8999" x1="4109"/>
<line y2="6304.8999" x2="4293.2998" y1="5859.8999" x1="4109"/>
<line y2="5828.2002" x2="4126.5" y1="5859.8999" x1="4109"/>
<line y2="6252.5" x2="4601.3999" y1="5859.8999" x1="4109"/>
<line y2="6171.7998" x2="4126.5" y1="5859.8999" x1="4109"/>
<line y2="6321" x2="4436.2002" y1="5859.8999" x1="4109"/>
<line y2="5893.2998" x2="4095.1001" y1="5859.8999" x1="4109"/>
<line y2="6106.7002" x2="4704.8999" y1="5859.8999" x1="4109"/>
<line y2="6000" x2="4723" y1="5859.8999" x1="4109"/>
<line y2="6071.8999" x2="4714.8999" y1="6201.3999" x1="4147.5"/>
<line y2="5893.2998" x2="4704.8999" y1="6201.3999" x1="4147.5"/>
<line y2="5726.5" x2="4571.7998" y1="6201.3999" x1="4147.5"/>
<line y2="6323" x2="4400" y1="6201.3999" x1="4147.5"/>
<line y2="6228.3999" x2="4171.6001" y1="6201.3999" x1="4147.5"/>
<line y2="6321" x2="4363.7998" y1="6201.3999" x1="4147.5"/>
<line y2="5928.1001" x2="4085.1001" y1="6201.3999" x1="4147.5"/>
<line y2="6273.5" x2="4571.7998" y1="6201.3999" x1="4147.5"/>
<line y2="6304.8999" x2="4506.7002" y1="6201.3999" x1="4147.5"/>
<line y2="5771.6001" x2="4628.3999" y1="6201.3999" x1="4147.5"/>
<line y2="6071.8999" x2="4085.1001" y1="5709" x1="4540.1001"/>
<line y2="5709" x2="4259.8999" y1="5709" x1="4540.1001"/>
<line y2="6304.8999" x2="4293.2998" y1="5709" x1="4540.1001"/>
<line y2="5828.2002" x2="4126.5" y1="5709" x1="4540.1001"/>
<line y2="6228.3999" x2="4171.6001" y1="5709" x1="4540.1001"/>
<line y2="6321" x2="4363.7998" y1="5709" x1="4540.1001"/>
<line y2="5695.1001" x2="4293.2998" y1="5709" x1="4540.1001"/>
<line y2="5695.1001" x2="4506.7002" y1="5709" x1="4540.1001"/>
<line y2="5928.1001" x2="4714.8999" y1="5709" x1="4540.1001"/>
<line y2="5771.6001" x2="4171.6001" y1="5709" x1="4540.1001"/>
<line y2="6071.8999" x2="4085.1001" y1="6228.3999" x1="4628.3999"/>
<line y2="5709" x2="4259.8999" y1="6228.3999" x1="4628.3999"/>
<line y2="5726.5" x2="4571.7998" y1="6228.3999" x1="4628.3999"/>
<line y2="6323" x2="4400" y1="6228.3999" x1="4628.3999"/>
<line y2="6252.5" x2="4601.3999" y1="6228.3999" x1="4628.3999"/>
<line y2="6171.7998" x2="4126.5" y1="6228.3999" x1="4628.3999"/>
<line y2="5747.5" x2="4198.6001" y1="6228.3999" x1="4628.3999"/>
<line y2="6314.8999" x2="4328.1001" y1="6228.3999" x1="4628.3999"/>
<line y2="6000" x2="4077" y1="6228.3999" x1="4628.3999"/>
<line y2="5828.2002" x2="4673.5" y1="6228.3999" x1="4628.3999"/>
<line y2="6071.8999" x2="4714.8999" y1="6106.7002" x1="4095.1001"/>
<line y2="5709" x2="4259.8999" y1="6106.7002" x1="4095.1001"/>
<line y2="6140.1001" x2="4109" y1="6106.7002" x1="4095.1001"/>
<line y2="5685.1001" x2="4328.1001" y1="6106.7002" x1="4095.1001"/>
<line y2="6036.2002" x2="4721" y1="6106.7002" x1="4095.1001"/>
<line y2="6252.5" x2="4198.6001" y1="6106.7002" x1="4095.1001"/>
<line y2="6000" x2="4077" y1="6106.7002" x1="4095.1001"/>
<line y2="5928.1001" x2="4714.8999" y1="6106.7002" x1="4095.1001"/>
<line y2="6106.7002" x2="4704.8999" y1="6106.7002" x1="4095.1001"/>
<line y2="5771.6001" x2="4628.3999" y1="6106.7002" x1="4095.1001"/>
<line y2="6071.8999" x2="4714.8999" y1="5726.5" x1="4228.2002"/>
<line y2="5709" x2="4259.8999" y1="5726.5" x1="4228.2002"/>
<line y2="5685.1001" x2="4471.8999" y1="5726.5" x1="4228.2002"/>
<line y2="5963.7998" x2="4079" y1="5726.5" x1="4228.2002"/>
<line y2="6201.3999" x2="4652.5" y1="5726.5" x1="4228.2002"/>
<line y2="6314.8999" x2="4471.8999" y1="5726.5" x1="4228.2002"/>
<line y2="6314.8999" x2="4328.1001" y1="5726.5" x1="4228.2002"/>
<line y2="5695.1001" x2="4506.7002" y1="5726.5" x1="4228.2002"/>
<line y2="6304.8999" x2="4506.7002" y1="5726.5" x1="4228.2002"/>
<line y2="6000" x2="4723" y1="5726.5" x1="4228.2002"/>
<line y2="6071.8999" x2="4085.1001" y1="6140.1001" x1="4691"/>
<line y2="5893.2998" x2="4704.8999" y1="6140.1001" x1="4691"/>
<line y2="5685.1001" x2="4471.8999" y1="6140.1001" x1="4691"/>
<line y2="5963.7998" x2="4079" y1="6140.1001" x1="4691"/>
<line y2="6036.2002" x2="4721" y1="6140.1001" x1="4691"/>
<line y2="6252.5" x2="4198.6001" y1="6140.1001" x1="4691"/>
<line y2="5695.1001" x2="4293.2998" y1="6140.1001" x1="4691"/>
<line y2="6273.5" x2="4571.7998" y1="6140.1001" x1="4691"/>
<line y2="5893.2998" x2="4095.1001" y1="6140.1001" x1="4691"/>
<line y2="5828.2002" x2="4673.5" y1="6140.1001" x1="4691"/>
<line y2="6071.8999" x2="4085.1001" y1="6171.7998" x1="4673.5"/>
<line y2="5893.2998" x2="4704.8999" y1="6171.7998" x1="4673.5"/>
<line y2="6140.1001" x2="4109" y1="6171.7998" x1="4673.5"/>
<line y2="5685.1001" x2="4328.1001" y1="6171.7998" x1="4673.5"/>
<line y2="6201.3999" x2="4652.5" y1="6171.7998" x1="4673.5"/>
<line y2="6314.8999" x2="4471.8999" y1="6171.7998" x1="4673.5"/>
<line y2="5747.5" x2="4198.6001" y1="6171.7998" x1="4673.5"/>
<line y2="5928.1001" x2="4085.1001" y1="6171.7998" x1="4673.5"/>
<line y2="6321" x2="4436.2002" y1="6171.7998" x1="4673.5"/>
<line y2="5771.6001" x2="4171.6001" y1="6171.7998" x1="4673.5"/>
<line y2="6273.5" x2="4228.2002" y1="6071.8999" x1="4085.1001"/>
<line y2="5679" x2="4436.2002" y1="6071.8999" x1="4085.1001"/>
<line y2="6304.8999" x2="4506.7002" y1="6071.8999" x1="4085.1001"/>
<line y2="6106.7002" x2="4704.8999" y1="6071.8999" x1="4085.1001"/>
<line y2="5771.6001" x2="4628.3999" y1="6071.8999" x1="4085.1001"/>
<line y2="6000" x2="4723" y1="6071.8999" x1="4085.1001"/>
<line y2="6273.5" x2="4228.2002" y1="6071.8999" x1="4714.8999"/>
<line y2="5679" x2="4436.2002" y1="6071.8999" x1="4714.8999"/>
<line y2="5747.5" x2="4198.6001" y1="6071.8999" x1="4714.8999"/>
<line y2="5695.1001" x2="4293.2998" y1="6071.8999" x1="4714.8999"/>
<line y2="5771.6001" x2="4171.6001" y1="6071.8999" x1="4714.8999"/>
<line y2="5828.2002" x2="4673.5" y1="6071.8999" x1="4714.8999"/>
<line y2="6291" x2="4259.8999" y1="5709" x1="4259.8999"/>
<line y2="6036.2002" x2="4079" y1="5709" x1="4259.8999"/>
<line y2="5928.1001" x2="4085.1001" y1="5709" x1="4259.8999"/>
<line y2="6273.5" x2="4571.7998" y1="5709" x1="4259.8999"/>
<line y2="6321" x2="4436.2002" y1="5709" x1="4259.8999"/>
<line y2="5893.2998" x2="4095.1001" y1="5709" x1="4259.8999"/>
<line y2="6291" x2="4259.8999" y1="5893.2998" x1="4704.8999"/>
<line y2="6036.2002" x2="4079" y1="5893.2998" x1="4704.8999"/>
<line y2="6314.8999" x2="4328.1001" y1="5893.2998" x1="4704.8999"/>
<line y2="5695.1001" x2="4506.7002" y1="5893.2998" x1="4704.8999"/>
<line y2="6000" x2="4077" y1="5893.2998" x1="4704.8999"/>
<line y2="5928.1001" x2="4714.8999" y1="5893.2998" x1="4704.8999"/>
<line y2="6321" x2="4363.7998" y1="5685.1001" x1="4471.8999"/>
<line y2="6171.7998" x2="4126.5" y1="5685.1001" x1="4471.8999"/>
<line y2="6321" x2="4436.2002" y1="5685.1001" x1="4471.8999"/>
<line y2="6000" x2="4077" y1="5685.1001" x1="4471.8999"/>
<line y2="5771.6001" x2="4628.3999" y1="5685.1001" x1="4471.8999"/>
<line y2="5771.6001" x2="4171.6001" y1="5685.1001" x1="4471.8999"/>
<line y2="6321" x2="4363.7998" y1="6140.1001" x1="4109"/>
<line y2="6171.7998" x2="4126.5" y1="6140.1001" x1="4109"/>
<line y2="5695.1001" x2="4506.7002" y1="6140.1001" x1="4109"/>
<line y2="6273.5" x2="4571.7998" y1="6140.1001" x1="4109"/>
<line y2="6000" x2="4723" y1="6140.1001" x1="4109"/>
<line y2="5828.2002" x2="4673.5" y1="6140.1001" x1="4109"/>
<line y2="6228.3999" x2="4171.6001" y1="5685.1001" x1="4328.1001"/>
<line y2="6252.5" x2="4601.3999" y1="5685.1001" x1="4328.1001"/>
<line y2="5695.1001" x2="4293.2998" y1="5685.1001" x1="4328.1001"/>
<line y2="6314.8999" x2="4328.1001" y1="5685.1001" x1="4328.1001"/>
<line y2="5893.2998" x2="4095.1001" y1="5685.1001" x1="4328.1001"/>
<line y2="6304.8999" x2="4506.7002" y1="5685.1001" x1="4328.1001"/>
<line y2="6228.3999" x2="4171.6001" y1="5963.7998" x1="4079"/>
<line y2="6252.5" x2="4601.3999" y1="5963.7998" x1="4079"/>
<line y2="5747.5" x2="4198.6001" y1="5963.7998" x1="4079"/>
<line y2="5928.1001" x2="4085.1001" y1="5963.7998" x1="4079"/>
<line y2="5928.1001" x2="4714.8999" y1="5963.7998" x1="4079"/>
<line y2="6106.7002" x2="4704.8999" y1="5963.7998" x1="4079"/>
<line y2="6314.8999" x2="4471.8999" y1="5726.5" x1="4571.7998"/>
<line y2="6252.5" x2="4198.6001" y1="5726.5" x1="4571.7998"/>
<line y2="5928.1001" x2="4714.8999" y1="5726.5" x1="4571.7998"/>
<line y2="5893.2998" x2="4095.1001" y1="5726.5" x1="4571.7998"/>
<line y2="6000" x2="4723" y1="5726.5" x1="4571.7998"/>
<line y2="5771.6001" x2="4171.6001" y1="5726.5" x1="4571.7998"/>
<line y2="6314.8999" x2="4471.8999" y1="6304.8999" x1="4293.2998"/>
<line y2="6252.5" x2="4198.6001" y1="6304.8999" x1="4293.2998"/>
<line y2="5928.1001" x2="4085.1001" y1="6304.8999" x1="4293.2998"/>
<line y2="6314.8999" x2="4328.1001" y1="6304.8999" x1="4293.2998"/>
<line y2="5771.6001" x2="4628.3999" y1="6304.8999" x1="4293.2998"/>
<line y2="5828.2002" x2="4673.5" y1="6304.8999" x1="4293.2998"/>
<line y2="6201.3999" x2="4652.5" y1="5828.2002" x1="4126.5"/>
<line y2="6036.2002" x2="4721" y1="5828.2002" x1="4126.5"/>
<line y2="5747.5" x2="4198.6001" y1="5828.2002" x1="4126.5"/>
<line y2="6273.5" x2="4571.7998" y1="5828.2002" x1="4126.5"/>
<line y2="6000" x2="4077" y1="5828.2002" x1="4126.5"/>
<line y2="6304.8999" x2="4506.7002" y1="5828.2002" x1="4126.5"/>
<line y2="6201.3999" x2="4652.5" y1="6323" x1="4400"/>
<line y2="6036.2002" x2="4721" y1="6323" x1="4400"/>
<line y2="5695.1001" x2="4293.2998" y1="6323" x1="4400"/>
<line y2="5695.1001" x2="4506.7002" y1="6323" x1="4400"/>
<line y2="6321" x2="4436.2002" y1="6323" x1="4400"/>
<line y2="6106.7002" x2="4704.8999" y1="6323" x1="4400"/>
<line y2="5928.1001" x2="4714.8999" y1="6201.3999" x1="4652.5"/>
<line y2="5893.2998" x2="4095.1001" y1="6201.3999" x1="4652.5"/>
<line y2="5771.6001" x2="4628.3999" y1="6201.3999" x1="4652.5"/>
<line y2="5828.2002" x2="4673.5" y1="6201.3999" x1="4652.5"/>
<line y2="5928.1001" x2="4085.1001" y1="6036.2002" x1="4721"/>
<line y2="6314.8999" x2="4328.1001" y1="6036.2002" x1="4721"/>
<line y2="6000" x2="4723" y1="6036.2002" x1="4721"/>
<line y2="5771.6001" x2="4171.6001" y1="6036.2002" x1="4721"/>
<line y2="5695.1001" x2="4293.2998" y1="6314.8999" x1="4471.8999"/>
<line y2="6273.5" x2="4571.7998" y1="6314.8999" x1="4471.8999"/>
<line y2="6000" x2="4077" y1="6314.8999" x1="4471.8999"/>
<line y2="6106.7002" x2="4704.8999" y1="6314.8999" x1="4471.8999"/>
<line y2="5747.5" x2="4198.6001" y1="6252.5" x1="4198.6001"/>
<line y2="5695.1001" x2="4506.7002" y1="6252.5" x1="4198.6001"/>
<line y2="6321" x2="4436.2002" y1="6252.5" x1="4198.6001"/>
<line y2="6304.8999" x2="4506.7002" y1="6252.5" x1="4198.6001"/>
<line y2="6321" x2="4436.2002" y1="6228.3999" x1="4171.6001"/>
<line y2="6000" x2="4077" y1="6228.3999" x1="4171.6001"/>
<line y2="6000" x2="4723" y1="6228.3999" x1="4171.6001"/>
<line y2="5828.2002" x2="4673.5" y1="6228.3999" x1="4171.6001"/>
<line y2="5695.1001" x2="4506.7002" y1="6252.5" x1="4601.3999"/>
<line y2="6273.5" x2="4571.7998" y1="6252.5" x1="4601.3999"/>
<line y2="5771.6001" x2="4628.3999" y1="6252.5" x1="4601.3999"/>
<line y2="5771.6001" x2="4171.6001" y1="6252.5" x1="4601.3999"/>
<line y2="5747.5" x2="4198.6001" y1="6321" x1="4363.7998"/>
<line y2="6314.8999" x2="4328.1001" y1="6321" x1="4363.7998"/>
<line y2="5893.2998" x2="4095.1001" y1="6321" x1="4363.7998"/>
<line y2="6106.7002" x2="4704.8999" y1="6321" x1="4363.7998"/>
<line y2="5695.1001" x2="4293.2998" y1="6171.7998" x1="4126.5"/>
<line y2="5928.1001" x2="4085.1001" y1="6171.7998" x1="4126.5"/>
<line y2="5928.1001" x2="4714.8999" y1="6171.7998" x1="4126.5"/>
<line y2="6304.8999" x2="4506.7002" y1="6171.7998" x1="4126.5"/>
<line y2="6304.8999" x2="4506.7002" y1="6291" x1="4259.8999"/>
<line y2="6106.7002" x2="4704.8999" y1="6291" x1="4259.8999"/>
<line y2="5771.6001" x2="4171.6001" y1="6291" x1="4259.8999"/>
<line y2="5828.2002" x2="4673.5" y1="6291" x1="4259.8999"/>
<line y2="5747.5" x2="4198.6001" y1="6036.2002" x1="4079"/>
<line y2="5695.1001" x2="4293.2998" y1="6036.2002" x1="4079"/>
<line y2="5771.6001" x2="4628.3999" y1="6036.2002" x1="4079"/>
<line y2="6000" x2="4723" y1="6036.2002" x1="4079"/>
<line y2="5928.1001" x2="4085.1001" y1="6273.5" x1="4228.2002"/>
<line y2="5695.1001" x2="4506.7002" y1="6273.5" x1="4228.2002"/>
<line y2="6000" x2="4077" y1="6273.5" x1="4228.2002"/>
<line y2="5893.2998" x2="4095.1001" y1="6273.5" x1="4228.2002"/>
<line y2="6314.8999" x2="4328.1001" y1="5679" x1="4436.2002"/>
<line y2="6273.5" x2="4571.7998" y1="5679" x1="4436.2002"/>
<line y2="6321" x2="4436.2002" y1="5679" x1="4436.2002"/>
<line y2="5928.1001" x2="4714.8999" y1="5679" x1="4436.2002"/>
</g> 
<g style="fill:blue; stroke:black; stroke-width: 1; " transform="translate(-3631.43, -5636.21)"> 
<circle r="6" cy="5798.6001" cx="4147.5"/>
<circle r="6" cy="5677" cx="4400"/>
<circle r="6" cy="5859.8999" cx="4691"/>
<circle r="6" cy="5963.7998" cx="4721"/>
<circle r="6" cy="5798.6001" cx="4652.5"/>
<circle r="6" cy="6291" cx="4540.1001"/>
<circle r="6" cy="5679" cx="4363.7998"/>
<circle r="6" cy="5747.5" cx="4601.3999"/>
<circle r="6" cy="5859.8999" cx="4109"/>
<circle r="6" cy="6201.3999" cx="4147.5"/>
<circle r="6" cy="5709" cx="4540.1001"/>
<circle r="6" cy="6228.3999" cx="4628.3999"/>
<circle r="6" cy="6106.7002" cx="4095.1001"/>
<circle r="6" cy="5726.5" cx="4228.2002"/>
<circle r="6" cy="6140.1001" cx="4691"/>
<circle r="6" cy="6171.7998" cx="4673.5"/>
<circle r="6" cy="6071.8999" cx="4085.1001"/>
<circle r="6" cy="6071.8999" cx="4714.8999"/>
<circle r="6" cy="5709" cx="4259.8999"/>
<circle r="6" cy="5893.2998" cx="4704.8999"/>
<circle r="6" cy="5685.1001" cx="4471.8999"/>
<circle r="6" cy="6140.1001" cx="4109"/>
<circle r="6" cy="5685.1001" cx="4328.1001"/>
<circle r="6" cy="5963.7998" cx="4079"/>
<circle r="6" cy="5726.5" cx="4571.7998"/>
<circle r="6" cy="6304.8999" cx="4293.2998"/>
<circle r="6" cy="5828.2002" cx="4126.5"/>
<circle r="6" cy="6323" cx="4400"/>
<circle r="6" cy="6201.3999" cx="4652.5"/>
<circle r="6" cy="6036.2002" cx="4721"/>
<circle r="6" cy="6314.8999" cx="4471.8999"/>
<circle r="6" cy="6252.5" cx="4198.6001"/>
<circle r="6" cy="6228.3999" cx="4171.6001"/>
<circle r="6" cy="6252.5" cx="4601.3999"/>
<circle r="6" cy="6321" cx="4363.7998"/>
<circle r="6" cy="6171.7998" cx="4126.5"/>
<circle r="6" cy="6291" cx="4259.8999"/>
<circle r="6" cy="6036.2002" cx="4079"/>
<circle r="6" cy="6273.5" cx="4228.2002"/>
<circle r="6" cy="5679" cx="4436.2002"/>
<circle r="6" cy="5747.5" cx="4198.6001"/>
<circle r="6" cy="5695.1001" cx="4293.2998"/>
<circle r="6" cy="5928.1001" cx="4085.1001"/>
<circle r="6" cy="6314.8999" cx="4328.1001"/>
<circle r="6" cy="5695.1001" cx="4506.7002"/>
<circle r="6" cy="6273.5" cx="4571.7998"/>
<circle r="6" cy="6321" cx="4436.2002"/>
<circle r="6" cy="6000" cx="4077"/>
<circle r="6" cy="5928.1001" cx="4714.8999"/>
<circle r="6" cy="5893.2998" cx="4095.1001"/>
<circle r="6" cy="6304.8999" cx="4506.7002"/>
<circle r="6" cy="6106.7002" cx="4704.8999"/>
<circle r="6" cy="5771.6001" cx="4628.3999"/>
<circle r="6" cy="6000" cx="4723"/>
<circle r="6" cy="5771.6001" cx="4171.6001"/>
<circle r="6" cy="5828.2002" cx="4673.5"/>
</g> </g> 
<g transform="translate(-71.4286, 197.143)"> 
<g style="stroke:black; stroke-width: 1; " transform="translate(-2328.57, -2344.78)"> 
<line y2="2906.7" x2="3295.1001" y1="2598.6001" x1="3347.5"/>
<line y2="2509" x2="3459.8999" y1="2598.6001" x1="3347.5"/>
<line y2="2526.5" x2="3771.8" y1="2598.6001" x1="3347.5"/>
<line y2="3104.8999" x2="3706.7" y1="2598.6001" x1="3347.5"/>
<line y2="2971.8" x2="3873.5" y1="2598.6001" x1="3347.5"/>
<line y2="2693.3" x2="3904.8999" y1="2598.6001" x1="3347.5"/>
<line y2="2800" x2="3923" y1="2598.6001" x1="3347.5"/>
<line y2="2485.1001" x2="3671.8999" y1="2598.6001" x1="3347.5"/>
<line y2="2495.1001" x2="3706.7" y1="2598.6001" x1="3347.5"/>
<line y2="2763.8" x2="3279" y1="2598.6001" x1="3347.5"/>
<line y2="2659.8999" x2="3891" y1="2477" x1="3600"/>
<line y2="2509" x2="3740.1001" y1="2477" x1="3600"/>
<line y2="3052.5" x2="3801.3999" y1="2477" x1="3600"/>
<line y2="3073.5" x2="3428.2" y1="2477" x1="3600"/>
<line y2="2971.8" x2="3873.5" y1="2477" x1="3600"/>
<line y2="2693.3" x2="3904.8999" y1="2477" x1="3600"/>
<line y2="2763.8" x2="3921" y1="2477" x1="3600"/>
<line y2="2628.2" x2="3326.5" y1="2477" x1="3600"/>
<line y2="2526.5" x2="3428.2" y1="2477" x1="3600"/>
<line y2="3121" x2="3636.2" y1="2477" x1="3600"/>
<line y2="2906.7" x2="3295.1001" y1="3001.3999" x1="3347.5"/>
<line y2="2509" x2="3459.8999" y1="3001.3999" x1="3347.5"/>
<line y2="3052.5" x2="3801.3999" y1="3001.3999" x1="3347.5"/>
<line y2="3073.5" x2="3428.2" y1="3001.3999" x1="3347.5"/>
<line y2="3091" x2="3459.8999" y1="3001.3999" x1="3347.5"/>
<line y2="3028.3999" x2="3371.6001" y1="3001.3999" x1="3347.5"/>
<line y2="3001.3999" x2="3852.5" y1="3001.3999" x1="3347.5"/>
<line y2="2659.8999" x2="3309" y1="3001.3999" x1="3347.5"/>
<line y2="2836.2" x2="3279" y1="3001.3999" x1="3347.5"/>
<line y2="3104.8999" x2="3493.3" y1="3001.3999" x1="3347.5"/>
<line y2="2659.8999" x2="3891" y1="2628.2" x1="3873.5"/>
<line y2="2509" x2="3740.1001" y1="2628.2" x1="3873.5"/>
<line y2="2526.5" x2="3771.8" y1="2628.2" x1="3873.5"/>
<line y2="3104.8999" x2="3706.7" y1="2628.2" x1="3873.5"/>
<line y2="3091" x2="3459.8999" y1="2628.2" x1="3873.5"/>
<line y2="3028.3999" x2="3371.6001" y1="2628.2" x1="3873.5"/>
<line y2="2571.6001" x2="3371.6001" y1="2628.2" x1="3873.5"/>
<line y2="3052.5" x2="3398.6001" y1="2628.2" x1="3873.5"/>
<line y2="2728.1001" x2="3914.8999" y1="2628.2" x1="3873.5"/>
<line y2="2495.1001" x2="3493.3" y1="2628.2" x1="3873.5"/>
<line y2="3028.3999" x2="3828.3999" y1="2598.6001" x1="3852.5"/>
<line y2="3114.8999" x2="3528.1001" y1="2598.6001" x1="3852.5"/>
<line y2="2479" x2="3563.8" y1="2598.6001" x1="3852.5"/>
<line y2="2940.1001" x2="3891" y1="2598.6001" x1="3852.5"/>
<line y2="2971.8" x2="3873.5" y1="2598.6001" x1="3852.5"/>
<line y2="3028.3999" x2="3371.6001" y1="2598.6001" x1="3852.5"/>
<line y2="2728.1001" x2="3914.8999" y1="2598.6001" x1="3852.5"/>
<line y2="2836.2" x2="3279" y1="2598.6001" x1="3852.5"/>
<line y2="2495.1001" x2="3706.7" y1="2598.6001" x1="3852.5"/>
<line y2="3121" x2="3636.2" y1="2598.6001" x1="3852.5"/>
<line y2="3123" x2="3600" y1="3091" x1="3740.1001"/>
<line y2="2971.8" x2="3326.5" y1="3091" x1="3740.1001"/>
<line y2="2479" x2="3636.2" y1="3091" x1="3740.1001"/>
<line y2="2836.2" x2="3921" y1="3091" x1="3740.1001"/>
<line y2="2971.8" x2="3873.5" y1="3091" x1="3740.1001"/>
<line y2="3028.3999" x2="3371.6001" y1="3091" x1="3740.1001"/>
<line y2="3052.5" x2="3398.6001" y1="3091" x1="3740.1001"/>
<line y2="2659.8999" x2="3309" y1="3091" x1="3740.1001"/>
<line y2="2526.5" x2="3428.2" y1="3091" x1="3740.1001"/>
<line y2="2763.8" x2="3279" y1="3091" x1="3740.1001"/>
<line y2="3123" x2="3600" y1="3073.5" x1="3771.8"/>
<line y2="2971.8" x2="3326.5" y1="3073.5" x1="3771.8"/>
<line y2="2479" x2="3563.8" y1="3073.5" x1="3771.8"/>
<line y2="2940.1001" x2="3891" y1="3073.5" x1="3771.8"/>
<line y2="3091" x2="3459.8999" y1="3073.5" x1="3771.8"/>
<line y2="2693.3" x2="3904.8999" y1="3073.5" x1="3771.8"/>
<line y2="3001.3999" x2="3852.5" y1="3073.5" x1="3771.8"/>
<line y2="2628.2" x2="3326.5" y1="3073.5" x1="3771.8"/>
<line y2="2485.1001" x2="3671.8999" y1="3073.5" x1="3771.8"/>
<line y2="2495.1001" x2="3493.3" y1="3073.5" x1="3771.8"/>
<line y2="3028.3999" x2="3828.3999" y1="2693.3" x1="3295.1001"/>
<line y2="3114.8999" x2="3528.1001" y1="2693.3" x1="3295.1001"/>
<line y2="2479" x2="3636.2" y1="2693.3" x1="3295.1001"/>
<line y2="2836.2" x2="3921" y1="2693.3" x1="3295.1001"/>
<line y2="3091" x2="3459.8999" y1="2693.3" x1="3295.1001"/>
<line y2="2693.3" x2="3904.8999" y1="2693.3" x1="3295.1001"/>
<line y2="2571.6001" x2="3371.6001" y1="2693.3" x1="3295.1001"/>
<line y2="2763.8" x2="3921" y1="2693.3" x1="3295.1001"/>
<line y2="2800" x2="3923" y1="2693.3" x1="3295.1001"/>
<line y2="3104.8999" x2="3493.3" y1="2693.3" x1="3295.1001"/>
<line y2="2871.8999" x2="3914.8999" y1="3121" x1="3563.8"/>
<line y2="2485.1001" x2="3528.1001" y1="3121" x1="3563.8"/>
<line y2="2479" x2="3563.8" y1="3121" x1="3563.8"/>
<line y2="2836.2" x2="3921" y1="3121" x1="3563.8"/>
<line y2="2526.5" x2="3771.8" y1="3121" x1="3563.8"/>
<line y2="3073.5" x2="3428.2" y1="3121" x1="3563.8"/>
<line y2="2800" x2="3923" y1="3121" x1="3563.8"/>
<line y2="2836.2" x2="3279" y1="3121" x1="3563.8"/>
<line y2="2526.5" x2="3428.2" y1="3121" x1="3563.8"/>
<line y2="2495.1001" x2="3493.3" y1="3121" x1="3563.8"/>
<line y2="2871.8999" x2="3914.8999" y1="3114.8999" x1="3671.8999"/>
<line y2="2485.1001" x2="3528.1001" y1="3114.8999" x1="3671.8999"/>
<line y2="2479" x2="3636.2" y1="3114.8999" x1="3671.8999"/>
<line y2="2940.1001" x2="3891" y1="3114.8999" x1="3671.8999"/>
<line y2="3052.5" x2="3801.3999" y1="3114.8999" x1="3671.8999"/>
<line y2="3104.8999" x2="3706.7" y1="3114.8999" x1="3671.8999"/>
<line y2="3052.5" x2="3398.6001" y1="3114.8999" x1="3671.8999"/>
<line y2="2628.2" x2="3326.5" y1="3114.8999" x1="3671.8999"/>
<line y2="2495.1001" x2="3706.7" y1="3114.8999" x1="3671.8999"/>
<line y2="3104.8999" x2="3493.3" y1="3114.8999" x1="3671.8999"/>
<line y2="2871.8999" x2="3285.1001" y1="2547.5" x1="3398.6001"/>
<line y2="2800" x2="3277" y1="2547.5" x1="3398.6001"/>
<line y2="2479" x2="3563.8" y1="2547.5" x1="3398.6001"/>
<line y2="2836.2" x2="3921" y1="2547.5" x1="3398.6001"/>
<line y2="3052.5" x2="3801.3999" y1="2547.5" x1="3398.6001"/>
<line y2="3104.8999" x2="3706.7" y1="2547.5" x1="3398.6001"/>
<line y2="2571.6001" x2="3371.6001" y1="2547.5" x1="3398.6001"/>
<line y2="2659.8999" x2="3309" y1="2547.5" x1="3398.6001"/>
<line y2="2485.1001" x2="3671.8999" y1="2547.5" x1="3398.6001"/>
<line y2="3121" x2="3636.2" y1="2547.5" x1="3398.6001"/>
<line y2="2871.8999" x2="3285.1001" y1="2906.7" x1="3904.8999"/>
<line y2="2800" x2="3277" y1="2906.7" x1="3904.8999"/>
<line y2="2479" x2="3636.2" y1="2906.7" x1="3904.8999"/>
<line y2="2940.1001" x2="3891" y1="2906.7" x1="3904.8999"/>
<line y2="2526.5" x2="3771.8" y1="2906.7" x1="3904.8999"/>
<line y2="3073.5" x2="3428.2" y1="2906.7" x1="3904.8999"/>
<line y2="3001.3999" x2="3852.5" y1="2906.7" x1="3904.8999"/>
<line y2="2763.8" x2="3921" y1="2906.7" x1="3904.8999"/>
<line y2="2728.1001" x2="3914.8999" y1="2906.7" x1="3904.8999"/>
<line y2="2763.8" x2="3279" y1="2906.7" x1="3904.8999"/>
<line y2="2871.8999" x2="3914.8999" y1="2571.6001" x1="3828.3999"/>
<line y2="2800" x2="3277" y1="2571.6001" x1="3828.3999"/>
<line y2="3028.3999" x2="3828.3999" y1="2571.6001" x1="3828.3999"/>
<line y2="2971.8" x2="3326.5" y1="2571.6001" x1="3828.3999"/>
<line y2="2906.7" x2="3295.1001" y1="2571.6001" x1="3828.3999"/>
<line y2="2509" x2="3740.1001" y1="2571.6001" x1="3828.3999"/>
<line y2="2728.1001" x2="3914.8999" y1="2571.6001" x1="3828.3999"/>
<line y2="2485.1001" x2="3671.8999" y1="2571.6001" x1="3828.3999"/>
<line y2="2526.5" x2="3428.2" y1="2571.6001" x1="3828.3999"/>
<line y2="3104.8999" x2="3493.3" y1="2571.6001" x1="3828.3999"/>
<line y2="2871.8999" x2="3914.8999" y1="2940.1001" x1="3309"/>
<line y2="2800" x2="3277" y1="2940.1001" x1="3309"/>
<line y2="3123" x2="3600" y1="2940.1001" x1="3309"/>
<line y2="3114.8999" x2="3528.1001" y1="2940.1001" x1="3309"/>
<line y2="2659.8999" x2="3891" y1="2940.1001" x1="3309"/>
<line y2="2509" x2="3459.8999" y1="2940.1001" x1="3309"/>
<line y2="2763.8" x2="3921" y1="2940.1001" x1="3309"/>
<line y2="2659.8999" x2="3309" y1="2940.1001" x1="3309"/>
<line y2="2495.1001" x2="3706.7" y1="2940.1001" x1="3309"/>
<line y2="2495.1001" x2="3493.3" y1="2940.1001" x1="3309"/>
<line y2="2871.8999" x2="3285.1001" y1="2728.1001" x1="3285.1001"/>
<line y2="2485.1001" x2="3528.1001" y1="2728.1001" x1="3285.1001"/>
<line y2="3123" x2="3600" y1="2728.1001" x1="3285.1001"/>
<line y2="3114.8999" x2="3528.1001" y1="2728.1001" x1="3285.1001"/>
<line y2="2906.7" x2="3295.1001" y1="2728.1001" x1="3285.1001"/>
<line y2="2509" x2="3740.1001" y1="2728.1001" x1="3285.1001"/>
<line y2="2571.6001" x2="3371.6001" y1="2728.1001" x1="3285.1001"/>
<line y2="2628.2" x2="3326.5" y1="2728.1001" x1="3285.1001"/>
<line y2="2836.2" x2="3279" y1="2728.1001" x1="3285.1001"/>
<line y2="2763.8" x2="3279" y1="2728.1001" x1="3285.1001"/>
<line y2="2871.8999" x2="3285.1001" y1="2547.5" x1="3801.3999"/>
<line y2="2485.1001" x2="3528.1001" y1="2547.5" x1="3801.3999"/>
<line y2="3028.3999" x2="3828.3999" y1="2547.5" x1="3801.3999"/>
<line y2="2971.8" x2="3326.5" y1="2547.5" x1="3801.3999"/>
<line y2="2659.8999" x2="3891" y1="2547.5" x1="3801.3999"/>
<line y2="2509" x2="3459.8999" y1="2547.5" x1="3801.3999"/>
<line y2="3001.3999" x2="3852.5" y1="2547.5" x1="3801.3999"/>
<line y2="3052.5" x2="3398.6001" y1="2547.5" x1="3801.3999"/>
<line y2="2800" x2="3923" y1="2547.5" x1="3801.3999"/>
<line y2="3121" x2="3636.2" y1="2547.5" x1="3801.3999"/>
<line y2="2693.3" x2="3904.8999" y1="2871.8999" x1="3285.1001"/>
<line y2="3028.3999" x2="3371.6001" y1="2871.8999" x1="3285.1001"/>
<line y2="2495.1001" x2="3706.7" y1="2871.8999" x1="3285.1001"/>
<line y2="2526.5" x2="3428.2" y1="2871.8999" x1="3285.1001"/>
<line y2="3104.8999" x2="3493.3" y1="2871.8999" x1="3285.1001"/>
<line y2="2495.1001" x2="3493.3" y1="2871.8999" x1="3285.1001"/>
<line y2="2693.3" x2="3904.8999" y1="2871.8999" x1="3914.8999"/>
<line y2="3028.3999" x2="3371.6001" y1="2871.8999" x1="3914.8999"/>
<line y2="3001.3999" x2="3852.5" y1="2871.8999" x1="3914.8999"/>
<line y2="2571.6001" x2="3371.6001" y1="2871.8999" x1="3914.8999"/>
<line y2="3121" x2="3636.2" y1="2871.8999" x1="3914.8999"/>
<line y2="2763.8" x2="3279" y1="2871.8999" x1="3914.8999"/>
<line y2="3091" x2="3459.8999" y1="2800" x1="3277"/>
<line y2="2971.8" x2="3873.5" y1="2800" x1="3277"/>
<line y2="3052.5" x2="3398.6001" y1="2800" x1="3277"/>
<line y2="2628.2" x2="3326.5" y1="2800" x1="3277"/>
<line y2="2800" x2="3923" y1="2800" x1="3277"/>
<line y2="2836.2" x2="3279" y1="2800" x1="3277"/>
<line y2="3091" x2="3459.8999" y1="2485.1001" x1="3528.1001"/>
<line y2="2971.8" x2="3873.5" y1="2485.1001" x1="3528.1001"/>
<line y2="2763.8" x2="3921" y1="2485.1001" x1="3528.1001"/>
<line y2="2659.8999" x2="3309" y1="2485.1001" x1="3528.1001"/>
<line y2="2728.1001" x2="3914.8999" y1="2485.1001" x1="3528.1001"/>
<line y2="2485.1001" x2="3671.8999" y1="2485.1001" x1="3528.1001"/>
<line y2="3104.8999" x2="3706.7" y1="3123" x1="3600"/>
<line y2="3073.5" x2="3428.2" y1="3123" x1="3600"/>
<line y2="2800" x2="3923" y1="3123" x1="3600"/>
<line y2="2728.1001" x2="3914.8999" y1="3123" x1="3600"/>
<line y2="3104.8999" x2="3493.3" y1="3123" x1="3600"/>
<line y2="3121" x2="3636.2" y1="3123" x1="3600"/>
<line y2="3104.8999" x2="3706.7" y1="3028.3999" x1="3828.3999"/>
<line y2="3073.5" x2="3428.2" y1="3028.3999" x1="3828.3999"/>
<line y2="2659.8999" x2="3309" y1="3028.3999" x1="3828.3999"/>
<line y2="2628.2" x2="3326.5" y1="3028.3999" x1="3828.3999"/>
<line y2="2495.1001" x2="3493.3" y1="3028.3999" x1="3828.3999"/>
<line y2="2763.8" x2="3279" y1="3028.3999" x1="3828.3999"/>
<line y2="3052.5" x2="3801.3999" y1="2971.8" x1="3326.5"/>
<line y2="2526.5" x2="3771.8" y1="2971.8" x1="3326.5"/>
<line y2="2571.6001" x2="3371.6001" y1="2971.8" x1="3326.5"/>
<line y2="2763.8" x2="3921" y1="2971.8" x1="3326.5"/>
<line y2="2836.2" x2="3279" y1="2971.8" x1="3326.5"/>
<line y2="2495.1001" x2="3706.7" y1="2971.8" x1="3326.5"/>
<line y2="3052.5" x2="3801.3999" y1="3114.8999" x1="3528.1001"/>
<line y2="2526.5" x2="3771.8" y1="3114.8999" x1="3528.1001"/>
<line y2="3001.3999" x2="3852.5" y1="3114.8999" x1="3528.1001"/>
<line y2="3052.5" x2="3398.6001" y1="3114.8999" x1="3528.1001"/>
<line y2="2485.1001" x2="3671.8999" y1="3114.8999" x1="3528.1001"/>
<line y2="2526.5" x2="3428.2" y1="3114.8999" x1="3528.1001"/>
<line y2="2509" x2="3459.8999" y1="2479" x1="3636.2"/>
<line y2="2509" x2="3740.1001" y1="2479" x1="3636.2"/>
<line y2="2485.1001" x2="3671.8999" y1="2479" x1="3636.2"/>
<line y2="2836.2" x2="3279" y1="2479" x1="3636.2"/>
<line y2="2495.1001" x2="3493.3" y1="2479" x1="3636.2"/>
<line y2="3121" x2="3636.2" y1="2479" x1="3636.2"/>
<line y2="2509" x2="3459.8999" y1="2479" x1="3563.8"/>
<line y2="2509" x2="3740.1001" y1="2479" x1="3563.8"/>
<line y2="3052.5" x2="3398.6001" y1="2479" x1="3563.8"/>
<line y2="2763.8" x2="3921" y1="2479" x1="3563.8"/>
<line y2="3104.8999" x2="3493.3" y1="2479" x1="3563.8"/>
<line y2="2763.8" x2="3279" y1="2479" x1="3563.8"/>
<line y2="2659.8999" x2="3891" y1="2836.2" x1="3921"/>
<line y2="2906.7" x2="3295.1001" y1="2836.2" x1="3921"/>
<line y2="3001.3999" x2="3852.5" y1="2836.2" x1="3921"/>
<line y2="2628.2" x2="3326.5" y1="2836.2" x1="3921"/>
<line y2="2728.1001" x2="3914.8999" y1="2836.2" x1="3921"/>
<line y2="2495.1001" x2="3706.7" y1="2836.2" x1="3921"/>
<line y2="2659.8999" x2="3891" y1="2940.1001" x1="3891"/>
<line y2="2906.7" x2="3295.1001" y1="2940.1001" x1="3891"/>
<line y2="2571.6001" x2="3371.6001" y1="2940.1001" x1="3891"/>
<line y2="2659.8999" x2="3309" y1="2940.1001" x1="3891"/>
<line y2="2800" x2="3923" y1="2940.1001" x1="3891"/>
<line y2="2526.5" x2="3428.2" y1="2940.1001" x1="3891"/>
<line y2="2485.1001" x2="3671.8999" y1="2659.8999" x1="3891"/>
<line y2="2836.2" x2="3279" y1="2659.8999" x1="3891"/>
<line y2="3104.8999" x2="3493.3" y1="2659.8999" x1="3891"/>
<line y2="2763.8" x2="3279" y1="2659.8999" x1="3891"/>
<line y2="3052.5" x2="3398.6001" y1="2906.7" x1="3295.1001"/>
<line y2="2763.8" x2="3921" y1="2906.7" x1="3295.1001"/>
<line y2="2495.1001" x2="3493.3" y1="2906.7" x1="3295.1001"/>
<line y2="3121" x2="3636.2" y1="2906.7" x1="3295.1001"/>
<line y2="2571.6001" x2="3371.6001" y1="2509" x1="3459.8999"/>
<line y2="2628.2" x2="3326.5" y1="2509" x1="3459.8999"/>
<line y2="2728.1001" x2="3914.8999" y1="2509" x1="3459.8999"/>
<line y2="2526.5" x2="3428.2" y1="2509" x1="3459.8999"/>
<line y2="3001.3999" x2="3852.5" y1="2509" x1="3740.1001"/>
<line y2="2659.8999" x2="3309" y1="2509" x1="3740.1001"/>
<line y2="2800" x2="3923" y1="2509" x1="3740.1001"/>
<line y2="2495.1001" x2="3706.7" y1="2509" x1="3740.1001"/>
<line y2="2800" x2="3923" y1="3052.5" x1="3801.3999"/>
<line y2="2728.1001" x2="3914.8999" y1="3052.5" x1="3801.3999"/>
<line y2="2495.1001" x2="3493.3" y1="3052.5" x1="3801.3999"/>
<line y2="2763.8" x2="3279" y1="3052.5" x1="3801.3999"/>
<line y2="2659.8999" x2="3309" y1="2526.5" x1="3771.8"/>
<line y2="2628.2" x2="3326.5" y1="2526.5" x1="3771.8"/>
<line y2="3104.8999" x2="3493.3" y1="2526.5" x1="3771.8"/>
<line y2="3121" x2="3636.2" y1="2526.5" x1="3771.8"/>
<line y2="3001.3999" x2="3852.5" y1="3104.8999" x1="3706.7"/>
<line y2="2763.8" x2="3921" y1="3104.8999" x1="3706.7"/>
<line y2="2836.2" x2="3279" y1="3104.8999" x1="3706.7"/>
<line y2="2526.5" x2="3428.2" y1="3104.8999" x1="3706.7"/>
<line y2="2571.6001" x2="3371.6001" y1="3073.5" x1="3428.2"/>
<line y2="3052.5" x2="3398.6001" y1="3073.5" x1="3428.2"/>
<line y2="2485.1001" x2="3671.8999" y1="3073.5" x1="3428.2"/>
<line y2="2495.1001" x2="3706.7" y1="3073.5" x1="3428.2"/>
<line y2="2495.1001" x2="3706.7" y1="3091" x1="3459.8999"/>
<line y2="2526.5" x2="3428.2" y1="3091" x1="3459.8999"/>
<line y2="3121" x2="3636.2" y1="3091" x1="3459.8999"/>
<line y2="2763.8" x2="3279" y1="3091" x1="3459.8999"/>
<line y2="3001.3999" x2="3852.5" y1="2971.8" x1="3873.5"/>
<line y2="2571.6001" x2="3371.6001" y1="2971.8" x1="3873.5"/>
<line y2="3104.8999" x2="3493.3" y1="2971.8" x1="3873.5"/>
<line y2="2495.1001" x2="3493.3" y1="2971.8" x1="3873.5"/>
<line y2="3052.5" x2="3398.6001" y1="2693.3" x1="3904.8999"/>
<line y2="2659.8999" x2="3309" y1="2693.3" x1="3904.8999"/>
<line y2="2728.1001" x2="3914.8999" y1="2693.3" x1="3904.8999"/>
<line y2="2836.2" x2="3279" y1="2693.3" x1="3904.8999"/>
<line y2="2763.8" x2="3921" y1="3028.3999" x1="3371.6001"/>
<line y2="2628.2" x2="3326.5" y1="3028.3999" x1="3371.6001"/>
<line y2="2800" x2="3923" y1="3028.3999" x1="3371.6001"/>
<line y2="2485.1001" x2="3671.8999" y1="3028.3999" x1="3371.6001"/>
</g> 
<g style="fill:blue; stroke:black; stroke-width: 1; " transform="translate(-2328.57, -2344.78)"> 
<circle r="6" cy="2598.6001" cx="3347.5"/>
<circle r="6" cy="2477" cx="3600"/>
<circle r="6" cy="3001.3999" cx="3347.5"/>
<circle r="6" cy="2628.2" cx="3873.5"/>
<circle r="6" cy="2598.6001" cx="3852.5"/>
<circle r="6" cy="3091" cx="3740.1001"/>
<circle r="6" cy="3073.5" cx="3771.8"/>
<circle r="6" cy="2693.3" cx="3295.1001"/>
<circle r="6" cy="3121" cx="3563.8"/>
<circle r="6" cy="3114.8999" cx="3671.8999"/>
<circle r="6" cy="2547.5" cx="3398.6001"/>
<circle r="6" cy="2906.7" cx="3904.8999"/>
<circle r="6" cy="2571.6001" cx="3828.3999"/>
<circle r="6" cy="2940.1001" cx="3309"/>
<circle r="6" cy="2728.1001" cx="3285.1001"/>
<circle r="6" cy="2547.5" cx="3801.3999"/>
<circle r="6" cy="2871.8999" cx="3285.1001"/>
<circle r="6" cy="2871.8999" cx="3914.8999"/>
<circle r="6" cy="2800" cx="3277"/>
<circle r="6" cy="2485.1001" cx="3528.1001"/>
<circle r="6" cy="3123" cx="3600"/>
<circle r="6" cy="3028.3999" cx="3828.3999"/>
<circle r="6" cy="2971.8" cx="3326.5"/>
<circle r="6" cy="3114.8999" cx="3528.1001"/>
<circle r="6" cy="2479" cx="3636.2"/>
<circle r="6" cy="2479" cx="3563.8"/>
<circle r="6" cy="2836.2" cx="3921"/>
<circle r="6" cy="2940.1001" cx="3891"/>
<circle r="6" cy="2659.8999" cx="3891"/>
<circle r="6" cy="2906.7" cx="3295.1001"/>
<circle r="6" cy="2509" cx="3459.8999"/>
<circle r="6" cy="2509" cx="3740.1001"/>
<circle r="6" cy="3052.5" cx="3801.3999"/>
<circle r="6" cy="2526.5" cx="3771.8"/>
<circle r="6" cy="3104.8999" cx="3706.7"/>
<circle r="6" cy="3073.5" cx="3428.2"/>
<circle r="6" cy="3091" cx="3459.8999"/>
<circle r="6" cy="2971.8" cx="3873.5"/>
<circle r="6" cy="2693.3" cx="3904.8999"/>
<circle r="6" cy="3028.3999" cx="3371.6001"/>
<circle r="6" cy="3001.3999" cx="3852.5"/>
<circle r="6" cy="2571.6001" cx="3371.6001"/>
<circle r="6" cy="3052.5" cx="3398.6001"/>
<circle r="6" cy="2763.8" cx="3921"/>
<circle r="6" cy="2659.8999" cx="3309"/>
<circle r="6" cy="2628.2" cx="3326.5"/>
<circle r="6" cy="2800" cx="3923"/>
<circle r="6" cy="2728.1001" cx="3914.8999"/>
<circle r="6" cy="2485.1001" cx="3671.8999"/>
<circle r="6" cy="2836.2" cx="3279"/>
<circle r="6" cy="2495.1001" cx="3706.7"/>
<circle r="6" cy="2526.5" cx="3428.2"/>
<circle r="6" cy="3104.8999" cx="3493.3"/>
<circle r="6" cy="2495.1001" cx="3493.3"/>
<circle r="6" cy="3121" cx="3636.2"/>
<circle r="6" cy="2763.8" cx="3279"/>
</g> </g> 
<g transform="translate(2.85712, -14.2857)"> 
<g style="stroke:black; stroke-width: 1; " transform="translate(-2.85715, -2933.35)"> 
<line y2="3073.5" x2="1371.8" y1="2477" x1="1200"/>
<line y2="2547.5" x2="1401.4" y1="2477" x1="1200"/>
<line y2="2763.8" x2="1521" y1="2477" x1="1200"/>
<line y2="3001.3999" x2="1452.5" y1="2477" x1="1200"/>
<line y2="3114.8999" x2="1271.9" y1="2477" x1="1200"/>
<line y2="2940.1001" x2="1491" y1="2477" x1="1200"/>
<line y2="3121" x2="1236.2" y1="2477" x1="1200"/>
<line y2="2628.2" x2="1473.5" y1="2477" x1="1200"/>
<line y2="2659.8999" x2="1491" y1="2477" x1="1200"/>
<line y2="2547.5" x2="998.59998" y1="2477" x1="1200"/>
<line y2="2906.7" x2="1504.9" y1="2598.6001" x1="1452.5"/>
<line y2="2800" x2="1523" y1="2598.6001" x1="1452.5"/>
<line y2="3028.3999" x2="971.59998" y1="2598.6001" x1="1452.5"/>
<line y2="3123" x2="1200" y1="2598.6001" x1="1452.5"/>
<line y2="3114.8999" x2="1271.9" y1="2598.6001" x1="1452.5"/>
<line y2="2940.1001" x2="1491" y1="2598.6001" x1="1452.5"/>
<line y2="3028.3999" x2="1428.4" y1="2598.6001" x1="1452.5"/>
<line y2="3104.8999" x2="1093.3" y1="2598.6001" x1="1452.5"/>
<line y2="2485.1001" x2="1271.9" y1="2598.6001" x1="1452.5"/>
<line y2="3052.5" x2="998.59998" y1="2598.6001" x1="1452.5"/>
<line y2="3073.5" x2="1371.8" y1="2659.8999" x1="909"/>
<line y2="2547.5" x2="1401.4" y1="2659.8999" x1="909"/>
<line y2="3028.3999" x2="971.59998" y1="2659.8999" x1="909"/>
<line y2="3123" x2="1200" y1="2659.8999" x1="909"/>
<line y2="2871.8999" x2="885.09998" y1="2659.8999" x1="909"/>
<line y2="2800" x2="877" y1="2659.8999" x1="909"/>
<line y2="3114.8999" x2="1128.1" y1="2659.8999" x1="909"/>
<line y2="2495.1001" x2="1306.7" y1="2659.8999" x1="909"/>
<line y2="3001.3999" x2="947.5" y1="2659.8999" x1="909"/>
<line y2="2836.2" x2="1521" y1="2659.8999" x1="909"/>
<line y2="2906.7" x2="1504.9" y1="2509" x1="1340.1"/>
<line y2="2800" x2="1523" y1="2509" x1="1340.1"/>
<line y2="2763.8" x2="1521" y1="2509" x1="1340.1"/>
<line y2="3001.3999" x2="1452.5" y1="2509" x1="1340.1"/>
<line y2="2871.8999" x2="885.09998" y1="2509" x1="1340.1"/>
<line y2="2800" x2="877" y1="2509" x1="1340.1"/>
<line y2="2728.1001" x2="885.09998" y1="2509" x1="1340.1"/>
<line y2="2836.2" x2="879" y1="2509" x1="1340.1"/>
<line y2="3052.5" x2="1401.4" y1="2509" x1="1340.1"/>
<line y2="2526.5" x2="1371.8" y1="2509" x1="1340.1"/>
<line y2="3121" x2="1163.8" y1="2871.8999" x1="1514.9"/>
<line y2="2763.8" x2="879" y1="2871.8999" x1="1514.9"/>
<line y2="2906.7" x2="895.09998" y1="2871.8999" x1="1514.9"/>
<line y2="3104.8999" x2="1306.7" y1="2871.8999" x1="1514.9"/>
<line y2="3114.8999" x2="1271.9" y1="2871.8999" x1="1514.9"/>
<line y2="2800" x2="877" y1="2871.8999" x1="1514.9"/>
<line y2="3052.5" x2="1401.4" y1="2871.8999" x1="1514.9"/>
<line y2="3001.3999" x2="947.5" y1="2871.8999" x1="1514.9"/>
<line y2="2659.8999" x2="1491" y1="2871.8999" x1="1514.9"/>
<line y2="3052.5" x2="998.59998" y1="2871.8999" x1="1514.9"/>
<line y2="2940.1001" x2="909" y1="3091" x1="1059.9"/>
<line y2="2693.3" x2="895.09998" y1="3091" x1="1059.9"/>
<line y2="2509" x2="1059.9" y1="3091" x1="1059.9"/>
<line y2="2479" x2="1163.8" y1="3091" x1="1059.9"/>
<line y2="3114.8999" x2="1271.9" y1="3091" x1="1059.9"/>
<line y2="2800" x2="877" y1="3091" x1="1059.9"/>
<line y2="2836.2" x2="879" y1="3091" x1="1059.9"/>
<line y2="2495.1001" x2="1306.7" y1="3091" x1="1059.9"/>
<line y2="2485.1001" x2="1271.9" y1="3091" x1="1059.9"/>
<line y2="2547.5" x2="998.59998" y1="3091" x1="1059.9"/>
<line y2="2940.1001" x2="909" y1="2571.6001" x1="1428.4"/>
<line y2="2693.3" x2="895.09998" y1="2571.6001" x1="1428.4"/>
<line y2="2906.7" x2="895.09998" y1="2571.6001" x1="1428.4"/>
<line y2="3104.8999" x2="1306.7" y1="2571.6001" x1="1428.4"/>
<line y2="2871.8999" x2="885.09998" y1="2571.6001" x1="1428.4"/>
<line y2="2940.1001" x2="1491" y1="2571.6001" x1="1428.4"/>
<line y2="3114.8999" x2="1128.1" y1="2571.6001" x1="1428.4"/>
<line y2="3104.8999" x2="1093.3" y1="2571.6001" x1="1428.4"/>
<line y2="2628.2" x2="1473.5" y1="2571.6001" x1="1428.4"/>
<line y2="2526.5" x2="1371.8" y1="2571.6001" x1="1428.4"/>
<line y2="3121" x2="1163.8" y1="2495.1001" x1="1093.3"/>
<line y2="2763.8" x2="879" y1="2495.1001" x1="1093.3"/>
<line y2="2509" x2="1059.9" y1="2495.1001" x1="1093.3"/>
<line y2="2479" x2="1163.8" y1="2495.1001" x1="1093.3"/>
<line y2="2871.8999" x2="885.09998" y1="2495.1001" x1="1093.3"/>
<line y2="2940.1001" x2="1491" y1="2495.1001" x1="1093.3"/>
<line y2="2728.1001" x2="885.09998" y1="2495.1001" x1="1093.3"/>
<line y2="3028.3999" x2="1428.4" y1="2495.1001" x1="1093.3"/>
<line y2="3121" x2="1236.2" y1="2495.1001" x1="1093.3"/>
<line y2="2836.2" x2="1521" y1="2495.1001" x1="1093.3"/>
<line y2="3091" x2="1340.1" y1="2971.8" x1="926.5"/>
<line y2="2693.3" x2="1504.9" y1="2971.8" x1="926.5"/>
<line y2="2906.7" x2="895.09998" y1="2971.8" x1="926.5"/>
<line y2="2479" x2="1163.8" y1="2971.8" x1="926.5"/>
<line y2="2763.8" x2="1521" y1="2971.8" x1="926.5"/>
<line y2="3123" x2="1200" y1="2971.8" x1="926.5"/>
<line y2="3121" x2="1236.2" y1="2971.8" x1="926.5"/>
<line y2="3001.3999" x2="947.5" y1="2971.8" x1="926.5"/>
<line y2="2485.1001" x2="1271.9" y1="2971.8" x1="926.5"/>
<line y2="2526.5" x2="1371.8" y1="2971.8" x1="926.5"/>
<line y2="3091" x2="1340.1" y1="3073.5" x1="1028.2"/>
<line y2="2693.3" x2="1504.9" y1="3073.5" x1="1028.2"/>
<line y2="2509" x2="1059.9" y1="3073.5" x1="1028.2"/>
<line y2="3104.8999" x2="1306.7" y1="3073.5" x1="1028.2"/>
<line y2="3028.3999" x2="971.59998" y1="3073.5" x1="1028.2"/>
<line y2="3001.3999" x2="1452.5" y1="3073.5" x1="1028.2"/>
<line y2="2836.2" x2="879" y1="3073.5" x1="1028.2"/>
<line y2="3104.8999" x2="1093.3" y1="3073.5" x1="1028.2"/>
<line y2="2659.8999" x2="1491" y1="3073.5" x1="1028.2"/>
<line y2="2836.2" x2="1521" y1="3073.5" x1="1028.2"/>
<line y2="2598.6001" x2="947.5" y1="2479" x1="1236.2"/>
<line y2="2571.6001" x2="971.59998" y1="2479" x1="1236.2"/>
<line y2="2906.7" x2="895.09998" y1="2479" x1="1236.2"/>
<line y2="2479" x2="1163.8" y1="2479" x1="1236.2"/>
<line y2="3028.3999" x2="971.59998" y1="2479" x1="1236.2"/>
<line y2="3001.3999" x2="1452.5" y1="2479" x1="1236.2"/>
<line y2="2728.1001" x2="885.09998" y1="2479" x1="1236.2"/>
<line y2="2495.1001" x2="1306.7" y1="2479" x1="1236.2"/>
<line y2="2628.2" x2="1473.5" y1="2479" x1="1236.2"/>
<line y2="3052.5" x2="998.59998" y1="2479" x1="1236.2"/>
<line y2="2598.6001" x2="947.5" y1="2728.1001" x1="1514.9"/>
<line y2="2571.6001" x2="971.59998" y1="2728.1001" x1="1514.9"/>
<line y2="2509" x2="1059.9" y1="2728.1001" x1="1514.9"/>
<line y2="3104.8999" x2="1306.7" y1="2728.1001" x1="1514.9"/>
<line y2="2763.8" x2="1521" y1="2728.1001" x1="1514.9"/>
<line y2="3123" x2="1200" y1="2728.1001" x1="1514.9"/>
<line y2="3114.8999" x2="1128.1" y1="2728.1001" x1="1514.9"/>
<line y2="3028.3999" x2="1428.4" y1="2728.1001" x1="1514.9"/>
<line y2="3052.5" x2="1401.4" y1="2728.1001" x1="1514.9"/>
<line y2="2547.5" x2="998.59998" y1="2728.1001" x1="1514.9"/>
<line y2="3091" x2="1340.1" y1="2628.2" x1="926.5"/>
<line y2="2571.6001" x2="971.59998" y1="2628.2" x1="926.5"/>
<line y2="3121" x2="1163.8" y1="2628.2" x1="926.5"/>
<line y2="2693.3" x2="895.09998" y1="2628.2" x1="926.5"/>
<line y2="3073.5" x2="1371.8" y1="2628.2" x1="926.5"/>
<line y2="2800" x2="1523" y1="2628.2" x1="926.5"/>
<line y2="3052.5" x2="1401.4" y1="2628.2" x1="926.5"/>
<line y2="2628.2" x2="1473.5" y1="2628.2" x1="926.5"/>
<line y2="2485.1001" x2="1271.9" y1="2628.2" x1="926.5"/>
<line y2="2836.2" x2="1521" y1="2628.2" x1="926.5"/>
<line y2="3091" x2="1340.1" y1="2526.5" x1="1028.2"/>
<line y2="2571.6001" x2="971.59998" y1="2526.5" x1="1028.2"/>
<line y2="2940.1001" x2="909" y1="2526.5" x1="1028.2"/>
<line y2="2763.8" x2="879" y1="2526.5" x1="1028.2"/>
<line y2="2906.7" x2="1504.9" y1="2526.5" x1="1028.2"/>
<line y2="2547.5" x2="1401.4" y1="2526.5" x1="1028.2"/>
<line y2="3028.3999" x2="1428.4" y1="2526.5" x1="1028.2"/>
<line y2="2495.1001" x2="1306.7" y1="2526.5" x1="1028.2"/>
<line y2="2659.8999" x2="1491" y1="2526.5" x1="1028.2"/>
<line y2="2526.5" x2="1371.8" y1="2526.5" x1="1028.2"/>
<line y2="2598.6001" x2="947.5" y1="2485.1001" x1="1128.1"/>
<line y2="2693.3" x2="1504.9" y1="2485.1001" x1="1128.1"/>
<line y2="2940.1001" x2="909" y1="2485.1001" x1="1128.1"/>
<line y2="2763.8" x2="879" y1="2485.1001" x1="1128.1"/>
<line y2="3073.5" x2="1371.8" y1="2485.1001" x1="1128.1"/>
<line y2="2800" x2="1523" y1="2485.1001" x1="1128.1"/>
<line y2="2728.1001" x2="885.09998" y1="2485.1001" x1="1128.1"/>
<line y2="3104.8999" x2="1093.3" y1="2485.1001" x1="1128.1"/>
<line y2="3001.3999" x2="947.5" y1="2485.1001" x1="1128.1"/>
<line y2="2547.5" x2="998.59998" y1="2485.1001" x1="1128.1"/>
<line y2="2598.6001" x2="947.5" y1="2971.8" x1="1473.5"/>
<line y2="2693.3" x2="1504.9" y1="2971.8" x1="1473.5"/>
<line y2="3121" x2="1163.8" y1="2971.8" x1="1473.5"/>
<line y2="2693.3" x2="895.09998" y1="2971.8" x1="1473.5"/>
<line y2="2906.7" x2="1504.9" y1="2971.8" x1="1473.5"/>
<line y2="2547.5" x2="1401.4" y1="2971.8" x1="1473.5"/>
<line y2="3114.8999" x2="1128.1" y1="2971.8" x1="1473.5"/>
<line y2="2836.2" x2="879" y1="2971.8" x1="1473.5"/>
<line y2="3121" x2="1236.2" y1="2971.8" x1="1473.5"/>
<line y2="3052.5" x2="998.59998" y1="2971.8" x1="1473.5"/>
<line y2="2940.1001" x2="1491" y1="2598.6001" x1="947.5"/>
<line y2="2800" x2="877" y1="2598.6001" x1="947.5"/>
<line y2="2659.8999" x2="1491" y1="2598.6001" x1="947.5"/>
<line y2="2485.1001" x2="1271.9" y1="2598.6001" x1="947.5"/>
<line y2="2836.2" x2="1521" y1="2598.6001" x1="947.5"/>
<line y2="2526.5" x2="1371.8" y1="2598.6001" x1="947.5"/>
<line y2="2940.1001" x2="1491" y1="3091" x1="1340.1"/>
<line y2="2800" x2="877" y1="3091" x1="1340.1"/>
<line y2="3114.8999" x2="1128.1" y1="3091" x1="1340.1"/>
<line y2="2728.1001" x2="885.09998" y1="3091" x1="1340.1"/>
<line y2="3052.5" x2="998.59998" y1="3091" x1="1340.1"/>
<line y2="2547.5" x2="998.59998" y1="3091" x1="1340.1"/>
<line y2="2871.8999" x2="885.09998" y1="2571.6001" x1="971.59998"/>
<line y2="3114.8999" x2="1271.9" y1="2571.6001" x1="971.59998"/>
<line y2="2836.2" x2="879" y1="2571.6001" x1="971.59998"/>
<line y2="3104.8999" x2="1093.3" y1="2571.6001" x1="971.59998"/>
<line y2="3121" x2="1236.2" y1="2571.6001" x1="971.59998"/>
<line y2="3001.3999" x2="947.5" y1="2571.6001" x1="971.59998"/>
<line y2="2871.8999" x2="885.09998" y1="2693.3" x1="1504.9"/>
<line y2="3114.8999" x2="1271.9" y1="2693.3" x1="1504.9"/>
<line y2="3028.3999" x2="1428.4" y1="2693.3" x1="1504.9"/>
<line y2="2495.1001" x2="1306.7" y1="2693.3" x1="1504.9"/>
<line y2="3052.5" x2="1401.4" y1="2693.3" x1="1504.9"/>
<line y2="2628.2" x2="1473.5" y1="2693.3" x1="1504.9"/>
<line y2="3001.3999" x2="1452.5" y1="2940.1001" x1="909"/>
<line y2="3123" x2="1200" y1="2940.1001" x1="909"/>
<line y2="3121" x2="1236.2" y1="2940.1001" x1="909"/>
<line y2="3052.5" x2="1401.4" y1="2940.1001" x1="909"/>
<line y2="2836.2" x2="1521" y1="2940.1001" x1="909"/>
<line y2="3052.5" x2="998.59998" y1="2940.1001" x1="909"/>
<line y2="3001.3999" x2="1452.5" y1="3121" x1="1163.8"/>
<line y2="3123" x2="1200" y1="3121" x1="1163.8"/>
<line y2="2495.1001" x2="1306.7" y1="3121" x1="1163.8"/>
<line y2="3104.8999" x2="1093.3" y1="3121" x1="1163.8"/>
<line y2="2526.5" x2="1371.8" y1="3121" x1="1163.8"/>
<line y2="2547.5" x2="998.59998" y1="3121" x1="1163.8"/>
<line y2="3028.3999" x2="971.59998" y1="2693.3" x1="895.09998"/>
<line y2="2763.8" x2="1521" y1="2693.3" x1="895.09998"/>
<line y2="2728.1001" x2="885.09998" y1="2693.3" x1="895.09998"/>
<line y2="3028.3999" x2="1428.4" y1="2693.3" x1="895.09998"/>
<line y2="3001.3999" x2="947.5" y1="2693.3" x1="895.09998"/>
<line y2="2659.8999" x2="1491" y1="2693.3" x1="895.09998"/>
<line y2="3028.3999" x2="971.59998" y1="2763.8" x1="879"/>
<line y2="2763.8" x2="1521" y1="2763.8" x1="879"/>
<line y2="3114.8999" x2="1128.1" y1="2763.8" x1="879"/>
<line y2="2836.2" x2="879" y1="2763.8" x1="879"/>
<line y2="2628.2" x2="1473.5" y1="2763.8" x1="879"/>
<line y2="2485.1001" x2="1271.9" y1="2763.8" x1="879"/>
<line y2="2547.5" x2="1401.4" y1="2509" x1="1059.9"/>
<line y2="2800" x2="1523" y1="2509" x1="1059.9"/>
<line y2="2628.2" x2="1473.5" y1="2509" x1="1059.9"/>
<line y2="3001.3999" x2="947.5" y1="2509" x1="1059.9"/>
<line y2="2526.5" x2="1371.8" y1="2509" x1="1059.9"/>
<line y2="3052.5" x2="998.59998" y1="2509" x1="1059.9"/>
<line y2="2547.5" x2="1401.4" y1="2906.7" x1="895.09998"/>
<line y2="2800" x2="1523" y1="2906.7" x1="895.09998"/>
<line y2="2836.2" x2="879" y1="2906.7" x1="895.09998"/>
<line y2="3028.3999" x2="1428.4" y1="2906.7" x1="895.09998"/>
<line y2="2836.2" x2="1521" y1="2906.7" x1="895.09998"/>
<line y2="2547.5" x2="998.59998" y1="2906.7" x1="895.09998"/>
<line y2="2906.7" x2="1504.9" y1="2479" x1="1163.8"/>
<line y2="3073.5" x2="1371.8" y1="2479" x1="1163.8"/>
<line y2="3114.8999" x2="1128.1" y1="2479" x1="1163.8"/>
<line y2="3104.8999" x2="1093.3" y1="2479" x1="1163.8"/>
<line y2="3052.5" x2="1401.4" y1="2479" x1="1163.8"/>
<line y2="2659.8999" x2="1491" y1="2479" x1="1163.8"/>
<line y2="2906.7" x2="1504.9" y1="3104.8999" x1="1306.7"/>
<line y2="3073.5" x2="1371.8" y1="3104.8999" x1="1306.7"/>
<line y2="2728.1001" x2="885.09998" y1="3104.8999" x1="1306.7"/>
<line y2="2495.1001" x2="1306.7" y1="3104.8999" x1="1306.7"/>
<line y2="3121" x2="1236.2" y1="3104.8999" x1="1306.7"/>
<line y2="2485.1001" x2="1271.9" y1="3104.8999" x1="1306.7"/>
<line y2="2628.2" x2="1473.5" y1="2906.7" x1="1504.9"/>
<line y2="3001.3999" x2="947.5" y1="2906.7" x1="1504.9"/>
<line y2="2836.2" x2="1521" y1="2906.7" x1="1504.9"/>
<line y2="2547.5" x2="998.59998" y1="2906.7" x1="1504.9"/>
<line y2="2836.2" x2="879" y1="3073.5" x1="1371.8"/>
<line y2="3028.3999" x2="1428.4" y1="3073.5" x1="1371.8"/>
<line y2="2526.5" x2="1371.8" y1="3073.5" x1="1371.8"/>
<line y2="3052.5" x2="998.59998" y1="3073.5" x1="1371.8"/>
<line y2="2728.1001" x2="885.09998" y1="2547.5" x1="1401.4"/>
<line y2="3104.8999" x2="1093.3" y1="2547.5" x1="1401.4"/>
<line y2="3052.5" x2="1401.4" y1="2547.5" x1="1401.4"/>
<line y2="2485.1001" x2="1271.9" y1="2547.5" x1="1401.4"/>
<line y2="3114.8999" x2="1128.1" y1="2800" x1="1523"/>
<line y2="2495.1001" x2="1306.7" y1="2800" x1="1523"/>
<line y2="3121" x2="1236.2" y1="2800" x1="1523"/>
<line y2="2659.8999" x2="1491" y1="2800" x1="1523"/>
<line y2="3121" x2="1236.2" y1="3028.3999" x1="971.59998"/>
<line y2="3052.5" x2="1401.4" y1="3028.3999" x1="971.59998"/>
<line y2="2526.5" x2="1371.8" y1="3028.3999" x1="971.59998"/>
<line y2="2547.5" x2="998.59998" y1="3028.3999" x1="971.59998"/>
<line y2="2495.1001" x2="1306.7" y1="2763.8" x1="1521"/>
<line y2="3104.8999" x2="1093.3" y1="2763.8" x1="1521"/>
<line y2="2836.2" x2="1521" y1="2763.8" x1="1521"/>
<line y2="3052.5" x2="998.59998" y1="2763.8" x1="1521"/>
<line y2="3114.8999" x2="1128.1" y1="3001.3999" x1="1452.5"/>
<line y2="3028.3999" x2="1428.4" y1="3001.3999" x1="1452.5"/>
<line y2="3001.3999" x2="947.5" y1="3001.3999" x1="1452.5"/>
<line y2="2485.1001" x2="1271.9" y1="3001.3999" x1="1452.5"/>
<line y2="2728.1001" x2="885.09998" y1="3123" x1="1200"/>
<line y2="2836.2" x2="879" y1="3123" x1="1200"/>
<line y2="2628.2" x2="1473.5" y1="3123" x1="1200"/>
<line y2="2659.8999" x2="1491" y1="3123" x1="1200"/>
<line y2="2659.8999" x2="1491" y1="2871.8999" x1="885.09998"/>
<line y2="2485.1001" x2="1271.9" y1="2871.8999" x1="885.09998"/>
<line y2="3052.5" x2="998.59998" y1="2871.8999" x1="885.09998"/>
<line y2="2547.5" x2="998.59998" y1="2871.8999" x1="885.09998"/>
<line y2="3114.8999" x2="1128.1" y1="3114.8999" x1="1271.9"/>
<line y2="2728.1001" x2="885.09998" y1="3114.8999" x1="1271.9"/>
<line y2="2836.2" x2="1521" y1="3114.8999" x1="1271.9"/>
<line y2="2526.5" x2="1371.8" y1="3114.8999" x1="1271.9"/>
<line y2="2836.2" x2="879" y1="2940.1001" x1="1491"/>
<line y2="2495.1001" x2="1306.7" y1="2940.1001" x1="1491"/>
<line y2="3052.5" x2="1401.4" y1="2940.1001" x1="1491"/>
<line y2="3001.3999" x2="947.5" y1="2940.1001" x1="1491"/>
<line y2="3028.3999" x2="1428.4" y1="2800" x1="877"/>
<line y2="3104.8999" x2="1093.3" y1="2800" x1="877"/>
<line y2="3121" x2="1236.2" y1="2800" x1="877"/>
<line y2="2628.2" x2="1473.5" y1="2800" x1="877"/></g> 
<g style="fill:blue; stroke:black; stroke-width: 1; " transform="translate(-2.85715, -2933.35)"> 
<circle r="6" cy="2477" cx="1200"/>
<circle r="6" cy="2598.6001" cx="1452.5"/>
<circle r="6" cy="2659.8999" cx="909"/>
<circle r="6" cy="2509" cx="1340.1"/>
<circle r="6" cy="2871.8999" cx="1514.9"/>
<circle r="6" cy="3091" cx="1059.9"/>
<circle r="6" cy="2571.6001" cx="1428.4"/>
<circle r="6" cy="2495.1001" cx="1093.3"/>
<circle r="6" cy="2971.8" cx="926.5"/>
<circle r="6" cy="3073.5" cx="1028.2"/>
<circle r="6" cy="2479" cx="1236.2"/>
<circle r="6" cy="2728.1001" cx="1514.9"/>
<circle r="6" cy="2628.2" cx="926.5"/>
<circle r="6" cy="2526.5" cx="1028.2"/>
<circle r="6" cy="2485.1001" cx="1128.1"/>
<circle r="6" cy="2971.8" cx="1473.5"/>
<circle r="6" cy="2598.6001" cx="947.5"/>
<circle r="6" cy="3091" cx="1340.1"/>
<circle r="6" cy="2571.6001" cx="971.59998"/>
<circle r="6" cy="2693.3" cx="1504.9"/>
<circle r="6" cy="2940.1001" cx="909"/>
<circle r="6" cy="3121" cx="1163.8"/>
<circle r="6" cy="2693.3" cx="895.09998"/>
<circle r="6" cy="2763.8" cx="879"/>
<circle r="6" cy="2509" cx="1059.9"/>
<circle r="6" cy="2906.7" cx="895.09998"/>
<circle r="6" cy="2479" cx="1163.8"/>
<circle r="6" cy="3104.8999" cx="1306.7"/>
<circle r="6" cy="2906.7" cx="1504.9"/>
<circle r="6" cy="3073.5" cx="1371.8"/>
<circle r="6" cy="2547.5" cx="1401.4"/>
<circle r="6" cy="2800" cx="1523"/>
<circle r="6" cy="3028.3999" cx="971.59998"/>
<circle r="6" cy="2763.8" cx="1521"/>
<circle r="6" cy="3001.3999" cx="1452.5"/>
<circle r="6" cy="3123" cx="1200"/>
<circle r="6" cy="2871.8999" cx="885.09998"/>
<circle r="6" cy="3114.8999" cx="1271.9"/>
<circle r="6" cy="2940.1001" cx="1491"/>
<circle r="6" cy="2800" cx="877"/>
<circle r="6" cy="3114.8999" cx="1128.1"/>
<circle r="6" cy="2728.1001" cx="885.09998"/>
<circle r="6" cy="2836.2" cx="879"/>
<circle r="6" cy="3028.3999" cx="1428.4"/>
<circle r="6" cy="2495.1001" cx="1306.7"/>
<circle r="6" cy="3104.8999" cx="1093.3"/>
<circle r="6" cy="3121" cx="1236.2"/>
<circle r="6" cy="3052.5" cx="1401.4"/>
<circle r="6" cy="2628.2" cx="1473.5"/>
<circle r="6" cy="3001.3999" cx="947.5"/>
<circle r="6" cy="2659.8999" cx="1491"/>
<circle r="6" cy="2485.1001" cx="1271.9"/>
<circle r="6" cy="2836.2" cx="1521"/>
<circle r="6" cy="2526.5" cx="1371.8"/>
<circle r="6" cy="3052.5" cx="998.59998"/>
<circle r="6" cy="2547.5" cx="998.59998"/>
</g> </g> 
<g transform="translate(760, -391.429)"> 
<g style="stroke:black; stroke-width: 1; " transform="translate(-3160, -156.209)"> 
<line y2="506.70001" x2="2495.1001" y1="471.89999" x1="2485.1001"/>
<line y2="400" x2="2477" y1="471.89999" x1="2485.1001"/>
<line y2="328.10001" x2="3114.8999" y1="471.89999" x1="2485.1001"/>
<line y2="540.09998" x2="2509" y1="471.89999" x1="2485.1001"/>
<line y2="704.90002" x2="2906.7" y1="471.89999" x1="2485.1001"/>
<line y2="506.70001" x2="3104.8999" y1="471.89999" x1="2485.1001"/>
<line y2="571.79999" x2="3073.5" y1="471.89999" x1="2485.1001"/>
<line y2="95.099998" x2="2693.3" y1="471.89999" x1="2485.1001"/>
<line y2="228.2" x2="3073.5" y1="471.89999" x1="2485.1001"/>
<line y2="171.60001" x2="2571.6001" y1="471.89999" x1="2485.1001"/>
<line y2="126.5" x2="2971.8" y1="198.60001" x1="2547.5"/>
<line y2="147.5" x2="2598.6001" y1="198.60001" x1="2547.5"/>
<line y2="721" x2="2836.2" y1="198.60001" x1="2547.5"/>
<line y2="259.89999" x2="2509" y1="198.60001" x1="2547.5"/>
<line y2="704.90002" x2="2906.7" y1="198.60001" x1="2547.5"/>
<line y2="506.70001" x2="3104.8999" y1="198.60001" x1="2547.5"/>
<line y2="601.40002" x2="3052.5" y1="198.60001" x1="2547.5"/>
<line y2="228.2" x2="2526.5" y1="198.60001" x1="2547.5"/>
<line y2="79" x2="2836.2" y1="198.60001" x1="2547.5"/>
<line y2="673.5" x2="2628.2" y1="198.60001" x1="2547.5"/>
<line y2="506.70001" x2="2495.1001" y1="714.90002" x1="2871.8999"/>
<line y2="400" x2="2477" y1="714.90002" x1="2871.8999"/>
<line y2="721" x2="2836.2" y1="714.90002" x1="2871.8999"/>
<line y2="259.89999" x2="2509" y1="714.90002" x1="2871.8999"/>
<line y2="691" x2="2940.1001" y1="714.90002" x1="2871.8999"/>
<line y2="436.20001" x2="2479" y1="714.90002" x1="2871.8999"/>
<line y2="259.89999" x2="3091" y1="714.90002" x1="2871.8999"/>
<line y2="126.5" x2="2628.2" y1="714.90002" x1="2871.8999"/>
<line y2="85.099998" x2="2728.1001" y1="714.90002" x1="2871.8999"/>
<line y2="704.90002" x2="2693.3" y1="714.90002" x1="2871.8999"/>
<line y2="126.5" x2="2971.8" y1="652.5" x1="3001.3999"/>
<line y2="147.5" x2="2598.6001" y1="652.5" x1="3001.3999"/>
<line y2="328.10001" x2="3114.8999" y1="652.5" x1="3001.3999"/>
<line y2="540.09998" x2="2509" y1="652.5" x1="3001.3999"/>
<line y2="691" x2="2940.1001" y1="652.5" x1="3001.3999"/>
<line y2="436.20001" x2="2479" y1="652.5" x1="3001.3999"/>
<line y2="147.5" x2="3001.3999" y1="652.5" x1="3001.3999"/>
<line y2="721" x2="2763.8" y1="652.5" x1="3001.3999"/>
<line y2="85.099998" x2="2871.8999" y1="652.5" x1="3001.3999"/>
<line y2="109" x2="2940.1001" y1="652.5" x1="3001.3999"/>
<line y2="723" x2="2800" y1="77" x1="2800"/>
<line y2="628.40002" x2="2571.6001" y1="77" x1="2800"/>
<line y2="79" x2="2763.8" y1="77" x1="2800"/>
<line y2="363.79999" x2="3121" y1="77" x1="2800"/>
<line y2="704.90002" x2="2906.7" y1="77" x1="2800"/>
<line y2="436.20001" x2="2479" y1="77" x1="2800"/>
<line y2="85.099998" x2="2871.8999" y1="77" x1="2800"/>
<line y2="85.099998" x2="2728.1001" y1="77" x1="2800"/>
<line y2="228.2" x2="3073.5" y1="77" x1="2800"/>
<line y2="673.5" x2="2628.2" y1="77" x1="2800"/>
<line y2="540.09998" x2="3091" y1="471.89999" x1="3114.8999"/>
<line y2="328.10001" x2="2485.1001" y1="471.89999" x1="3114.8999"/>
<line y2="400" x2="3123" y1="471.89999" x1="3114.8999"/>
<line y2="436.20001" x2="3121" y1="471.89999" x1="3114.8999"/>
<line y2="704.90002" x2="2906.7" y1="471.89999" x1="3114.8999"/>
<line y2="436.20001" x2="2479" y1="471.89999" x1="3114.8999"/>
<line y2="721" x2="2763.8" y1="471.89999" x1="3114.8999"/>
<line y2="126.5" x2="2628.2" y1="471.89999" x1="3114.8999"/>
<line y2="79" x2="2836.2" y1="471.89999" x1="3114.8999"/>
<line y2="171.60001" x2="2571.6001" y1="471.89999" x1="3114.8999"/>
<line y2="540.09998" x2="3091" y1="673.5" x1="2971.8"/>
<line y2="328.10001" x2="2485.1001" y1="673.5" x1="2971.8"/>
<line y2="79" x2="2763.8" y1="673.5" x1="2971.8"/>
<line y2="363.79999" x2="3121" y1="673.5" x1="2971.8"/>
<line y2="691" x2="2940.1001" y1="673.5" x1="2971.8"/>
<line y2="506.70001" x2="3104.8999" y1="673.5" x1="2971.8"/>
<line y2="259.89999" x2="3091" y1="673.5" x1="2971.8"/>
<line y2="228.2" x2="2526.5" y1="673.5" x1="2971.8"/>
<line y2="95.099998" x2="2693.3" y1="673.5" x1="2971.8"/>
<line y2="109" x2="2940.1001" y1="673.5" x1="2971.8"/>
<line y2="723" x2="2800" y1="109" x1="2659.8999"/>
<line y2="628.40002" x2="2571.6001" y1="109" x1="2659.8999"/>
<line y2="400" x2="3123" y1="109" x1="2659.8999"/>
<line y2="436.20001" x2="3121" y1="109" x1="2659.8999"/>
<line y2="691" x2="2940.1001" y1="109" x1="2659.8999"/>
<line y2="506.70001" x2="3104.8999" y1="109" x1="2659.8999"/>
<line y2="147.5" x2="3001.3999" y1="109" x1="2659.8999"/>
<line y2="601.40002" x2="3052.5" y1="109" x1="2659.8999"/>
<line y2="571.79999" x2="3073.5" y1="109" x1="2659.8999"/>
<line y2="704.90002" x2="2693.3" y1="109" x1="2659.8999"/>
<line y2="198.60001" x2="3052.5" y1="601.40002" x1="2547.5"/>
<line y2="95.099998" x2="2906.7" y1="601.40002" x1="2547.5"/>
<line y2="79" x2="2763.8" y1="601.40002" x1="2547.5"/>
<line y2="436.20001" x2="3121" y1="601.40002" x1="2547.5"/>
<line y2="328.10001" x2="3114.8999" y1="601.40002" x1="2547.5"/>
<line y2="259.89999" x2="2509" y1="601.40002" x1="2547.5"/>
<line y2="571.79999" x2="3073.5" y1="601.40002" x1="2547.5"/>
<line y2="85.099998" x2="2728.1001" y1="601.40002" x1="2547.5"/>
<line y2="79" x2="2836.2" y1="601.40002" x1="2547.5"/>
<line y2="109" x2="2940.1001" y1="601.40002" x1="2547.5"/>
<line y2="198.60001" x2="3052.5" y1="628.40002" x1="3028.3999"/>
<line y2="95.099998" x2="2906.7" y1="628.40002" x1="3028.3999"/>
<line y2="400" x2="3123" y1="628.40002" x1="3028.3999"/>
<line y2="363.79999" x2="3121" y1="628.40002" x1="3028.3999"/>
<line y2="721" x2="2836.2" y1="628.40002" x1="3028.3999"/>
<line y2="540.09998" x2="2509" y1="628.40002" x1="3028.3999"/>
<line y2="721" x2="2763.8" y1="628.40002" x1="3028.3999"/>
<line y2="228.2" x2="2526.5" y1="628.40002" x1="3028.3999"/>
<line y2="228.2" x2="3073.5" y1="628.40002" x1="3028.3999"/>
<line y2="704.90002" x2="2693.3" y1="628.40002" x1="3028.3999"/>
<line y2="691" x2="2659.8999" y1="293.29999" x1="2495.1001"/>
<line y2="571.79999" x2="2526.5" y1="293.29999" x1="2495.1001"/>
<line y2="79" x2="2763.8" y1="293.29999" x1="2495.1001"/>
<line y2="436.20001" x2="3121" y1="293.29999" x1="2495.1001"/>
<line y2="721" x2="2836.2" y1="293.29999" x1="2495.1001"/>
<line y2="540.09998" x2="2509" y1="293.29999" x1="2495.1001"/>
<line y2="147.5" x2="3001.3999" y1="293.29999" x1="2495.1001"/>
<line y2="126.5" x2="2628.2" y1="293.29999" x1="2495.1001"/>
<line y2="95.099998" x2="2693.3" y1="293.29999" x1="2495.1001"/>
<line y2="673.5" x2="2628.2" y1="293.29999" x1="2495.1001"/>
<line y2="691" x2="2659.8999" y1="714.90002" x1="2728.1001"/>
<line y2="571.79999" x2="2526.5" y1="714.90002" x1="2728.1001"/>
<line y2="400" x2="3123" y1="714.90002" x1="2728.1001"/>
<line y2="363.79999" x2="3121" y1="714.90002" x1="2728.1001"/>
<line y2="328.10001" x2="3114.8999" y1="714.90002" x1="2728.1001"/>
<line y2="259.89999" x2="2509" y1="714.90002" x1="2728.1001"/>
<line y2="259.89999" x2="3091" y1="714.90002" x1="2728.1001"/>
<line y2="601.40002" x2="3052.5" y1="714.90002" x1="2728.1001"/>
<line y2="85.099998" x2="2871.8999" y1="714.90002" x1="2728.1001"/>
<line y2="171.60001" x2="2571.6001" y1="714.90002" x1="2728.1001"/>
<line y2="198.60001" x2="3052.5" y1="171.60001" x1="3028.3999"/>
<line y2="571.79999" x2="2526.5" y1="171.60001" x1="3028.3999"/>
<line y2="723" x2="2800" y1="171.60001" x1="3028.3999"/>
<line y2="328.10001" x2="2485.1001" y1="171.60001" x1="3028.3999"/>
<line y2="506.70001" x2="2495.1001" y1="171.60001" x1="3028.3999"/>
<line y2="147.5" x2="2598.6001" y1="171.60001" x1="3028.3999"/>
<line y2="85.099998" x2="2871.8999" y1="171.60001" x1="3028.3999"/>
<line y2="95.099998" x2="2693.3" y1="171.60001" x1="3028.3999"/>
<line y2="79" x2="2836.2" y1="171.60001" x1="3028.3999"/>
<line y2="704.90002" x2="2693.3" y1="171.60001" x1="3028.3999"/>
<line y2="198.60001" x2="3052.5" y1="363.79999" x1="2479"/>
<line y2="571.79999" x2="2526.5" y1="363.79999" x1="2479"/>
<line y2="540.09998" x2="3091" y1="363.79999" x1="2479"/>
<line y2="628.40002" x2="2571.6001" y1="363.79999" x1="2479"/>
<line y2="126.5" x2="2971.8" y1="363.79999" x1="2479"/>
<line y2="400" x2="2477" y1="363.79999" x1="2479"/>
<line y2="601.40002" x2="3052.5" y1="363.79999" x1="2479"/>
<line y2="126.5" x2="2628.2" y1="363.79999" x1="2479"/>
<line y2="228.2" x2="3073.5" y1="363.79999" x1="2479"/>
<line y2="109" x2="2940.1001" y1="363.79999" x1="2479"/>
<line y2="691" x2="2659.8999" y1="652.5" x1="2598.6001"/>
<line y2="95.099998" x2="2906.7" y1="652.5" x1="2598.6001"/>
<line y2="540.09998" x2="3091" y1="652.5" x1="2598.6001"/>
<line y2="628.40002" x2="2571.6001" y1="652.5" x1="2598.6001"/>
<line y2="506.70001" x2="2495.1001" y1="652.5" x1="2598.6001"/>
<line y2="147.5" x2="2598.6001" y1="652.5" x1="2598.6001"/>
<line y2="147.5" x2="3001.3999" y1="652.5" x1="2598.6001"/>
<line y2="228.2" x2="2526.5" y1="652.5" x1="2598.6001"/>
<line y2="85.099998" x2="2728.1001" y1="652.5" x1="2598.6001"/>
<line y2="171.60001" x2="2571.6001" y1="652.5" x1="2598.6001"/>
<line y2="691" x2="2659.8999" y1="293.29999" x1="3104.8999"/>
<line y2="95.099998" x2="2906.7" y1="293.29999" x1="3104.8999"/>
<line y2="723" x2="2800" y1="293.29999" x1="3104.8999"/>
<line y2="328.10001" x2="2485.1001" y1="293.29999" x1="3104.8999"/>
<line y2="126.5" x2="2971.8" y1="293.29999" x1="3104.8999"/>
<line y2="400" x2="2477" y1="293.29999" x1="3104.8999"/>
<line y2="259.89999" x2="3091" y1="293.29999" x1="3104.8999"/>
<line y2="721" x2="2763.8" y1="293.29999" x1="3104.8999"/>
<line y2="571.79999" x2="3073.5" y1="293.29999" x1="3104.8999"/>
<line y2="673.5" x2="2628.2" y1="293.29999" x1="3104.8999"/>
<line y2="506.70001" x2="3104.8999" y1="691" x1="2659.8999"/>
<line y2="436.20001" x2="2479" y1="691" x1="2659.8999"/>
<line y2="228.2" x2="3073.5" y1="691" x1="2659.8999"/>
<line y2="79" x2="2836.2" y1="691" x1="2659.8999"/>
<line y2="704.90002" x2="2693.3" y1="691" x1="2659.8999"/>
<line y2="109" x2="2940.1001" y1="691" x1="2659.8999"/>
<line y2="506.70001" x2="3104.8999" y1="198.60001" x1="3052.5"/>
<line y2="436.20001" x2="2479" y1="198.60001" x1="3052.5"/>
<line y2="259.89999" x2="3091" y1="198.60001" x1="3052.5"/>
<line y2="147.5" x2="3001.3999" y1="198.60001" x1="3052.5"/>
<line y2="673.5" x2="2628.2" y1="198.60001" x1="3052.5"/>
<line y2="171.60001" x2="2571.6001" y1="198.60001" x1="3052.5"/>
<line y2="691" x2="2940.1001" y1="571.79999" x1="2526.5"/>
<line y2="704.90002" x2="2906.7" y1="571.79999" x1="2526.5"/>
<line y2="721" x2="2763.8" y1="571.79999" x1="2526.5"/>
<line y2="228.2" x2="2526.5" y1="571.79999" x1="2526.5"/>
<line y2="571.79999" x2="3073.5" y1="571.79999" x1="2526.5"/>
<line y2="85.099998" x2="2728.1001" y1="571.79999" x1="2526.5"/>
<line y2="691" x2="2940.1001" y1="95.099998" x1="2906.7"/>
<line y2="704.90002" x2="2906.7" y1="95.099998" x1="2906.7"/>
<line y2="601.40002" x2="3052.5" y1="95.099998" x1="2906.7"/>
<line y2="126.5" x2="2628.2" y1="95.099998" x1="2906.7"/>
<line y2="85.099998" x2="2871.8999" y1="95.099998" x1="2906.7"/>
<line y2="95.099998" x2="2693.3" y1="95.099998" x1="2906.7"/>
<line y2="540.09998" x2="2509" y1="540.09998" x1="3091"/>
<line y2="259.89999" x2="2509" y1="540.09998" x1="3091"/>
<line y2="571.79999" x2="3073.5" y1="540.09998" x1="3091"/>
<line y2="85.099998" x2="2871.8999" y1="540.09998" x1="3091"/>
<line y2="704.90002" x2="2693.3" y1="540.09998" x1="3091"/>
<line y2="673.5" x2="2628.2" y1="540.09998" x1="3091"/>
<line y2="540.09998" x2="2509" y1="723" x1="2800"/>
<line y2="259.89999" x2="2509" y1="723" x1="2800"/>
<line y2="126.5" x2="2628.2" y1="723" x1="2800"/>
<line y2="228.2" x2="2526.5" y1="723" x1="2800"/>
<line y2="109" x2="2940.1001" y1="723" x1="2800"/>
<line y2="171.60001" x2="2571.6001" y1="723" x1="2800"/>
<line y2="721" x2="2836.2" y1="328.10001" x1="2485.1001"/>
<line y2="328.10001" x2="3114.8999" y1="328.10001" x1="2485.1001"/>
<line y2="147.5" x2="3001.3999" y1="328.10001" x1="2485.1001"/>
<line y2="601.40002" x2="3052.5" y1="328.10001" x1="2485.1001"/>
<line y2="85.099998" x2="2728.1001" y1="328.10001" x1="2485.1001"/>
<line y2="228.2" x2="3073.5" y1="328.10001" x1="2485.1001"/>
<line y2="721" x2="2836.2" y1="628.40002" x1="2571.6001"/>
<line y2="328.10001" x2="3114.8999" y1="628.40002" x1="2571.6001"/>
<line y2="259.89999" x2="3091" y1="628.40002" x1="2571.6001"/>
<line y2="721" x2="2763.8" y1="628.40002" x1="2571.6001"/>
<line y2="95.099998" x2="2693.3" y1="628.40002" x1="2571.6001"/>
<line y2="79" x2="2836.2" y1="628.40002" x1="2571.6001"/>
<line y2="400" x2="2477" y1="400" x1="3123"/>
<line y2="147.5" x2="2598.6001" y1="400" x1="3123"/>
<line y2="95.099998" x2="2693.3" y1="400" x1="3123"/>
<line y2="85.099998" x2="2728.1001" y1="400" x1="3123"/>
<line y2="109" x2="2940.1001" y1="400" x1="3123"/>
<line y2="673.5" x2="2628.2" y1="400" x1="3123"/>
<line y2="400" x2="2477" y1="79" x1="2763.8"/>
<line y2="147.5" x2="2598.6001" y1="79" x1="2763.8"/>
<line y2="721" x2="2763.8" y1="79" x1="2763.8"/>
<line y2="601.40002" x2="3052.5" y1="79" x1="2763.8"/>
<line y2="704.90002" x2="2693.3" y1="79" x1="2763.8"/>
<line y2="171.60001" x2="2571.6001" y1="79" x1="2763.8"/>
<line y2="126.5" x2="2971.8" y1="436.20001" x1="3121"/>
<line y2="506.70001" x2="2495.1001" y1="436.20001" x1="3121"/>
<line y2="259.89999" x2="3091" y1="436.20001" x1="3121"/>
<line y2="228.2" x2="2526.5" y1="436.20001" x1="3121"/>
<line y2="85.099998" x2="2871.8999" y1="436.20001" x1="3121"/>
<line y2="228.2" x2="3073.5" y1="436.20001" x1="3121"/>
<line y2="126.5" x2="2971.8" y1="363.79999" x1="3121"/>
<line y2="506.70001" x2="2495.1001" y1="363.79999" x1="3121"/>
<line y2="147.5" x2="3001.3999" y1="363.79999" x1="3121"/>
<line y2="126.5" x2="2628.2" y1="363.79999" x1="3121"/>
<line y2="571.79999" x2="3073.5" y1="363.79999" x1="3121"/>
<line y2="79" x2="2836.2" y1="363.79999" x1="3121"/>
<line y2="95.099998" x2="2693.3" y1="126.5" x1="2971.8"/>
<line y2="85.099998" x2="2728.1001" y1="126.5" x1="2971.8"/>
<line y2="704.90002" x2="2693.3" y1="126.5" x1="2971.8"/>
<line y2="171.60001" x2="2571.6001" y1="126.5" x1="2971.8"/>
<line y2="721" x2="2763.8" y1="506.70001" x1="2495.1001"/>
<line y2="601.40002" x2="3052.5" y1="506.70001" x1="2495.1001"/>
<line y2="109" x2="2940.1001" y1="506.70001" x1="2495.1001"/>
<line y2="673.5" x2="2628.2" y1="506.70001" x1="2495.1001"/>
<line y2="147.5" x2="3001.3999" y1="400" x1="2477"/>
<line y2="228.2" x2="2526.5" y1="400" x1="2477"/>
<line y2="85.099998" x2="2871.8999" y1="400" x1="2477"/>
<line y2="79" x2="2836.2" y1="400" x1="2477"/>
<line y2="259.89999" x2="3091" y1="147.5" x1="2598.6001"/>
<line y2="126.5" x2="2628.2" y1="147.5" x1="2598.6001"/>
<line y2="571.79999" x2="3073.5" y1="147.5" x1="2598.6001"/>
<line y2="228.2" x2="3073.5" y1="147.5" x1="2598.6001"/>
<line y2="571.79999" x2="3073.5" y1="721" x1="2836.2"/>
<line y2="85.099998" x2="2871.8999" y1="721" x1="2836.2"/>
<line y2="109" x2="2940.1001" y1="721" x1="2836.2"/>
<line y2="171.60001" x2="2571.6001" y1="721" x1="2836.2"/>
<line y2="126.5" x2="2628.2" y1="328.10001" x1="3114.8999"/>
<line y2="228.2" x2="2526.5" y1="328.10001" x1="3114.8999"/>
<line y2="704.90002" x2="2693.3" y1="328.10001" x1="3114.8999"/>
<line y2="673.5" x2="2628.2" y1="328.10001" x1="3114.8999"/>
<line y2="259.89999" x2="3091" y1="540.09998" x1="2509"/>
<line y2="601.40002" x2="3052.5" y1="540.09998" x1="2509"/>
<line y2="85.099998" x2="2728.1001" y1="540.09998" x1="2509"/>
<line y2="79" x2="2836.2" y1="540.09998" x1="2509"/>
<line y2="147.5" x2="3001.3999" y1="259.89999" x1="2509"/>
<line y2="721" x2="2763.8" y1="259.89999" x1="2509"/>
<line y2="95.099998" x2="2693.3" y1="259.89999" x1="2509"/>
<line y2="228.2" x2="3073.5" y1="259.89999" x1="2509"/>
<line y2="228.2" x2="3073.5" y1="691" x1="2940.1001"/>
<line y2="79" x2="2836.2" y1="691" x1="2940.1001"/>
<line y2="673.5" x2="2628.2" y1="691" x1="2940.1001"/>
<line y2="171.60001" x2="2571.6001" y1="691" x1="2940.1001"/>
<line y2="259.89999" x2="3091" y1="704.90002" x1="2906.7"/>
<line y2="147.5" x2="3001.3999" y1="704.90002" x1="2906.7"/>
<line y2="704.90002" x2="2693.3" y1="704.90002" x1="2906.7"/>
<line y2="109" x2="2940.1001" y1="704.90002" x1="2906.7"/>
<line y2="721" x2="2763.8" y1="506.70001" x1="3104.8999"/>
<line y2="126.5" x2="2628.2" y1="506.70001" x1="3104.8999"/>
<line y2="85.099998" x2="2871.8999" y1="506.70001" x1="3104.8999"/>
<line y2="85.099998" x2="2728.1001" y1="506.70001" x1="3104.8999"/>
<line y2="601.40002" x2="3052.5" y1="436.20001" x1="2479"/>
<line y2="228.2" x2="2526.5" y1="436.20001" x1="2479"/>
<line y2="571.79999" x2="3073.5" y1="436.20001" x1="2479"/>
<line y2="95.099998" x2="2693.3" y1="436.20001" x1="2479"/></g> 
<g style="fill:blue; stroke:black; stroke-width: 1; " transform="translate(-3160, -156.209)"> 
<circle r="6" cy="471.89999" cx="2485.1001"/>
<circle r="6" cy="198.60001" cx="2547.5"/>
<circle r="6" cy="714.90002" cx="2871.8999"/>
<circle r="6" cy="652.5" cx="3001.3999"/>
<circle r="6" cy="77" cx="2800"/>
<circle r="6" cy="471.89999" cx="3114.8999"/>
<circle r="6" cy="673.5" cx="2971.8"/>
<circle r="6" cy="109" cx="2659.8999"/>
<circle r="6" cy="601.40002" cx="2547.5"/>
<circle r="6" cy="628.40002" cx="3028.3999"/>
<circle r="6" cy="293.29999" cx="2495.1001"/>
<circle r="6" cy="714.90002" cx="2728.1001"/>
<circle r="6" cy="171.60001" cx="3028.3999"/>
<circle r="6" cy="363.79999" cx="2479"/>
<circle r="6" cy="652.5" cx="2598.6001"/>
<circle r="6" cy="293.29999" cx="3104.8999"/>
<circle r="6" cy="691" cx="2659.8999"/>
<circle r="6" cy="198.60001" cx="3052.5"/>
<circle r="6" cy="571.79999" cx="2526.5"/>
<circle r="6" cy="95.099998" cx="2906.7"/>
<circle r="6" cy="540.09998" cx="3091"/>
<circle r="6" cy="723" cx="2800"/>
<circle r="6" cy="328.10001" cx="2485.1001"/>
<circle r="6" cy="628.40002" cx="2571.6001"/>
<circle r="6" cy="400" cx="3123"/>
<circle r="6" cy="79" cx="2763.8"/>
<circle r="6" cy="436.20001" cx="3121"/>
<circle r="6" cy="363.79999" cx="3121"/>
<circle r="6" cy="126.5" cx="2971.8"/>
<circle r="6" cy="506.70001" cx="2495.1001"/>
<circle r="6" cy="400" cx="2477"/>
<circle r="6" cy="147.5" cx="2598.6001"/>
<circle r="6" cy="721" cx="2836.2"/>
<circle r="6" cy="328.10001" cx="3114.8999"/>
<circle r="6" cy="540.09998" cx="2509"/>
<circle r="6" cy="259.89999" cx="2509"/>
<circle r="6" cy="691" cx="2940.1001"/>
<circle r="6" cy="704.90002" cx="2906.7"/>
<circle r="6" cy="506.70001" cx="3104.8999"/>
<circle r="6" cy="436.20001" cx="2479"/>
<circle r="6" cy="259.89999" cx="3091"/>
<circle r="6" cy="147.5" cx="3001.3999"/>
<circle r="6" cy="721" cx="2763.8"/>
<circle r="6" cy="601.40002" cx="3052.5"/>
<circle r="6" cy="126.5" cx="2628.2"/>
<circle r="6" cy="228.2" cx="2526.5"/>
<circle r="6" cy="571.79999" cx="3073.5"/>
<circle r="6" cy="85.099998" cx="2871.8999"/>
<circle r="6" cy="95.099998" cx="2693.3"/>
<circle r="6" cy="85.099998" cx="2728.1001"/>
<circle r="6" cy="228.2" cx="3073.5"/>
<circle r="6" cy="79" cx="2836.2"/>
<circle r="6" cy="704.90002" cx="2693.3"/>
<circle r="6" cy="109" cx="2940.1001"/>
<circle r="6" cy="673.5" cx="2628.2"/>
<circle r="6" cy="171.60001" cx="2571.6001"/>
</g></g></g></svg>