<?xml version="1.0" encoding="UTF-8" standalone="no"?>
<svg xmlns:dc="http://purl.org/dc/elements/1.1/" xmlns:cc="http://creativecommons.org/ns#" xmlns:rdf="http://www.w3.org/1999/02/22-rdf-syntax-ns#" xmlns:svg="http://www.w3.org/2000/svg" xmlns="http://www.w3.org/2000/svg" width="1600" height="1600" version="1.1"> 

<g transform="translate(0, 547.638)"> 
<g transform="translate(-71.4286, 197.143)">
<g style="stroke:black; stroke-width: 1; " transform="translate(-2328.57, -2344.78)">
<line y2="2906.7" x2="3295.1001" y1="2598.6001" x1="3347.5"/>
<line y2="2509" x2="3459.8999" y1="2598.6001" x1="3347.5"/>
<line y2="2526.5" x2="3771.8" y1="2598.6001" x1="3347.5"/>
<line y2="3104.8999" x2="3706.7" y1="2598.6001" x1="3347.5"/>
<line y2="2971.8" x2="3873.5" y1="2598.6001" x1="3347.5"/>
<line y2="2693.3" x2="3904.8999" y1="2598.6001" x1="3347.5"/>
<line y2="2800" x2="3923" y1="2598.6001" x1="3347.5"/>
<line y2="2485.1001" x2="3671.8999" y1="2598.6001" x1="3347.5"/>
<line y2="2495.1001" x2="3706.7" y1="2598.6001" x1="3347.5"/>
<line y2="2763.8" x2="3279" y1="2598.6001" x1="3347.5"/>
<line y2="2659.8999" x2="3891" y1="2477" x1="3600"/>
<line y2="2509" x2="3740.1001" y1="2477" x1="3600"/>
<line y2="3052.5" x2="3801.3999" y1="2477" x1="3600"/>
<line y2="3073.5" x2="3428.2" y1="2477" x1="3600"/>
<line y2="2971.8" x2="3873.5" y1="2477" x1="3600"/>
<line y2="2693.3" x2="3904.8999" y1="2477" x1="3600"/>
<line y2="2763.8" x2="3921" y1="2477" x1="3600"/>
<line y2="2628.2" x2="3326.5" y1="2477" x1="3600"/>
<line y2="2526.5" x2="3428.2" y1="2477" x1="3600"/>
<line y2="3121" x2="3636.2" y1="2477" x1="3600"/>
<line y2="2906.7" x2="3295.1001" y1="3001.3999" x1="3347.5"/>
<line y2="2509" x2="3459.8999" y1="3001.3999" x1="3347.5"/>
<line y2="3052.5" x2="3801.3999" y1="3001.3999" x1="3347.5"/>
<line y2="3073.5" x2="3428.2" y1="3001.3999" x1="3347.5"/>
<line y2="3091" x2="3459.8999" y1="3001.3999" x1="3347.5"/>
<line y2="3028.3999" x2="3371.6001" y1="3001.3999" x1="3347.5"/>
<line y2="3001.3999" x2="3852.5" y1="3001.3999" x1="3347.5"/>
<line y2="2659.8999" x2="3309" y1="3001.3999" x1="3347.5"/>
<line y2="2836.2" x2="3279" y1="3001.3999" x1="3347.5"/>
<line y2="3104.8999" x2="3493.3" y1="3001.3999" x1="3347.5"/>
<line y2="2659.8999" x2="3891" y1="2628.2" x1="3873.5"/>
<line y2="2509" x2="3740.1001" y1="2628.2" x1="3873.5"/>
<line y2="2526.5" x2="3771.8" y1="2628.2" x1="3873.5"/>
<line y2="3104.8999" x2="3706.7" y1="2628.2" x1="3873.5"/>
<line y2="3091" x2="3459.8999" y1="2628.2" x1="3873.5"/>
<line y2="3028.3999" x2="3371.6001" y1="2628.2" x1="3873.5"/>
<line y2="2571.6001" x2="3371.6001" y1="2628.2" x1="3873.5"/>
<line y2="3052.5" x2="3398.6001" y1="2628.2" x1="3873.5"/>
<line y2="2728.1001" x2="3914.8999" y1="2628.2" x1="3873.5"/>
<line y2="2495.1001" x2="3493.3" y1="2628.2" x1="3873.5"/>
<line y2="3028.3999" x2="3828.3999" y1="2598.6001" x1="3852.5"/>
<line y2="3114.8999" x2="3528.1001" y1="2598.6001" x1="3852.5"/>
<line y2="2479" x2="3563.8" y1="2598.6001" x1="3852.5"/>
<line y2="2940.1001" x2="3891" y1="2598.6001" x1="3852.5"/>
<line y2="2971.8" x2="3873.5" y1="2598.6001" x1="3852.5"/>
<line y2="3028.3999" x2="3371.6001" y1="2598.6001" x1="3852.5"/>
<line y2="2728.1001" x2="3914.8999" y1="2598.6001" x1="3852.5"/>
<line y2="2836.2" x2="3279" y1="2598.6001" x1="3852.5"/>
<line y2="2495.1001" x2="3706.7" y1="2598.6001" x1="3852.5"/>
<line y2="3121" x2="3636.2" y1="2598.6001" x1="3852.5"/>
<line y2="3123" x2="3600" y1="3091" x1="3740.1001"/>
<line y2="2971.8" x2="3326.5" y1="3091" x1="3740.1001"/>
<line y2="2479" x2="3636.2" y1="3091" x1="3740.1001"/>
<line y2="2836.2" x2="3921" y1="3091" x1="3740.1001"/>
<line y2="2971.8" x2="3873.5" y1="3091" x1="3740.1001"/>
<line y2="3028.3999" x2="3371.6001" y1="3091" x1="3740.1001"/>
<line y2="3052.5" x2="3398.6001" y1="3091" x1="3740.1001"/>
<line y2="2659.8999" x2="3309" y1="3091" x1="3740.1001"/>
<line y2="2526.5" x2="3428.2" y1="3091" x1="3740.1001"/>
<line y2="2763.8" x2="3279" y1="3091" x1="3740.1001"/>
<line y2="3123" x2="3600" y1="3073.5" x1="3771.8"/>
<line y2="2971.8" x2="3326.5" y1="3073.5" x1="3771.8"/>
<line y2="2479" x2="3563.8" y1="3073.5" x1="3771.8"/>
<line y2="2940.1001" x2="3891" y1="3073.5" x1="3771.8"/>
<line y2="3091" x2="3459.8999" y1="3073.5" x1="3771.8"/>
<line y2="2693.3" x2="3904.8999" y1="3073.5" x1="3771.8"/>
<line y2="3001.3999" x2="3852.5" y1="3073.5" x1="3771.8"/>
<line y2="2628.2" x2="3326.5" y1="3073.5" x1="3771.8"/>
<line y2="2485.1001" x2="3671.8999" y1="3073.5" x1="3771.8"/>
<line y2="2495.1001" x2="3493.3" y1="3073.5" x1="3771.8"/>
<line y2="3028.3999" x2="3828.3999" y1="2693.3" x1="3295.1001"/>
<line y2="3114.8999" x2="3528.1001" y1="2693.3" x1="3295.1001"/>
<line y2="2479" x2="3636.2" y1="2693.3" x1="3295.1001"/>
<line y2="2836.2" x2="3921" y1="2693.3" x1="3295.1001"/>
<line y2="3091" x2="3459.8999" y1="2693.3" x1="3295.1001"/>
<line y2="2693.3" x2="3904.8999" y1="2693.3" x1="3295.1001"/>
<line y2="2571.6001" x2="3371.6001" y1="2693.3" x1="3295.1001"/>
<line y2="2763.8" x2="3921" y1="2693.3" x1="3295.1001"/>
<line y2="2800" x2="3923" y1="2693.3" x1="3295.1001"/>
<line y2="3104.8999" x2="3493.3" y1="2693.3" x1="3295.1001"/>
<line y2="2871.8999" x2="3914.8999" y1="3121" x1="3563.8"/>
<line y2="2485.1001" x2="3528.1001" y1="3121" x1="3563.8"/>
<line y2="2479" x2="3563.8" y1="3121" x1="3563.8"/>
<line y2="2836.2" x2="3921" y1="3121" x1="3563.8"/>
<line y2="2526.5" x2="3771.8" y1="3121" x1="3563.8"/>
<line y2="3073.5" x2="3428.2" y1="3121" x1="3563.8"/>
<line y2="2800" x2="3923" y1="3121" x1="3563.8"/>
<line y2="2836.2" x2="3279" y1="3121" x1="3563.8"/>
<line y2="2526.5" x2="3428.2" y1="3121" x1="3563.8"/>
<line y2="2495.1001" x2="3493.3" y1="3121" x1="3563.8"/>
<line y2="2871.8999" x2="3914.8999" y1="3114.8999" x1="3671.8999"/>
<line y2="2485.1001" x2="3528.1001" y1="3114.8999" x1="3671.8999"/>
<line y2="2479" x2="3636.2" y1="3114.8999" x1="3671.8999"/>
<line y2="2940.1001" x2="3891" y1="3114.8999" x1="3671.8999"/>
<line y2="3052.5" x2="3801.3999" y1="3114.8999" x1="3671.8999"/>
<line y2="3104.8999" x2="3706.7" y1="3114.8999" x1="3671.8999"/>
<line y2="3052.5" x2="3398.6001" y1="3114.8999" x1="3671.8999"/>
<line y2="2628.2" x2="3326.5" y1="3114.8999" x1="3671.8999"/>
<line y2="2495.1001" x2="3706.7" y1="3114.8999" x1="3671.8999"/>
<line y2="3104.8999" x2="3493.3" y1="3114.8999" x1="3671.8999"/>
<line y2="2871.8999" x2="3285.1001" y1="2547.5" x1="3398.6001"/>
<line y2="2800" x2="3277" y1="2547.5" x1="3398.6001"/>
<line y2="2479" x2="3563.8" y1="2547.5" x1="3398.6001"/>
<line y2="2836.2" x2="3921" y1="2547.5" x1="3398.6001"/>
<line y2="3052.5" x2="3801.3999" y1="2547.5" x1="3398.6001"/>
<line y2="3104.8999" x2="3706.7" y1="2547.5" x1="3398.6001"/>
<line y2="2571.6001" x2="3371.6001" y1="2547.5" x1="3398.6001"/>
<line y2="2659.8999" x2="3309" y1="2547.5" x1="3398.6001"/>
<line y2="2485.1001" x2="3671.8999" y1="2547.5" x1="3398.6001"/>
<line y2="3121" x2="3636.2" y1="2547.5" x1="3398.6001"/>
<line y2="2871.8999" x2="3285.1001" y1="2906.7" x1="3904.8999"/>
<line y2="2800" x2="3277" y1="2906.7" x1="3904.8999"/>
<line y2="2479" x2="3636.2" y1="2906.7" x1="3904.8999"/>
<line y2="2940.1001" x2="3891" y1="2906.7" x1="3904.8999"/>
<line y2="2526.5" x2="3771.8" y1="2906.7" x1="3904.8999"/>
<line y2="3073.5" x2="3428.2" y1="2906.7" x1="3904.8999"/>
<line y2="3001.3999" x2="3852.5" y1="2906.7" x1="3904.8999"/>
<line y2="2763.8" x2="3921" y1="2906.7" x1="3904.8999"/>
<line y2="2728.1001" x2="3914.8999" y1="2906.7" x1="3904.8999"/>
<line y2="2763.8" x2="3279" y1="2906.7" x1="3904.8999"/>
<line y2="2871.8999" x2="3914.8999" y1="2571.6001" x1="3828.3999"/>
<line y2="2800" x2="3277" y1="2571.6001" x1="3828.3999"/>
<line y2="3028.3999" x2="3828.3999" y1="2571.6001" x1="3828.3999"/>
<line y2="2971.8" x2="3326.5" y1="2571.6001" x1="3828.3999"/>
<line y2="2906.7" x2="3295.1001" y1="2571.6001" x1="3828.3999"/>
<line y2="2509" x2="3740.1001" y1="2571.6001" x1="3828.3999"/>
<line y2="2728.1001" x2="3914.8999" y1="2571.6001" x1="3828.3999"/>
<line y2="2485.1001" x2="3671.8999" y1="2571.6001" x1="3828.3999"/>
<line y2="2526.5" x2="3428.2" y1="2571.6001" x1="3828.3999"/>
<line y2="3104.8999" x2="3493.3" y1="2571.6001" x1="3828.3999"/>
<line y2="2871.8999" x2="3914.8999" y1="2940.1001" x1="3309"/>
<line y2="2800" x2="3277" y1="2940.1001" x1="3309"/>
<line y2="3123" x2="3600" y1="2940.1001" x1="3309"/>
<line y2="3114.8999" x2="3528.1001" y1="2940.1001" x1="3309"/>
<line y2="2659.8999" x2="3891" y1="2940.1001" x1="3309"/>
<line y2="2509" x2="3459.8999" y1="2940.1001" x1="3309"/>
<line y2="2763.8" x2="3921" y1="2940.1001" x1="3309"/>
<line y2="2659.8999" x2="3309" y1="2940.1001" x1="3309"/>
<line y2="2495.1001" x2="3706.7" y1="2940.1001" x1="3309"/>
<line y2="2495.1001" x2="3493.3" y1="2940.1001" x1="3309"/>
<line y2="2871.8999" x2="3285.1001" y1="2728.1001" x1="3285.1001"/>
<line y2="2485.1001" x2="3528.1001" y1="2728.1001" x1="3285.1001"/>
<line y2="3123" x2="3600" y1="2728.1001" x1="3285.1001"/>
<line y2="3114.8999" x2="3528.1001" y1="2728.1001" x1="3285.1001"/>
<line y2="2906.7" x2="3295.1001" y1="2728.1001" x1="3285.1001"/>
<line y2="2509" x2="3740.1001" y1="2728.1001" x1="3285.1001"/>
<line y2="2571.6001" x2="3371.6001" y1="2728.1001" x1="3285.1001"/>
<line y2="2628.2" x2="3326.5" y1="2728.1001" x1="3285.1001"/>
<line y2="2836.2" x2="3279" y1="2728.1001" x1="3285.1001"/>
<line y2="2763.8" x2="3279" y1="2728.1001" x1="3285.1001"/>
<line y2="2871.8999" x2="3285.1001" y1="2547.5" x1="3801.3999"/>
<line y2="2485.1001" x2="3528.1001" y1="2547.5" x1="3801.3999"/>
<line y2="3028.3999" x2="3828.3999" y1="2547.5" x1="3801.3999"/>
<line y2="2971.8" x2="3326.5" y1="2547.5" x1="3801.3999"/>
<line y2="2659.8999" x2="3891" y1="2547.5" x1="3801.3999"/>
<line y2="2509" x2="3459.8999" y1="2547.5" x1="3801.3999"/>
<line y2="3001.3999" x2="3852.5" y1="2547.5" x1="3801.3999"/>
<line y2="3052.5" x2="3398.6001" y1="2547.5" x1="3801.3999"/>
<line y2="2800" x2="3923" y1="2547.5" x1="3801.3999"/>
<line y2="3121" x2="3636.2" y1="2547.5" x1="3801.3999"/>
<line y2="2693.3" x2="3904.8999" y1="2871.8999" x1="3285.1001"/>
<line y2="3028.3999" x2="3371.6001" y1="2871.8999" x1="3285.1001"/>
<line y2="2495.1001" x2="3706.7" y1="2871.8999" x1="3285.1001"/>
<line y2="2526.5" x2="3428.2" y1="2871.8999" x1="3285.1001"/>
<line y2="3104.8999" x2="3493.3" y1="2871.8999" x1="3285.1001"/>
<line y2="2495.1001" x2="3493.3" y1="2871.8999" x1="3285.1001"/>
<line y2="2693.3" x2="3904.8999" y1="2871.8999" x1="3914.8999"/>
<line y2="3028.3999" x2="3371.6001" y1="2871.8999" x1="3914.8999"/>
<line y2="3001.3999" x2="3852.5" y1="2871.8999" x1="3914.8999"/>
<line y2="2571.6001" x2="3371.6001" y1="2871.8999" x1="3914.8999"/>
<line y2="3121" x2="3636.2" y1="2871.8999" x1="3914.8999"/>
<line y2="2763.8" x2="3279" y1="2871.8999" x1="3914.8999"/>
<line y2="3091" x2="3459.8999" y1="2800" x1="3277"/>
<line y2="2971.8" x2="3873.5" y1="2800" x1="3277"/>
<line y2="3052.5" x2="3398.6001" y1="2800" x1="3277"/>
<line y2="2628.2" x2="3326.5" y1="2800" x1="3277"/>
<line y2="2800" x2="3923" y1="2800" x1="3277"/>
<line y2="2836.2" x2="3279" y1="2800" x1="3277"/>
<line y2="3091" x2="3459.8999" y1="2485.1001" x1="3528.1001"/>
<line y2="2971.8" x2="3873.5" y1="2485.1001" x1="3528.1001"/>
<line y2="2763.8" x2="3921" y1="2485.1001" x1="3528.1001"/>
<line y2="2659.8999" x2="3309" y1="2485.1001" x1="3528.1001"/>
<line y2="2728.1001" x2="3914.8999" y1="2485.1001" x1="3528.1001"/>
<line y2="2485.1001" x2="3671.8999" y1="2485.1001" x1="3528.1001"/>
<line y2="3104.8999" x2="3706.7" y1="3123" x1="3600"/>
<line y2="3073.5" x2="3428.2" y1="3123" x1="3600"/>
<line y2="2800" x2="3923" y1="3123" x1="3600"/>
<line y2="2728.1001" x2="3914.8999" y1="3123" x1="3600"/>
<line y2="3104.8999" x2="3493.3" y1="3123" x1="3600"/>
<line y2="3121" x2="3636.2" y1="3123" x1="3600"/>
<line y2="3104.8999" x2="3706.7" y1="3028.3999" x1="3828.3999"/>
<line y2="3073.5" x2="3428.2" y1="3028.3999" x1="3828.3999"/>
<line y2="2659.8999" x2="3309" y1="3028.3999" x1="3828.3999"/>
<line y2="2628.2" x2="3326.5" y1="3028.3999" x1="3828.3999"/>
<line y2="2495.1001" x2="3493.3" y1="3028.3999" x1="3828.3999"/>
<line y2="2763.8" x2="3279" y1="3028.3999" x1="3828.3999"/>
<line y2="3052.5" x2="3801.3999" y1="2971.8" x1="3326.5"/>
<line y2="2526.5" x2="3771.8" y1="2971.8" x1="3326.5"/>
<line y2="2571.6001" x2="3371.6001" y1="2971.8" x1="3326.5"/>
<line y2="2763.8" x2="3921" y1="2971.8" x1="3326.5"/>
<line y2="2836.2" x2="3279" y1="2971.8" x1="3326.5"/>
<line y2="2495.1001" x2="3706.7" y1="2971.8" x1="3326.5"/>
<line y2="3052.5" x2="3801.3999" y1="3114.8999" x1="3528.1001"/>
<line y2="2526.5" x2="3771.8" y1="3114.8999" x1="3528.1001"/>
<line y2="3001.3999" x2="3852.5" y1="3114.8999" x1="3528.1001"/>
<line y2="3052.5" x2="3398.6001" y1="3114.8999" x1="3528.1001"/>
<line y2="2485.1001" x2="3671.8999" y1="3114.8999" x1="3528.1001"/>
<line y2="2526.5" x2="3428.2" y1="3114.8999" x1="3528.1001"/>
<line y2="2509" x2="3459.8999" y1="2479" x1="3636.2"/>
<line y2="2509" x2="3740.1001" y1="2479" x1="3636.2"/>
<line y2="2485.1001" x2="3671.8999" y1="2479" x1="3636.2"/>
<line y2="2836.2" x2="3279" y1="2479" x1="3636.2"/>
<line y2="2495.1001" x2="3493.3" y1="2479" x1="3636.2"/>
<line y2="3121" x2="3636.2" y1="2479" x1="3636.2"/>
<line y2="2509" x2="3459.8999" y1="2479" x1="3563.8"/>
<line y2="2509" x2="3740.1001" y1="2479" x1="3563.8"/>
<line y2="3052.5" x2="3398.6001" y1="2479" x1="3563.8"/>
<line y2="2763.8" x2="3921" y1="2479" x1="3563.8"/>
<line y2="3104.8999" x2="3493.3" y1="2479" x1="3563.8"/>
<line y2="2763.8" x2="3279" y1="2479" x1="3563.8"/>
<line y2="2659.8999" x2="3891" y1="2836.2" x1="3921"/>
<line y2="2906.7" x2="3295.1001" y1="2836.2" x1="3921"/>
<line y2="3001.3999" x2="3852.5" y1="2836.2" x1="3921"/>
<line y2="2628.2" x2="3326.5" y1="2836.2" x1="3921"/>
<line y2="2728.1001" x2="3914.8999" y1="2836.2" x1="3921"/>
<line y2="2495.1001" x2="3706.7" y1="2836.2" x1="3921"/>
<line y2="2659.8999" x2="3891" y1="2940.1001" x1="3891"/>
<line y2="2906.7" x2="3295.1001" y1="2940.1001" x1="3891"/>
<line y2="2571.6001" x2="3371.6001" y1="2940.1001" x1="3891"/>
<line y2="2659.8999" x2="3309" y1="2940.1001" x1="3891"/>
<line y2="2800" x2="3923" y1="2940.1001" x1="3891"/>
<line y2="2526.5" x2="3428.2" y1="2940.1001" x1="3891"/>
<line y2="2485.1001" x2="3671.8999" y1="2659.8999" x1="3891"/>
<line y2="2836.2" x2="3279" y1="2659.8999" x1="3891"/>
<line y2="3104.8999" x2="3493.3" y1="2659.8999" x1="3891"/>
<line y2="2763.8" x2="3279" y1="2659.8999" x1="3891"/>
<line y2="3052.5" x2="3398.6001" y1="2906.7" x1="3295.1001"/>
<line y2="2763.8" x2="3921" y1="2906.7" x1="3295.1001"/>
<line y2="2495.1001" x2="3493.3" y1="2906.7" x1="3295.1001"/>
<line y2="3121" x2="3636.2" y1="2906.7" x1="3295.1001"/>
<line y2="2571.6001" x2="3371.6001" y1="2509" x1="3459.8999"/>
<line y2="2628.2" x2="3326.5" y1="2509" x1="3459.8999"/>
<line y2="2728.1001" x2="3914.8999" y1="2509" x1="3459.8999"/>
<line y2="2526.5" x2="3428.2" y1="2509" x1="3459.8999"/>
<line y2="3001.3999" x2="3852.5" y1="2509" x1="3740.1001"/>
<line y2="2659.8999" x2="3309" y1="2509" x1="3740.1001"/>
<line y2="2800" x2="3923" y1="2509" x1="3740.1001"/>
<line y2="2495.1001" x2="3706.7" y1="2509" x1="3740.1001"/>
<line y2="2800" x2="3923" y1="3052.5" x1="3801.3999"/>
<line y2="2728.1001" x2="3914.8999" y1="3052.5" x1="3801.3999"/>
<line y2="2495.1001" x2="3493.3" y1="3052.5" x1="3801.3999"/>
<line y2="2763.8" x2="3279" y1="3052.5" x1="3801.3999"/>
<line y2="2659.8999" x2="3309" y1="2526.5" x1="3771.8"/>
<line y2="2628.2" x2="3326.5" y1="2526.5" x1="3771.8"/>
<line y2="3104.8999" x2="3493.3" y1="2526.5" x1="3771.8"/>
<line y2="3121" x2="3636.2" y1="2526.5" x1="3771.8"/>
<line y2="3001.3999" x2="3852.5" y1="3104.8999" x1="3706.7"/>
<line y2="2763.8" x2="3921" y1="3104.8999" x1="3706.7"/>
<line y2="2836.2" x2="3279" y1="3104.8999" x1="3706.7"/>
<line y2="2526.5" x2="3428.2" y1="3104.8999" x1="3706.7"/>
<line y2="2571.6001" x2="3371.6001" y1="3073.5" x1="3428.2"/>
<line y2="3052.5" x2="3398.6001" y1="3073.5" x1="3428.2"/>
<line y2="2485.1001" x2="3671.8999" y1="3073.5" x1="3428.2"/>
<line y2="2495.1001" x2="3706.7" y1="3073.5" x1="3428.2"/>
<line y2="2495.1001" x2="3706.7" y1="3091" x1="3459.8999"/>
<line y2="2526.5" x2="3428.2" y1="3091" x1="3459.8999"/>
<line y2="3121" x2="3636.2" y1="3091" x1="3459.8999"/>
<line y2="2763.8" x2="3279" y1="3091" x1="3459.8999"/>
<line y2="3001.3999" x2="3852.5" y1="2971.8" x1="3873.5"/>
<line y2="2571.6001" x2="3371.6001" y1="2971.8" x1="3873.5"/>
<line y2="3104.8999" x2="3493.3" y1="2971.8" x1="3873.5"/>
<line y2="2495.1001" x2="3493.3" y1="2971.8" x1="3873.5"/>
<line y2="3052.5" x2="3398.6001" y1="2693.3" x1="3904.8999"/>
<line y2="2659.8999" x2="3309" y1="2693.3" x1="3904.8999"/>
<line y2="2728.1001" x2="3914.8999" y1="2693.3" x1="3904.8999"/>
<line y2="2836.2" x2="3279" y1="2693.3" x1="3904.8999"/>
<line y2="2763.8" x2="3921" y1="3028.3999" x1="3371.6001"/>
<line y2="2628.2" x2="3326.5" y1="3028.3999" x1="3371.6001"/>
<line y2="2800" x2="3923" y1="3028.3999" x1="3371.6001"/>
<line y2="2485.1001" x2="3671.8999" y1="3028.3999" x1="3371.6001"/>
</g>
<g style="fill:blue; stroke:black; stroke-width: 1; " transform="translate(-2328.57, -2344.78)">
<circle r="6" cy="2598.6001" cx="3347.5"/>
<circle r="6" cy="2477" cx="3600"/>
<circle r="6" cy="3001.3999" cx="3347.5"/>
<circle r="6" cy="2628.2" cx="3873.5"/>
<circle r="6" cy="2598.6001" cx="3852.5"/>
<circle r="6" cy="3091" cx="3740.1001"/>
<circle r="6" cy="3073.5" cx="3771.8"/>
<circle r="6" cy="2693.3" cx="3295.1001"/>
<circle r="6" cy="3121" cx="3563.8"/>
<circle r="6" cy="3114.8999" cx="3671.8999"/>
<circle r="6" cy="2547.5" cx="3398.6001"/>
<circle r="6" cy="2906.7" cx="3904.8999"/>
<circle r="6" cy="2571.6001" cx="3828.3999"/>
<circle r="6" cy="2940.1001" cx="3309"/>
<circle r="6" cy="2728.1001" cx="3285.1001"/>
<circle r="6" cy="2547.5" cx="3801.3999"/>
<circle r="6" cy="2871.8999" cx="3285.1001"/>
<circle r="6" cy="2871.8999" cx="3914.8999"/>
<circle r="6" cy="2800" cx="3277"/>
<circle r="6" cy="2485.1001" cx="3528.1001"/>
<circle r="6" cy="3123" cx="3600"/>
<circle r="6" cy="3028.3999" cx="3828.3999"/>
<circle r="6" cy="2971.8" cx="3326.5"/>
<circle r="6" cy="3114.8999" cx="3528.1001"/>
<circle r="6" cy="2479" cx="3636.2"/>
<circle r="6" cy="2479" cx="3563.8"/>
<circle r="6" cy="2836.2" cx="3921"/>
<circle r="6" cy="2940.1001" cx="3891"/>
<circle r="6" cy="2659.8999" cx="3891"/>
<circle r="6" cy="2906.7" cx="3295.1001"/>
<circle r="6" cy="2509" cx="3459.8999"/>
<circle r="6" cy="2509" cx="3740.1001"/>
<circle r="6" cy="3052.5" cx="3801.3999"/>
<circle r="6" cy="2526.5" cx="3771.8"/>
<circle r="6" cy="3104.8999" cx="3706.7"/>
<circle r="6" cy="3073.5" cx="3428.2"/>
<circle r="6" cy="3091" cx="3459.8999"/>
<circle r="6" cy="2971.8" cx="3873.5"/>
<circle r="6" cy="2693.3" cx="3904.8999"/>
<circle r="6" cy="3028.3999" cx="3371.6001"/>
<circle r="6" cy="3001.3999" cx="3852.5"/>
<circle r="6" cy="2571.6001" cx="3371.6001"/>
<circle r="6" cy="3052.5" cx="3398.6001"/>
<circle r="6" cy="2763.8" cx="3921"/>
<circle r="6" cy="2659.8999" cx="3309"/>
<circle r="6" cy="2628.2" cx="3326.5"/>
<circle r="6" cy="2800" cx="3923"/>
<circle r="6" cy="2728.1001" cx="3914.8999"/>
<circle r="6" cy="2485.1001" cx="3671.8999"/>
<circle r="6" cy="2836.2" cx="3279"/>
<circle r="6" cy="2495.1001" cx="3706.7"/>
<circle r="6" cy="2526.5" cx="3428.2"/>
<circle r="6" cy="3104.8999" cx="3493.3"/>
<circle r="6" cy="2495.1001" cx="3493.3"/>
<circle r="6" cy="3121" cx="3636.2"/>
<circle r="6" cy="2763.8" cx="3279"/>
</g> </g>
</g></svg>