<?xml version="1.0" encoding="UTF-8" standalone="no"?>
<svg xmlns:dc="http://purl.org/dc/elements/1.1/" xmlns:cc="http://creativecommons.org/ns#" xmlns:rdf="http://www.w3.org/1999/02/22-rdf-syntax-ns#" xmlns:svg="http://www.w3.org/2000/svg" xmlns="http://www.w3.org/2000/svg" width="1600" height="1600" version="1.1"> 

<g transform="translate(0, 547.638)"> 
<g transform="translate(-368.571, 288.571)"> 
<g style="stroke:black; stroke-width: 1; " transform="translate(-3631.43, -5636.21)"> 
<line y2="6036.2002" x2="4721" y1="5798.6001" x1="4147.5"/>
<line y2="6314.8999" x2="4471.8999" y1="5798.6001" x1="4147.5"/>
<line y2="6252.5" x2="4601.3999" y1="5798.6001" x1="4147.5"/>
<line y2="6321" x2="4363.7998" y1="5798.6001" x1="4147.5"/>
<line y2="6036.2002" x2="4079" y1="5798.6001" x1="4147.5"/>
<line y2="6273.5" x2="4228.2002" y1="5798.6001" x1="4147.5"/>
<line y2="6321" x2="4436.2002" y1="5798.6001" x1="4147.5"/>
<line y2="5928.1001" x2="4714.8999" y1="5798.6001" x1="4147.5"/>
<line y2="6304.8999" x2="4506.7002" y1="5798.6001" x1="4147.5"/>
<line y2="5828.2002" x2="4673.5" y1="5798.6001" x1="4147.5"/>
<line y2="6201.3999" x2="4652.5" y1="5677" x1="4400"/>
<line y2="6252.5" x2="4198.6001" y1="5677" x1="4400"/>
<line y2="6228.3999" x2="4171.6001" y1="5677" x1="4400"/>
<line y2="6171.7998" x2="4126.5" y1="5677" x1="4400"/>
<line y2="6036.2002" x2="4079" y1="5677" x1="4400"/>
<line y2="6273.5" x2="4228.2002" y1="5677" x1="4400"/>
<line y2="6314.8999" x2="4328.1001" y1="5677" x1="4400"/>
<line y2="6273.5" x2="4571.7998" y1="5677" x1="4400"/>
<line y2="6106.7002" x2="4704.8999" y1="5677" x1="4400"/>
<line y2="5771.6001" x2="4171.6001" y1="5677" x1="4400"/>
<line y2="6036.2002" x2="4721" y1="5859.8999" x1="4691"/>
<line y2="6314.8999" x2="4471.8999" y1="5859.8999" x1="4691"/>
<line y2="6228.3999" x2="4171.6001" y1="5859.8999" x1="4691"/>
<line y2="6171.7998" x2="4126.5" y1="5859.8999" x1="4691"/>
<line y2="6291" x2="4259.8999" y1="5859.8999" x1="4691"/>
<line y2="5679" x2="4436.2002" y1="5859.8999" x1="4691"/>
<line y2="5747.5" x2="4198.6001" y1="5859.8999" x1="4691"/>
<line y2="5695.1001" x2="4506.7002" y1="5859.8999" x1="4691"/>
<line y2="5893.2998" x2="4095.1001" y1="5859.8999" x1="4691"/>
<line y2="5771.6001" x2="4628.3999" y1="5859.8999" x1="4691"/>
<line y2="6201.3999" x2="4652.5" y1="5963.7998" x1="4721"/>
<line y2="6252.5" x2="4198.6001" y1="5963.7998" x1="4721"/>
<line y2="6252.5" x2="4601.3999" y1="5963.7998" x1="4721"/>
<line y2="6321" x2="4363.7998" y1="5963.7998" x1="4721"/>
<line y2="6291" x2="4259.8999" y1="5963.7998" x1="4721"/>
<line y2="5679" x2="4436.2002" y1="5963.7998" x1="4721"/>
<line y2="5695.1001" x2="4293.2998" y1="5963.7998" x1="4721"/>
<line y2="5928.1001" x2="4085.1001" y1="5963.7998" x1="4721"/>
<line y2="6000" x2="4077" y1="5963.7998" x1="4721"/>
<line y2="6000" x2="4723" y1="5963.7998" x1="4721"/>
<line y2="6140.1001" x2="4109" y1="5798.6001" x1="4652.5"/>
<line y2="5963.7998" x2="4079" y1="5798.6001" x1="4652.5"/>
<line y2="6304.8999" x2="4293.2998" y1="5798.6001" x1="4652.5"/>
<line y2="6323" x2="4400" y1="5798.6001" x1="4652.5"/>
<line y2="6036.2002" x2="4079" y1="5798.6001" x1="4652.5"/>
<line y2="5679" x2="4436.2002" y1="5798.6001" x1="4652.5"/>
<line y2="6000" x2="4077" y1="5798.6001" x1="4652.5"/>
<line y2="5893.2998" x2="4095.1001" y1="5798.6001" x1="4652.5"/>
<line y2="6304.8999" x2="4506.7002" y1="5798.6001" x1="4652.5"/>
<line y2="5771.6001" x2="4171.6001" y1="5798.6001" x1="4652.5"/>
<line y2="5685.1001" x2="4471.8999" y1="6291" x1="4540.1001"/>
<line y2="5685.1001" x2="4328.1001" y1="6291" x1="4540.1001"/>
<line y2="5726.5" x2="4571.7998" y1="6291" x1="4540.1001"/>
<line y2="5828.2002" x2="4126.5" y1="6291" x1="4540.1001"/>
<line y2="6036.2002" x2="4079" y1="6291" x1="4540.1001"/>
<line y2="5679" x2="4436.2002" y1="6291" x1="4540.1001"/>
<line y2="5928.1001" x2="4085.1001" y1="6291" x1="4540.1001"/>
<line y2="5695.1001" x2="4506.7002" y1="6291" x1="4540.1001"/>
<line y2="6106.7002" x2="4704.8999" y1="6291" x1="4540.1001"/>
<line y2="5828.2002" x2="4673.5" y1="6291" x1="4540.1001"/>
<line y2="5685.1001" x2="4471.8999" y1="5679" x1="4363.7998"/>
<line y2="5685.1001" x2="4328.1001" y1="5679" x1="4363.7998"/>
<line y2="6304.8999" x2="4293.2998" y1="5679" x1="4363.7998"/>
<line y2="6323" x2="4400" y1="5679" x1="4363.7998"/>
<line y2="6291" x2="4259.8999" y1="5679" x1="4363.7998"/>
<line y2="6273.5" x2="4228.2002" y1="5679" x1="4363.7998"/>
<line y2="5747.5" x2="4198.6001" y1="5679" x1="4363.7998"/>
<line y2="6273.5" x2="4571.7998" y1="5679" x1="4363.7998"/>
<line y2="5928.1001" x2="4714.8999" y1="5679" x1="4363.7998"/>
<line y2="6000" x2="4723" y1="5679" x1="4363.7998"/>
<line y2="6140.1001" x2="4109" y1="5747.5" x1="4601.3999"/>
<line y2="5963.7998" x2="4079" y1="5747.5" x1="4601.3999"/>
<line y2="5726.5" x2="4571.7998" y1="5747.5" x1="4601.3999"/>
<line y2="5828.2002" x2="4126.5" y1="5747.5" x1="4601.3999"/>
<line y2="6291" x2="4259.8999" y1="5747.5" x1="4601.3999"/>
<line y2="6273.5" x2="4228.2002" y1="5747.5" x1="4601.3999"/>
<line y2="5695.1001" x2="4293.2998" y1="5747.5" x1="4601.3999"/>
<line y2="6314.8999" x2="4328.1001" y1="5747.5" x1="4601.3999"/>
<line y2="6321" x2="4436.2002" y1="5747.5" x1="4601.3999"/>
<line y2="5771.6001" x2="4628.3999" y1="5747.5" x1="4601.3999"/>
<line y2="6071.8999" x2="4714.8999" y1="5859.8999" x1="4109"/>
<line y2="5893.2998" x2="4704.8999" y1="5859.8999" x1="4109"/>
<line y2="6304.8999" x2="4293.2998" y1="5859.8999" x1="4109"/>
<line y2="5828.2002" x2="4126.5" y1="5859.8999" x1="4109"/>
<line y2="6252.5" x2="4601.3999" y1="5859.8999" x1="4109"/>
<line y2="6171.7998" x2="4126.5" y1="5859.8999" x1="4109"/>
<line y2="6321" x2="4436.2002" y1="5859.8999" x1="4109"/>
<line y2="5893.2998" x2="4095.1001" y1="5859.8999" x1="4109"/>
<line y2="6106.7002" x2="4704.8999" y1="5859.8999" x1="4109"/>
<line y2="6000" x2="4723" y1="5859.8999" x1="4109"/>
<line y2="6071.8999" x2="4714.8999" y1="6201.3999" x1="4147.5"/>
<line y2="5893.2998" x2="4704.8999" y1="6201.3999" x1="4147.5"/>
<line y2="5726.5" x2="4571.7998" y1="6201.3999" x1="4147.5"/>
<line y2="6323" x2="4400" y1="6201.3999" x1="4147.5"/>
<line y2="6228.3999" x2="4171.6001" y1="6201.3999" x1="4147.5"/>
<line y2="6321" x2="4363.7998" y1="6201.3999" x1="4147.5"/>
<line y2="5928.1001" x2="4085.1001" y1="6201.3999" x1="4147.5"/>
<line y2="6273.5" x2="4571.7998" y1="6201.3999" x1="4147.5"/>
<line y2="6304.8999" x2="4506.7002" y1="6201.3999" x1="4147.5"/>
<line y2="5771.6001" x2="4628.3999" y1="6201.3999" x1="4147.5"/>
<line y2="6071.8999" x2="4085.1001" y1="5709" x1="4540.1001"/>
<line y2="5709" x2="4259.8999" y1="5709" x1="4540.1001"/>
<line y2="6304.8999" x2="4293.2998" y1="5709" x1="4540.1001"/>
<line y2="5828.2002" x2="4126.5" y1="5709" x1="4540.1001"/>
<line y2="6228.3999" x2="4171.6001" y1="5709" x1="4540.1001"/>
<line y2="6321" x2="4363.7998" y1="5709" x1="4540.1001"/>
<line y2="5695.1001" x2="4293.2998" y1="5709" x1="4540.1001"/>
<line y2="5695.1001" x2="4506.7002" y1="5709" x1="4540.1001"/>
<line y2="5928.1001" x2="4714.8999" y1="5709" x1="4540.1001"/>
<line y2="5771.6001" x2="4171.6001" y1="5709" x1="4540.1001"/>
<line y2="6071.8999" x2="4085.1001" y1="6228.3999" x1="4628.3999"/>
<line y2="5709" x2="4259.8999" y1="6228.3999" x1="4628.3999"/>
<line y2="5726.5" x2="4571.7998" y1="6228.3999" x1="4628.3999"/>
<line y2="6323" x2="4400" y1="6228.3999" x1="4628.3999"/>
<line y2="6252.5" x2="4601.3999" y1="6228.3999" x1="4628.3999"/>
<line y2="6171.7998" x2="4126.5" y1="6228.3999" x1="4628.3999"/>
<line y2="5747.5" x2="4198.6001" y1="6228.3999" x1="4628.3999"/>
<line y2="6314.8999" x2="4328.1001" y1="6228.3999" x1="4628.3999"/>
<line y2="6000" x2="4077" y1="6228.3999" x1="4628.3999"/>
<line y2="5828.2002" x2="4673.5" y1="6228.3999" x1="4628.3999"/>
<line y2="6071.8999" x2="4714.8999" y1="6106.7002" x1="4095.1001"/>
<line y2="5709" x2="4259.8999" y1="6106.7002" x1="4095.1001"/>
<line y2="6140.1001" x2="4109" y1="6106.7002" x1="4095.1001"/>
<line y2="5685.1001" x2="4328.1001" y1="6106.7002" x1="4095.1001"/>
<line y2="6036.2002" x2="4721" y1="6106.7002" x1="4095.1001"/>
<line y2="6252.5" x2="4198.6001" y1="6106.7002" x1="4095.1001"/>
<line y2="6000" x2="4077" y1="6106.7002" x1="4095.1001"/>
<line y2="5928.1001" x2="4714.8999" y1="6106.7002" x1="4095.1001"/>
<line y2="6106.7002" x2="4704.8999" y1="6106.7002" x1="4095.1001"/>
<line y2="5771.6001" x2="4628.3999" y1="6106.7002" x1="4095.1001"/>
<line y2="6071.8999" x2="4714.8999" y1="5726.5" x1="4228.2002"/>
<line y2="5709" x2="4259.8999" y1="5726.5" x1="4228.2002"/>
<line y2="5685.1001" x2="4471.8999" y1="5726.5" x1="4228.2002"/>
<line y2="5963.7998" x2="4079" y1="5726.5" x1="4228.2002"/>
<line y2="6201.3999" x2="4652.5" y1="5726.5" x1="4228.2002"/>
<line y2="6314.8999" x2="4471.8999" y1="5726.5" x1="4228.2002"/>
<line y2="6314.8999" x2="4328.1001" y1="5726.5" x1="4228.2002"/>
<line y2="5695.1001" x2="4506.7002" y1="5726.5" x1="4228.2002"/>
<line y2="6304.8999" x2="4506.7002" y1="5726.5" x1="4228.2002"/>
<line y2="6000" x2="4723" y1="5726.5" x1="4228.2002"/>
<line y2="6071.8999" x2="4085.1001" y1="6140.1001" x1="4691"/>
<line y2="5893.2998" x2="4704.8999" y1="6140.1001" x1="4691"/>
<line y2="5685.1001" x2="4471.8999" y1="6140.1001" x1="4691"/>
<line y2="5963.7998" x2="4079" y1="6140.1001" x1="4691"/>
<line y2="6036.2002" x2="4721" y1="6140.1001" x1="4691"/>
<line y2="6252.5" x2="4198.6001" y1="6140.1001" x1="4691"/>
<line y2="5695.1001" x2="4293.2998" y1="6140.1001" x1="4691"/>
<line y2="6273.5" x2="4571.7998" y1="6140.1001" x1="4691"/>
<line y2="5893.2998" x2="4095.1001" y1="6140.1001" x1="4691"/>
<line y2="5828.2002" x2="4673.5" y1="6140.1001" x1="4691"/>
<line y2="6071.8999" x2="4085.1001" y1="6171.7998" x1="4673.5"/>
<line y2="5893.2998" x2="4704.8999" y1="6171.7998" x1="4673.5"/>
<line y2="6140.1001" x2="4109" y1="6171.7998" x1="4673.5"/>
<line y2="5685.1001" x2="4328.1001" y1="6171.7998" x1="4673.5"/>
<line y2="6201.3999" x2="4652.5" y1="6171.7998" x1="4673.5"/>
<line y2="6314.8999" x2="4471.8999" y1="6171.7998" x1="4673.5"/>
<line y2="5747.5" x2="4198.6001" y1="6171.7998" x1="4673.5"/>
<line y2="5928.1001" x2="4085.1001" y1="6171.7998" x1="4673.5"/>
<line y2="6321" x2="4436.2002" y1="6171.7998" x1="4673.5"/>
<line y2="5771.6001" x2="4171.6001" y1="6171.7998" x1="4673.5"/>
<line y2="6273.5" x2="4228.2002" y1="6071.8999" x1="4085.1001"/>
<line y2="5679" x2="4436.2002" y1="6071.8999" x1="4085.1001"/>
<line y2="6304.8999" x2="4506.7002" y1="6071.8999" x1="4085.1001"/>
<line y2="6106.7002" x2="4704.8999" y1="6071.8999" x1="4085.1001"/>
<line y2="5771.6001" x2="4628.3999" y1="6071.8999" x1="4085.1001"/>
<line y2="6000" x2="4723" y1="6071.8999" x1="4085.1001"/>
<line y2="6273.5" x2="4228.2002" y1="6071.8999" x1="4714.8999"/>
<line y2="5679" x2="4436.2002" y1="6071.8999" x1="4714.8999"/>
<line y2="5747.5" x2="4198.6001" y1="6071.8999" x1="4714.8999"/>
<line y2="5695.1001" x2="4293.2998" y1="6071.8999" x1="4714.8999"/>
<line y2="5771.6001" x2="4171.6001" y1="6071.8999" x1="4714.8999"/>
<line y2="5828.2002" x2="4673.5" y1="6071.8999" x1="4714.8999"/>
<line y2="6291" x2="4259.8999" y1="5709" x1="4259.8999"/>
<line y2="6036.2002" x2="4079" y1="5709" x1="4259.8999"/>
<line y2="5928.1001" x2="4085.1001" y1="5709" x1="4259.8999"/>
<line y2="6273.5" x2="4571.7998" y1="5709" x1="4259.8999"/>
<line y2="6321" x2="4436.2002" y1="5709" x1="4259.8999"/>
<line y2="5893.2998" x2="4095.1001" y1="5709" x1="4259.8999"/>
<line y2="6291" x2="4259.8999" y1="5893.2998" x1="4704.8999"/>
<line y2="6036.2002" x2="4079" y1="5893.2998" x1="4704.8999"/>
<line y2="6314.8999" x2="4328.1001" y1="5893.2998" x1="4704.8999"/>
<line y2="5695.1001" x2="4506.7002" y1="5893.2998" x1="4704.8999"/>
<line y2="6000" x2="4077" y1="5893.2998" x1="4704.8999"/>
<line y2="5928.1001" x2="4714.8999" y1="5893.2998" x1="4704.8999"/>
<line y2="6321" x2="4363.7998" y1="5685.1001" x1="4471.8999"/>
<line y2="6171.7998" x2="4126.5" y1="5685.1001" x1="4471.8999"/>
<line y2="6321" x2="4436.2002" y1="5685.1001" x1="4471.8999"/>
<line y2="6000" x2="4077" y1="5685.1001" x1="4471.8999"/>
<line y2="5771.6001" x2="4628.3999" y1="5685.1001" x1="4471.8999"/>
<line y2="5771.6001" x2="4171.6001" y1="5685.1001" x1="4471.8999"/>
<line y2="6321" x2="4363.7998" y1="6140.1001" x1="4109"/>
<line y2="6171.7998" x2="4126.5" y1="6140.1001" x1="4109"/>
<line y2="5695.1001" x2="4506.7002" y1="6140.1001" x1="4109"/>
<line y2="6273.5" x2="4571.7998" y1="6140.1001" x1="4109"/>
<line y2="6000" x2="4723" y1="6140.1001" x1="4109"/>
<line y2="5828.2002" x2="4673.5" y1="6140.1001" x1="4109"/>
<line y2="6228.3999" x2="4171.6001" y1="5685.1001" x1="4328.1001"/>
<line y2="6252.5" x2="4601.3999" y1="5685.1001" x1="4328.1001"/>
<line y2="5695.1001" x2="4293.2998" y1="5685.1001" x1="4328.1001"/>
<line y2="6314.8999" x2="4328.1001" y1="5685.1001" x1="4328.1001"/>
<line y2="5893.2998" x2="4095.1001" y1="5685.1001" x1="4328.1001"/>
<line y2="6304.8999" x2="4506.7002" y1="5685.1001" x1="4328.1001"/>
<line y2="6228.3999" x2="4171.6001" y1="5963.7998" x1="4079"/>
<line y2="6252.5" x2="4601.3999" y1="5963.7998" x1="4079"/>
<line y2="5747.5" x2="4198.6001" y1="5963.7998" x1="4079"/>
<line y2="5928.1001" x2="4085.1001" y1="5963.7998" x1="4079"/>
<line y2="5928.1001" x2="4714.8999" y1="5963.7998" x1="4079"/>
<line y2="6106.7002" x2="4704.8999" y1="5963.7998" x1="4079"/>
<line y2="6314.8999" x2="4471.8999" y1="5726.5" x1="4571.7998"/>
<line y2="6252.5" x2="4198.6001" y1="5726.5" x1="4571.7998"/>
<line y2="5928.1001" x2="4714.8999" y1="5726.5" x1="4571.7998"/>
<line y2="5893.2998" x2="4095.1001" y1="5726.5" x1="4571.7998"/>
<line y2="6000" x2="4723" y1="5726.5" x1="4571.7998"/>
<line y2="5771.6001" x2="4171.6001" y1="5726.5" x1="4571.7998"/>
<line y2="6314.8999" x2="4471.8999" y1="6304.8999" x1="4293.2998"/>
<line y2="6252.5" x2="4198.6001" y1="6304.8999" x1="4293.2998"/>
<line y2="5928.1001" x2="4085.1001" y1="6304.8999" x1="4293.2998"/>
<line y2="6314.8999" x2="4328.1001" y1="6304.8999" x1="4293.2998"/>
<line y2="5771.6001" x2="4628.3999" y1="6304.8999" x1="4293.2998"/>
<line y2="5828.2002" x2="4673.5" y1="6304.8999" x1="4293.2998"/>
<line y2="6201.3999" x2="4652.5" y1="5828.2002" x1="4126.5"/>
<line y2="6036.2002" x2="4721" y1="5828.2002" x1="4126.5"/>
<line y2="5747.5" x2="4198.6001" y1="5828.2002" x1="4126.5"/>
<line y2="6273.5" x2="4571.7998" y1="5828.2002" x1="4126.5"/>
<line y2="6000" x2="4077" y1="5828.2002" x1="4126.5"/>
<line y2="6304.8999" x2="4506.7002" y1="5828.2002" x1="4126.5"/>
<line y2="6201.3999" x2="4652.5" y1="6323" x1="4400"/>
<line y2="6036.2002" x2="4721" y1="6323" x1="4400"/>
<line y2="5695.1001" x2="4293.2998" y1="6323" x1="4400"/>
<line y2="5695.1001" x2="4506.7002" y1="6323" x1="4400"/>
<line y2="6321" x2="4436.2002" y1="6323" x1="4400"/>
<line y2="6106.7002" x2="4704.8999" y1="6323" x1="4400"/>
<line y2="5928.1001" x2="4714.8999" y1="6201.3999" x1="4652.5"/>
<line y2="5893.2998" x2="4095.1001" y1="6201.3999" x1="4652.5"/>
<line y2="5771.6001" x2="4628.3999" y1="6201.3999" x1="4652.5"/>
<line y2="5828.2002" x2="4673.5" y1="6201.3999" x1="4652.5"/>
<line y2="5928.1001" x2="4085.1001" y1="6036.2002" x1="4721"/>
<line y2="6314.8999" x2="4328.1001" y1="6036.2002" x1="4721"/>
<line y2="6000" x2="4723" y1="6036.2002" x1="4721"/>
<line y2="5771.6001" x2="4171.6001" y1="6036.2002" x1="4721"/>
<line y2="5695.1001" x2="4293.2998" y1="6314.8999" x1="4471.8999"/>
<line y2="6273.5" x2="4571.7998" y1="6314.8999" x1="4471.8999"/>
<line y2="6000" x2="4077" y1="6314.8999" x1="4471.8999"/>
<line y2="6106.7002" x2="4704.8999" y1="6314.8999" x1="4471.8999"/>
<line y2="5747.5" x2="4198.6001" y1="6252.5" x1="4198.6001"/>
<line y2="5695.1001" x2="4506.7002" y1="6252.5" x1="4198.6001"/>
<line y2="6321" x2="4436.2002" y1="6252.5" x1="4198.6001"/>
<line y2="6304.8999" x2="4506.7002" y1="6252.5" x1="4198.6001"/>
<line y2="6321" x2="4436.2002" y1="6228.3999" x1="4171.6001"/>
<line y2="6000" x2="4077" y1="6228.3999" x1="4171.6001"/>
<line y2="6000" x2="4723" y1="6228.3999" x1="4171.6001"/>
<line y2="5828.2002" x2="4673.5" y1="6228.3999" x1="4171.6001"/>
<line y2="5695.1001" x2="4506.7002" y1="6252.5" x1="4601.3999"/>
<line y2="6273.5" x2="4571.7998" y1="6252.5" x1="4601.3999"/>
<line y2="5771.6001" x2="4628.3999" y1="6252.5" x1="4601.3999"/>
<line y2="5771.6001" x2="4171.6001" y1="6252.5" x1="4601.3999"/>
<line y2="5747.5" x2="4198.6001" y1="6321" x1="4363.7998"/>
<line y2="6314.8999" x2="4328.1001" y1="6321" x1="4363.7998"/>
<line y2="5893.2998" x2="4095.1001" y1="6321" x1="4363.7998"/>
<line y2="6106.7002" x2="4704.8999" y1="6321" x1="4363.7998"/>
<line y2="5695.1001" x2="4293.2998" y1="6171.7998" x1="4126.5"/>
<line y2="5928.1001" x2="4085.1001" y1="6171.7998" x1="4126.5"/>
<line y2="5928.1001" x2="4714.8999" y1="6171.7998" x1="4126.5"/>
<line y2="6304.8999" x2="4506.7002" y1="6171.7998" x1="4126.5"/>
<line y2="6304.8999" x2="4506.7002" y1="6291" x1="4259.8999"/>
<line y2="6106.7002" x2="4704.8999" y1="6291" x1="4259.8999"/>
<line y2="5771.6001" x2="4171.6001" y1="6291" x1="4259.8999"/>
<line y2="5828.2002" x2="4673.5" y1="6291" x1="4259.8999"/>
<line y2="5747.5" x2="4198.6001" y1="6036.2002" x1="4079"/>
<line y2="5695.1001" x2="4293.2998" y1="6036.2002" x1="4079"/>
<line y2="5771.6001" x2="4628.3999" y1="6036.2002" x1="4079"/>
<line y2="6000" x2="4723" y1="6036.2002" x1="4079"/>
<line y2="5928.1001" x2="4085.1001" y1="6273.5" x1="4228.2002"/>
<line y2="5695.1001" x2="4506.7002" y1="6273.5" x1="4228.2002"/>
<line y2="6000" x2="4077" y1="6273.5" x1="4228.2002"/>
<line y2="5893.2998" x2="4095.1001" y1="6273.5" x1="4228.2002"/>
<line y2="6314.8999" x2="4328.1001" y1="5679" x1="4436.2002"/>
<line y2="6273.5" x2="4571.7998" y1="5679" x1="4436.2002"/>
<line y2="6321" x2="4436.2002" y1="5679" x1="4436.2002"/>
<line y2="5928.1001" x2="4714.8999" y1="5679" x1="4436.2002"/>
</g> 
<g style="fill:blue; stroke:black; stroke-width: 1; " transform="translate(-3631.43, -5636.21)"> 
<circle r="6" cy="5798.6001" cx="4147.5"/>
<circle r="6" cy="5677" cx="4400"/>
<circle r="6" cy="5859.8999" cx="4691"/>
<circle r="6" cy="5963.7998" cx="4721"/>
<circle r="6" cy="5798.6001" cx="4652.5"/>
<circle r="6" cy="6291" cx="4540.1001"/>
<circle r="6" cy="5679" cx="4363.7998"/>
<circle r="6" cy="5747.5" cx="4601.3999"/>
<circle r="6" cy="5859.8999" cx="4109"/>
<circle r="6" cy="6201.3999" cx="4147.5"/>
<circle r="6" cy="5709" cx="4540.1001"/>
<circle r="6" cy="6228.3999" cx="4628.3999"/>
<circle r="6" cy="6106.7002" cx="4095.1001"/>
<circle r="6" cy="5726.5" cx="4228.2002"/>
<circle r="6" cy="6140.1001" cx="4691"/>
<circle r="6" cy="6171.7998" cx="4673.5"/>
<circle r="6" cy="6071.8999" cx="4085.1001"/>
<circle r="6" cy="6071.8999" cx="4714.8999"/>
<circle r="6" cy="5709" cx="4259.8999"/>
<circle r="6" cy="5893.2998" cx="4704.8999"/>
<circle r="6" cy="5685.1001" cx="4471.8999"/>
<circle r="6" cy="6140.1001" cx="4109"/>
<circle r="6" cy="5685.1001" cx="4328.1001"/>
<circle r="6" cy="5963.7998" cx="4079"/>
<circle r="6" cy="5726.5" cx="4571.7998"/>
<circle r="6" cy="6304.8999" cx="4293.2998"/>
<circle r="6" cy="5828.2002" cx="4126.5"/>
<circle r="6" cy="6323" cx="4400"/>
<circle r="6" cy="6201.3999" cx="4652.5"/>
<circle r="6" cy="6036.2002" cx="4721"/>
<circle r="6" cy="6314.8999" cx="4471.8999"/>
<circle r="6" cy="6252.5" cx="4198.6001"/>
<circle r="6" cy="6228.3999" cx="4171.6001"/>
<circle r="6" cy="6252.5" cx="4601.3999"/>
<circle r="6" cy="6321" cx="4363.7998"/>
<circle r="6" cy="6171.7998" cx="4126.5"/>
<circle r="6" cy="6291" cx="4259.8999"/>
<circle r="6" cy="6036.2002" cx="4079"/>
<circle r="6" cy="6273.5" cx="4228.2002"/>
<circle r="6" cy="5679" cx="4436.2002"/>
<circle r="6" cy="5747.5" cx="4198.6001"/>
<circle r="6" cy="5695.1001" cx="4293.2998"/>
<circle r="6" cy="5928.1001" cx="4085.1001"/>
<circle r="6" cy="6314.8999" cx="4328.1001"/>
<circle r="6" cy="5695.1001" cx="4506.7002"/>
<circle r="6" cy="6273.5" cx="4571.7998"/>
<circle r="6" cy="6321" cx="4436.2002"/>
<circle r="6" cy="6000" cx="4077"/>
<circle r="6" cy="5928.1001" cx="4714.8999"/>
<circle r="6" cy="5893.2998" cx="4095.1001"/>
<circle r="6" cy="6304.8999" cx="4506.7002"/>
<circle r="6" cy="6106.7002" cx="4704.8999"/>
<circle r="6" cy="5771.6001" cx="4628.3999"/>
<circle r="6" cy="6000" cx="4723"/>
<circle r="6" cy="5771.6001" cx="4171.6001"/>
<circle r="6" cy="5828.2002" cx="4673.5"/>
</g> </g> 
</g></svg>