<?xml version="1.0" encoding="UTF-8" standalone="no"?>
<svg xmlns:dc="http://purl.org/dc/elements/1.1/" xmlns:cc="http://creativecommons.org/ns#" xmlns:rdf="http://www.w3.org/1999/02/22-rdf-syntax-ns#" xmlns:svg="http://www.w3.org/2000/svg" xmlns="http://www.w3.org/2000/svg" width="1600" height="1600" version="1.1"><g transform="translate(0, 547.638)">
<g transform="translate(760, -391.429)">
<g style="stroke:black; stroke-width: 1; " transform="translate(-3160, -156.209)"> 
<line y2="506.70001" x2="2495.1001" y1="471.89999" x1="2485.1001"/>
<line y2="400" x2="2477" y1="471.89999" x1="2485.1001"/>
<line y2="328.10001" x2="3114.8999" y1="471.89999" x1="2485.1001"/>
<line y2="540.09998" x2="2509" y1="471.89999" x1="2485.1001"/>
<line y2="704.90002" x2="2906.7" y1="471.89999" x1="2485.1001"/>
<line y2="506.70001" x2="3104.8999" y1="471.89999" x1="2485.1001"/>
<line y2="571.79999" x2="3073.5" y1="471.89999" x1="2485.1001"/>
<line y2="95.099998" x2="2693.3" y1="471.89999" x1="2485.1001"/>
<line y2="228.2" x2="3073.5" y1="471.89999" x1="2485.1001"/>
<line y2="171.60001" x2="2571.6001" y1="471.89999" x1="2485.1001"/>
<line y2="126.5" x2="2971.8" y1="198.60001" x1="2547.5"/>
<line y2="147.5" x2="2598.6001" y1="198.60001" x1="2547.5"/>
<line y2="721" x2="2836.2" y1="198.60001" x1="2547.5"/>
<line y2="259.89999" x2="2509" y1="198.60001" x1="2547.5"/>
<line y2="704.90002" x2="2906.7" y1="198.60001" x1="2547.5"/>
<line y2="506.70001" x2="3104.8999" y1="198.60001" x1="2547.5"/>
<line y2="601.40002" x2="3052.5" y1="198.60001" x1="2547.5"/>
<line y2="228.2" x2="2526.5" y1="198.60001" x1="2547.5"/>
<line y2="79" x2="2836.2" y1="198.60001" x1="2547.5"/>
<line y2="673.5" x2="2628.2" y1="198.60001" x1="2547.5"/>
<line y2="506.70001" x2="2495.1001" y1="714.90002" x1="2871.8999"/>
<line y2="400" x2="2477" y1="714.90002" x1="2871.8999"/>
<line y2="721" x2="2836.2" y1="714.90002" x1="2871.8999"/>
<line y2="259.89999" x2="2509" y1="714.90002" x1="2871.8999"/>
<line y2="691" x2="2940.1001" y1="714.90002" x1="2871.8999"/>
<line y2="436.20001" x2="2479" y1="714.90002" x1="2871.8999"/>
<line y2="259.89999" x2="3091" y1="714.90002" x1="2871.8999"/>
<line y2="126.5" x2="2628.2" y1="714.90002" x1="2871.8999"/>
<line y2="85.099998" x2="2728.1001" y1="714.90002" x1="2871.8999"/>
<line y2="704.90002" x2="2693.3" y1="714.90002" x1="2871.8999"/>
<line y2="126.5" x2="2971.8" y1="652.5" x1="3001.3999"/>
<line y2="147.5" x2="2598.6001" y1="652.5" x1="3001.3999"/>
<line y2="328.10001" x2="3114.8999" y1="652.5" x1="3001.3999"/>
<line y2="540.09998" x2="2509" y1="652.5" x1="3001.3999"/>
<line y2="691" x2="2940.1001" y1="652.5" x1="3001.3999"/>
<line y2="436.20001" x2="2479" y1="652.5" x1="3001.3999"/>
<line y2="147.5" x2="3001.3999" y1="652.5" x1="3001.3999"/>
<line y2="721" x2="2763.8" y1="652.5" x1="3001.3999"/>
<line y2="85.099998" x2="2871.8999" y1="652.5" x1="3001.3999"/>
<line y2="109" x2="2940.1001" y1="652.5" x1="3001.3999"/>
<line y2="723" x2="2800" y1="77" x1="2800"/>
<line y2="628.40002" x2="2571.6001" y1="77" x1="2800"/>
<line y2="79" x2="2763.8" y1="77" x1="2800"/>
<line y2="363.79999" x2="3121" y1="77" x1="2800"/>
<line y2="704.90002" x2="2906.7" y1="77" x1="2800"/>
<line y2="436.20001" x2="2479" y1="77" x1="2800"/>
<line y2="85.099998" x2="2871.8999" y1="77" x1="2800"/>
<line y2="85.099998" x2="2728.1001" y1="77" x1="2800"/>
<line y2="228.2" x2="3073.5" y1="77" x1="2800"/>
<line y2="673.5" x2="2628.2" y1="77" x1="2800"/>
<line y2="540.09998" x2="3091" y1="471.89999" x1="3114.8999"/>
<line y2="328.10001" x2="2485.1001" y1="471.89999" x1="3114.8999"/>
<line y2="400" x2="3123" y1="471.89999" x1="3114.8999"/>
<line y2="436.20001" x2="3121" y1="471.89999" x1="3114.8999"/>
<line y2="704.90002" x2="2906.7" y1="471.89999" x1="3114.8999"/>
<line y2="436.20001" x2="2479" y1="471.89999" x1="3114.8999"/>
<line y2="721" x2="2763.8" y1="471.89999" x1="3114.8999"/>
<line y2="126.5" x2="2628.2" y1="471.89999" x1="3114.8999"/>
<line y2="79" x2="2836.2" y1="471.89999" x1="3114.8999"/>
<line y2="171.60001" x2="2571.6001" y1="471.89999" x1="3114.8999"/>
<line y2="540.09998" x2="3091" y1="673.5" x1="2971.8"/>
<line y2="328.10001" x2="2485.1001" y1="673.5" x1="2971.8"/>
<line y2="79" x2="2763.8" y1="673.5" x1="2971.8"/>
<line y2="363.79999" x2="3121" y1="673.5" x1="2971.8"/>
<line y2="691" x2="2940.1001" y1="673.5" x1="2971.8"/>
<line y2="506.70001" x2="3104.8999" y1="673.5" x1="2971.8"/>
<line y2="259.89999" x2="3091" y1="673.5" x1="2971.8"/>
<line y2="228.2" x2="2526.5" y1="673.5" x1="2971.8"/>
<line y2="95.099998" x2="2693.3" y1="673.5" x1="2971.8"/>
<line y2="109" x2="2940.1001" y1="673.5" x1="2971.8"/>
<line y2="723" x2="2800" y1="109" x1="2659.8999"/>
<line y2="628.40002" x2="2571.6001" y1="109" x1="2659.8999"/>
<line y2="400" x2="3123" y1="109" x1="2659.8999"/>
<line y2="436.20001" x2="3121" y1="109" x1="2659.8999"/>
<line y2="691" x2="2940.1001" y1="109" x1="2659.8999"/>
<line y2="506.70001" x2="3104.8999" y1="109" x1="2659.8999"/>
<line y2="147.5" x2="3001.3999" y1="109" x1="2659.8999"/>
<line y2="601.40002" x2="3052.5" y1="109" x1="2659.8999"/>
<line y2="571.79999" x2="3073.5" y1="109" x1="2659.8999"/>
<line y2="704.90002" x2="2693.3" y1="109" x1="2659.8999"/>
<line y2="198.60001" x2="3052.5" y1="601.40002" x1="2547.5"/>
<line y2="95.099998" x2="2906.7" y1="601.40002" x1="2547.5"/>
<line y2="79" x2="2763.8" y1="601.40002" x1="2547.5"/>
<line y2="436.20001" x2="3121" y1="601.40002" x1="2547.5"/>
<line y2="328.10001" x2="3114.8999" y1="601.40002" x1="2547.5"/>
<line y2="259.89999" x2="2509" y1="601.40002" x1="2547.5"/>
<line y2="571.79999" x2="3073.5" y1="601.40002" x1="2547.5"/>
<line y2="85.099998" x2="2728.1001" y1="601.40002" x1="2547.5"/>
<line y2="79" x2="2836.2" y1="601.40002" x1="2547.5"/>
<line y2="109" x2="2940.1001" y1="601.40002" x1="2547.5"/>
<line y2="198.60001" x2="3052.5" y1="628.40002" x1="3028.3999"/>
<line y2="95.099998" x2="2906.7" y1="628.40002" x1="3028.3999"/>
<line y2="400" x2="3123" y1="628.40002" x1="3028.3999"/>
<line y2="363.79999" x2="3121" y1="628.40002" x1="3028.3999"/>
<line y2="721" x2="2836.2" y1="628.40002" x1="3028.3999"/>
<line y2="540.09998" x2="2509" y1="628.40002" x1="3028.3999"/>
<line y2="721" x2="2763.8" y1="628.40002" x1="3028.3999"/>
<line y2="228.2" x2="2526.5" y1="628.40002" x1="3028.3999"/>
<line y2="228.2" x2="3073.5" y1="628.40002" x1="3028.3999"/>
<line y2="704.90002" x2="2693.3" y1="628.40002" x1="3028.3999"/>
<line y2="691" x2="2659.8999" y1="293.29999" x1="2495.1001"/>
<line y2="571.79999" x2="2526.5" y1="293.29999" x1="2495.1001"/>
<line y2="79" x2="2763.8" y1="293.29999" x1="2495.1001"/>
<line y2="436.20001" x2="3121" y1="293.29999" x1="2495.1001"/>
<line y2="721" x2="2836.2" y1="293.29999" x1="2495.1001"/>
<line y2="540.09998" x2="2509" y1="293.29999" x1="2495.1001"/>
<line y2="147.5" x2="3001.3999" y1="293.29999" x1="2495.1001"/>
<line y2="126.5" x2="2628.2" y1="293.29999" x1="2495.1001"/>
<line y2="95.099998" x2="2693.3" y1="293.29999" x1="2495.1001"/>
<line y2="673.5" x2="2628.2" y1="293.29999" x1="2495.1001"/>
<line y2="691" x2="2659.8999" y1="714.90002" x1="2728.1001"/>
<line y2="571.79999" x2="2526.5" y1="714.90002" x1="2728.1001"/>
<line y2="400" x2="3123" y1="714.90002" x1="2728.1001"/>
<line y2="363.79999" x2="3121" y1="714.90002" x1="2728.1001"/>
<line y2="328.10001" x2="3114.8999" y1="714.90002" x1="2728.1001"/>
<line y2="259.89999" x2="2509" y1="714.90002" x1="2728.1001"/>
<line y2="259.89999" x2="3091" y1="714.90002" x1="2728.1001"/>
<line y2="601.40002" x2="3052.5" y1="714.90002" x1="2728.1001"/>
<line y2="85.099998" x2="2871.8999" y1="714.90002" x1="2728.1001"/>
<line y2="171.60001" x2="2571.6001" y1="714.90002" x1="2728.1001"/>
<line y2="198.60001" x2="3052.5" y1="171.60001" x1="3028.3999"/>
<line y2="571.79999" x2="2526.5" y1="171.60001" x1="3028.3999"/>
<line y2="723" x2="2800" y1="171.60001" x1="3028.3999"/>
<line y2="328.10001" x2="2485.1001" y1="171.60001" x1="3028.3999"/>
<line y2="506.70001" x2="2495.1001" y1="171.60001" x1="3028.3999"/>
<line y2="147.5" x2="2598.6001" y1="171.60001" x1="3028.3999"/>
<line y2="85.099998" x2="2871.8999" y1="171.60001" x1="3028.3999"/>
<line y2="95.099998" x2="2693.3" y1="171.60001" x1="3028.3999"/>
<line y2="79" x2="2836.2" y1="171.60001" x1="3028.3999"/>
<line y2="704.90002" x2="2693.3" y1="171.60001" x1="3028.3999"/>
<line y2="198.60001" x2="3052.5" y1="363.79999" x1="2479"/>
<line y2="571.79999" x2="2526.5" y1="363.79999" x1="2479"/>
<line y2="540.09998" x2="3091" y1="363.79999" x1="2479"/>
<line y2="628.40002" x2="2571.6001" y1="363.79999" x1="2479"/>
<line y2="126.5" x2="2971.8" y1="363.79999" x1="2479"/>
<line y2="400" x2="2477" y1="363.79999" x1="2479"/>
<line y2="601.40002" x2="3052.5" y1="363.79999" x1="2479"/>
<line y2="126.5" x2="2628.2" y1="363.79999" x1="2479"/>
<line y2="228.2" x2="3073.5" y1="363.79999" x1="2479"/>
<line y2="109" x2="2940.1001" y1="363.79999" x1="2479"/>
<line y2="691" x2="2659.8999" y1="652.5" x1="2598.6001"/>
<line y2="95.099998" x2="2906.7" y1="652.5" x1="2598.6001"/>
<line y2="540.09998" x2="3091" y1="652.5" x1="2598.6001"/>
<line y2="628.40002" x2="2571.6001" y1="652.5" x1="2598.6001"/>
<line y2="506.70001" x2="2495.1001" y1="652.5" x1="2598.6001"/>
<line y2="147.5" x2="2598.6001" y1="652.5" x1="2598.6001"/>
<line y2="147.5" x2="3001.3999" y1="652.5" x1="2598.6001"/>
<line y2="228.2" x2="2526.5" y1="652.5" x1="2598.6001"/>
<line y2="85.099998" x2="2728.1001" y1="652.5" x1="2598.6001"/>
<line y2="171.60001" x2="2571.6001" y1="652.5" x1="2598.6001"/>
<line y2="691" x2="2659.8999" y1="293.29999" x1="3104.8999"/>
<line y2="95.099998" x2="2906.7" y1="293.29999" x1="3104.8999"/>
<line y2="723" x2="2800" y1="293.29999" x1="3104.8999"/>
<line y2="328.10001" x2="2485.1001" y1="293.29999" x1="3104.8999"/>
<line y2="126.5" x2="2971.8" y1="293.29999" x1="3104.8999"/>
<line y2="400" x2="2477" y1="293.29999" x1="3104.8999"/>
<line y2="259.89999" x2="3091" y1="293.29999" x1="3104.8999"/>
<line y2="721" x2="2763.8" y1="293.29999" x1="3104.8999"/>
<line y2="571.79999" x2="3073.5" y1="293.29999" x1="3104.8999"/>
<line y2="673.5" x2="2628.2" y1="293.29999" x1="3104.8999"/>
<line y2="506.70001" x2="3104.8999" y1="691" x1="2659.8999"/>
<line y2="436.20001" x2="2479" y1="691" x1="2659.8999"/>
<line y2="228.2" x2="3073.5" y1="691" x1="2659.8999"/>
<line y2="79" x2="2836.2" y1="691" x1="2659.8999"/>
<line y2="704.90002" x2="2693.3" y1="691" x1="2659.8999"/>
<line y2="109" x2="2940.1001" y1="691" x1="2659.8999"/>
<line y2="506.70001" x2="3104.8999" y1="198.60001" x1="3052.5"/>
<line y2="436.20001" x2="2479" y1="198.60001" x1="3052.5"/>
<line y2="259.89999" x2="3091" y1="198.60001" x1="3052.5"/>
<line y2="147.5" x2="3001.3999" y1="198.60001" x1="3052.5"/>
<line y2="673.5" x2="2628.2" y1="198.60001" x1="3052.5"/>
<line y2="171.60001" x2="2571.6001" y1="198.60001" x1="3052.5"/>
<line y2="691" x2="2940.1001" y1="571.79999" x1="2526.5"/>
<line y2="704.90002" x2="2906.7" y1="571.79999" x1="2526.5"/>
<line y2="721" x2="2763.8" y1="571.79999" x1="2526.5"/>
<line y2="228.2" x2="2526.5" y1="571.79999" x1="2526.5"/>
<line y2="571.79999" x2="3073.5" y1="571.79999" x1="2526.5"/>
<line y2="85.099998" x2="2728.1001" y1="571.79999" x1="2526.5"/>
<line y2="691" x2="2940.1001" y1="95.099998" x1="2906.7"/>
<line y2="704.90002" x2="2906.7" y1="95.099998" x1="2906.7"/>
<line y2="601.40002" x2="3052.5" y1="95.099998" x1="2906.7"/>
<line y2="126.5" x2="2628.2" y1="95.099998" x1="2906.7"/>
<line y2="85.099998" x2="2871.8999" y1="95.099998" x1="2906.7"/>
<line y2="95.099998" x2="2693.3" y1="95.099998" x1="2906.7"/>
<line y2="540.09998" x2="2509" y1="540.09998" x1="3091"/>
<line y2="259.89999" x2="2509" y1="540.09998" x1="3091"/>
<line y2="571.79999" x2="3073.5" y1="540.09998" x1="3091"/>
<line y2="85.099998" x2="2871.8999" y1="540.09998" x1="3091"/>
<line y2="704.90002" x2="2693.3" y1="540.09998" x1="3091"/>
<line y2="673.5" x2="2628.2" y1="540.09998" x1="3091"/>
<line y2="540.09998" x2="2509" y1="723" x1="2800"/>
<line y2="259.89999" x2="2509" y1="723" x1="2800"/>
<line y2="126.5" x2="2628.2" y1="723" x1="2800"/>
<line y2="228.2" x2="2526.5" y1="723" x1="2800"/>
<line y2="109" x2="2940.1001" y1="723" x1="2800"/>
<line y2="171.60001" x2="2571.6001" y1="723" x1="2800"/>
<line y2="721" x2="2836.2" y1="328.10001" x1="2485.1001"/>
<line y2="328.10001" x2="3114.8999" y1="328.10001" x1="2485.1001"/>
<line y2="147.5" x2="3001.3999" y1="328.10001" x1="2485.1001"/>
<line y2="601.40002" x2="3052.5" y1="328.10001" x1="2485.1001"/>
<line y2="85.099998" x2="2728.1001" y1="328.10001" x1="2485.1001"/>
<line y2="228.2" x2="3073.5" y1="328.10001" x1="2485.1001"/>
<line y2="721" x2="2836.2" y1="628.40002" x1="2571.6001"/>
<line y2="328.10001" x2="3114.8999" y1="628.40002" x1="2571.6001"/>
<line y2="259.89999" x2="3091" y1="628.40002" x1="2571.6001"/>
<line y2="721" x2="2763.8" y1="628.40002" x1="2571.6001"/>
<line y2="95.099998" x2="2693.3" y1="628.40002" x1="2571.6001"/>
<line y2="79" x2="2836.2" y1="628.40002" x1="2571.6001"/>
<line y2="400" x2="2477" y1="400" x1="3123"/>
<line y2="147.5" x2="2598.6001" y1="400" x1="3123"/>
<line y2="95.099998" x2="2693.3" y1="400" x1="3123"/>
<line y2="85.099998" x2="2728.1001" y1="400" x1="3123"/>
<line y2="109" x2="2940.1001" y1="400" x1="3123"/>
<line y2="673.5" x2="2628.2" y1="400" x1="3123"/>
<line y2="400" x2="2477" y1="79" x1="2763.8"/>
<line y2="147.5" x2="2598.6001" y1="79" x1="2763.8"/>
<line y2="721" x2="2763.8" y1="79" x1="2763.8"/>
<line y2="601.40002" x2="3052.5" y1="79" x1="2763.8"/>
<line y2="704.90002" x2="2693.3" y1="79" x1="2763.8"/>
<line y2="171.60001" x2="2571.6001" y1="79" x1="2763.8"/>
<line y2="126.5" x2="2971.8" y1="436.20001" x1="3121"/>
<line y2="506.70001" x2="2495.1001" y1="436.20001" x1="3121"/>
<line y2="259.89999" x2="3091" y1="436.20001" x1="3121"/>
<line y2="228.2" x2="2526.5" y1="436.20001" x1="3121"/>
<line y2="85.099998" x2="2871.8999" y1="436.20001" x1="3121"/>
<line y2="228.2" x2="3073.5" y1="436.20001" x1="3121"/>
<line y2="126.5" x2="2971.8" y1="363.79999" x1="3121"/>
<line y2="506.70001" x2="2495.1001" y1="363.79999" x1="3121"/>
<line y2="147.5" x2="3001.3999" y1="363.79999" x1="3121"/>
<line y2="126.5" x2="2628.2" y1="363.79999" x1="3121"/>
<line y2="571.79999" x2="3073.5" y1="363.79999" x1="3121"/>
<line y2="79" x2="2836.2" y1="363.79999" x1="3121"/>
<line y2="95.099998" x2="2693.3" y1="126.5" x1="2971.8"/>
<line y2="85.099998" x2="2728.1001" y1="126.5" x1="2971.8"/>
<line y2="704.90002" x2="2693.3" y1="126.5" x1="2971.8"/>
<line y2="171.60001" x2="2571.6001" y1="126.5" x1="2971.8"/>
<line y2="721" x2="2763.8" y1="506.70001" x1="2495.1001"/>
<line y2="601.40002" x2="3052.5" y1="506.70001" x1="2495.1001"/>
<line y2="109" x2="2940.1001" y1="506.70001" x1="2495.1001"/>
<line y2="673.5" x2="2628.2" y1="506.70001" x1="2495.1001"/>
<line y2="147.5" x2="3001.3999" y1="400" x1="2477"/>
<line y2="228.2" x2="2526.5" y1="400" x1="2477"/>
<line y2="85.099998" x2="2871.8999" y1="400" x1="2477"/>
<line y2="79" x2="2836.2" y1="400" x1="2477"/>
<line y2="259.89999" x2="3091" y1="147.5" x1="2598.6001"/>
<line y2="126.5" x2="2628.2" y1="147.5" x1="2598.6001"/>
<line y2="571.79999" x2="3073.5" y1="147.5" x1="2598.6001"/>
<line y2="228.2" x2="3073.5" y1="147.5" x1="2598.6001"/>
<line y2="571.79999" x2="3073.5" y1="721" x1="2836.2"/>
<line y2="85.099998" x2="2871.8999" y1="721" x1="2836.2"/>
<line y2="109" x2="2940.1001" y1="721" x1="2836.2"/>
<line y2="171.60001" x2="2571.6001" y1="721" x1="2836.2"/>
<line y2="126.5" x2="2628.2" y1="328.10001" x1="3114.8999"/>
<line y2="228.2" x2="2526.5" y1="328.10001" x1="3114.8999"/>
<line y2="704.90002" x2="2693.3" y1="328.10001" x1="3114.8999"/>
<line y2="673.5" x2="2628.2" y1="328.10001" x1="3114.8999"/>
<line y2="259.89999" x2="3091" y1="540.09998" x1="2509"/>
<line y2="601.40002" x2="3052.5" y1="540.09998" x1="2509"/>
<line y2="85.099998" x2="2728.1001" y1="540.09998" x1="2509"/>
<line y2="79" x2="2836.2" y1="540.09998" x1="2509"/>
<line y2="147.5" x2="3001.3999" y1="259.89999" x1="2509"/>
<line y2="721" x2="2763.8" y1="259.89999" x1="2509"/>
<line y2="95.099998" x2="2693.3" y1="259.89999" x1="2509"/>
<line y2="228.2" x2="3073.5" y1="259.89999" x1="2509"/>
<line y2="228.2" x2="3073.5" y1="691" x1="2940.1001"/>
<line y2="79" x2="2836.2" y1="691" x1="2940.1001"/>
<line y2="673.5" x2="2628.2" y1="691" x1="2940.1001"/>
<line y2="171.60001" x2="2571.6001" y1="691" x1="2940.1001"/>
<line y2="259.89999" x2="3091" y1="704.90002" x1="2906.7"/>
<line y2="147.5" x2="3001.3999" y1="704.90002" x1="2906.7"/>
<line y2="704.90002" x2="2693.3" y1="704.90002" x1="2906.7"/>
<line y2="109" x2="2940.1001" y1="704.90002" x1="2906.7"/>
<line y2="721" x2="2763.8" y1="506.70001" x1="3104.8999"/>
<line y2="126.5" x2="2628.2" y1="506.70001" x1="3104.8999"/>
<line y2="85.099998" x2="2871.8999" y1="506.70001" x1="3104.8999"/>
<line y2="85.099998" x2="2728.1001" y1="506.70001" x1="3104.8999"/>
<line y2="601.40002" x2="3052.5" y1="436.20001" x1="2479"/>
<line y2="228.2" x2="2526.5" y1="436.20001" x1="2479"/>
<line y2="571.79999" x2="3073.5" y1="436.20001" x1="2479"/>
<line y2="95.099998" x2="2693.3" y1="436.20001" x1="2479"/></g> 
<g style="fill:blue; stroke:black; stroke-width: 1; " transform="translate(-3160, -156.209)"> 
<circle r="6" cy="471.89999" cx="2485.1001"/>
<circle r="6" cy="198.60001" cx="2547.5"/>
<circle r="6" cy="714.90002" cx="2871.8999"/>
<circle r="6" cy="652.5" cx="3001.3999"/>
<circle r="6" cy="77" cx="2800"/>
<circle r="6" cy="471.89999" cx="3114.8999"/>
<circle r="6" cy="673.5" cx="2971.8"/>
<circle r="6" cy="109" cx="2659.8999"/>
<circle r="6" cy="601.40002" cx="2547.5"/>
<circle r="6" cy="628.40002" cx="3028.3999"/>
<circle r="6" cy="293.29999" cx="2495.1001"/>
<circle r="6" cy="714.90002" cx="2728.1001"/>
<circle r="6" cy="171.60001" cx="3028.3999"/>
<circle r="6" cy="363.79999" cx="2479"/>
<circle r="6" cy="652.5" cx="2598.6001"/>
<circle r="6" cy="293.29999" cx="3104.8999"/>
<circle r="6" cy="691" cx="2659.8999"/>
<circle r="6" cy="198.60001" cx="3052.5"/>
<circle r="6" cy="571.79999" cx="2526.5"/>
<circle r="6" cy="95.099998" cx="2906.7"/>
<circle r="6" cy="540.09998" cx="3091"/>
<circle r="6" cy="723" cx="2800"/>
<circle r="6" cy="328.10001" cx="2485.1001"/>
<circle r="6" cy="628.40002" cx="2571.6001"/>
<circle r="6" cy="400" cx="3123"/>
<circle r="6" cy="79" cx="2763.8"/>
<circle r="6" cy="436.20001" cx="3121"/>
<circle r="6" cy="363.79999" cx="3121"/>
<circle r="6" cy="126.5" cx="2971.8"/>
<circle r="6" cy="506.70001" cx="2495.1001"/>
<circle r="6" cy="400" cx="2477"/>
<circle r="6" cy="147.5" cx="2598.6001"/>
<circle r="6" cy="721" cx="2836.2"/>
<circle r="6" cy="328.10001" cx="3114.8999"/>
<circle r="6" cy="540.09998" cx="2509"/>
<circle r="6" cy="259.89999" cx="2509"/>
<circle r="6" cy="691" cx="2940.1001"/>
<circle r="6" cy="704.90002" cx="2906.7"/>
<circle r="6" cy="506.70001" cx="3104.8999"/>
<circle r="6" cy="436.20001" cx="2479"/>
<circle r="6" cy="259.89999" cx="3091"/>
<circle r="6" cy="147.5" cx="3001.3999"/>
<circle r="6" cy="721" cx="2763.8"/>
<circle r="6" cy="601.40002" cx="3052.5"/>
<circle r="6" cy="126.5" cx="2628.2"/>
<circle r="6" cy="228.2" cx="2526.5"/>
<circle r="6" cy="571.79999" cx="3073.5"/>
<circle r="6" cy="85.099998" cx="2871.8999"/>
<circle r="6" cy="95.099998" cx="2693.3"/>
<circle r="6" cy="85.099998" cx="2728.1001"/>
<circle r="6" cy="228.2" cx="3073.5"/>
<circle r="6" cy="79" cx="2836.2"/>
<circle r="6" cy="704.90002" cx="2693.3"/>
<circle r="6" cy="109" cx="2940.1001"/>
<circle r="6" cy="673.5" cx="2628.2"/>
<circle r="6" cy="171.60001" cx="2571.6001"/>
</g></g></g></svg>